/* XPM */
static char *bb5970c373104245e971eef687b4834bpBCJhuA6u87Wfe5a[] = {
/* columns rows colors chars-per-pixel */
"64 64 3 1 ",
"  c #464646",
". c #FFC20E",
"X c white",
/* pixels */
"XXXXXXXXXXXXXXXXXXXXXXXXXXXXXXXXXXXXXXXXXXXXXXXXXXXXXXXXXXXXXXXX",
"XXXXXXXXXXXXXXXXXXXXXXXXXXXXXXXXXXXXXXXXXXXXXXXXXXXXXXXXXXXXXXXX",
"XXXXXXXXXXXXXXXXXXXXXXXXXXXXXXXXXXXXXXXXXXXXXXXXXXXXXXXXXXXXXXXX",
"XXXXXXXXXXXXXXXXXXXXXXXXXXXXXXXXXXXXXXXXXXXXXXXXXXXXXXXXXXXXXXXX",
"XXXX                                                        XXXX",
"XXXX                                                        XXXX",
"XXXX                                                        XXXX",
"XXXX                                                        XXXX",
"XXXX                                                        XXXX",
"XXXX                                                        XXXX",
"XXXX                                                        XXXX",
"XXXX                                                        XXXX",
"XXXX                    ................                    XXXX",
"XXXX                    ................                    XXXX",
"XXXX                    ................                    XXXX",
"XXXX                    ................                    XXXX",
"XXXX                    ................                    XXXX",
"XXXX                    ................                    XXXX",
"XXXX                    ................                    XXXX",
"XXXX                    ................                    XXXX",
"XXXX            ........                ......              XXXX",
"XXXX            ........                ......              XXXX",
"XXXX            ........                ......              XXXX",
"XXXX            ........                ......              XXXX",
"XXXX            ........                ......              XXXX",
"XXXX            ........                ......              XXXX",
"XXXX            ........                ......              XXXX",
"XXXX            ........                ......              XXXX",
"XXXX            ........                                    XXXX",
"XXXX            ........                                    XXXX",
"XXXX            ........                                    XXXX",
"XXXX            ........                                    XXXX",
"XXXX            ........                                    XXXX",
"XXXX            ........                                    XXXX",
"XXXX            ........                                    XXXX",
"XXXX            ........                                    XXXX",
"XXXX            ........                ......              XXXX",
"XXXX            ........                ......              XXXX",
"XXXX            ........                ......              XXXX",
"XXXX            ........                ......              XXXX",
"XXXX            ........                ......              XXXX",
"XXXX            ........                ......              XXXX",
"XXXX            ........                ......              XXXX",
"XXXX            ........                ......              XXXX",
"XXXX                    ................                    XXXX",
"XXXX                    ................                    XXXX",
"XXXX                    ................                    XXXX",
"XXXX                    ................                    XXXX",
"XXXX                    ................                    XXXX",
"XXXX                    ................                    XXXX",
"XXXX                    ................                    XXXX",
"XXXX                    ................                    XXXX",
"XXXX                                                        XXXX",
"XXXX                                                        XXXX",
"XXXX                                                        XXXX",
"XXXX                                                        XXXX",
"XXXX                                                        XXXX",
"XXXX                                                        XXXX",
"XXXX                                                        XXXX",
"XXXX                                                        XXXX",
"XXXXXXXXXXXXXXXXXXXXXXXXXXXXXXXXXXXXXXXXXXXXXXXXXXXXXXXXXXXXXXXX",
"XXXXXXXXXXXXXXXXXXXXXXXXXXXXXXXXXXXXXXXXXXXXXXXXXXXXXXXXXXXXXXXX",
"XXXXXXXXXXXXXXXXXXXXXXXXXXXXXXXXXXXXXXXXXXXXXXXXXXXXXXXXXXXXXXXX",
"XXXXXXXXXXXXXXXXXXXXXXXXXXXXXXXXXXXXXXXXXXXXXXXXXXXXXXXXXXXXXXXX"
};
