/* XPM */
static char *aa49ef03aa004ccaaf6f30460b859b1duVUXLf9gXsiajZoU[] = {
/* columns rows colors chars-per-pixel */
"64 64 3 1 ",
"  c black",
". c #464646",
"X c white",
/* pixels */
"XXXXXXXXXXXXXXXXXXXXXXXXXXXXXXXXXXXXXXXXXXXXXXXXXXXXXXXXXXXXXXXX",
"XXXXXXXXXXXXXXXXXXXXXXXXXXXXXXXXXXXXXXXXXXXXXXXXXXXXXXXXXXXXXXXX",
"XXXXXXXXXXXXXXXXXXXXXXXXXXXXXXXXXXXXXXXXXXXXXXXXXXXXXXXXXXXXXXXX",
"XXXXXXXXXXXXXXXXXXXXXXXXXXXXXXXXXXXXXXXXXXXXXXXXXXXXXXXXXXXXXXXX",
"XXXX........................................................XXXX",
"XXXX........................................................XXXX",
"XXXX........................................................XXXX",
"XXXX........................................................XXXX",
"XXXX...........................XXXXXXXX.....................XXXX",
"XXXX.........................XXXXXXXXXXXX...................XXXX",
"XXXX........................XXXXXXXXXXXXXX..................XXXX",
"XXXX.......................XXXXXXXXXXXXXXXX.................XXXX",
"XXXX......................XXXXXXXX..XXXXXXXX................XXXX",
"XXXX......................XXXXXX......XXXXXX................XXXX",
"XXXX.............        XXXXXX        XXXXXX    ...........XXXX",
"XXXX.............        XXXXX          XXXXX    ...........XXXX",
"XXXX.............        XXXXX          XXXXX    ...........XXXX",
"XXXX.............        XXXX            XXXX    ...........XXXX",
"XXXX.............        XXXX            XXXX    ...........XXXX",
"XXXX.............        XXXXX          XXXXX    ...........XXXX",
"XXXX.............        XXXXX          XXXXX    ...........XXXX",
"XXXX.............        XXXXXX        XXXXXX    ...........XXXX",
"XXXX.............        .XXXXXX......XXXXXX................XXXX",
"XXXX.............        .XXXXXXXX..XXXXXXXX................XXXX",
"XXXX.............        ..XXXXXXXXXXXXXXXX.................XXXX",
"XXXX.............        ...XXXXXXXXXXXXXX..................XXXX",
"XXXX.............        ....XXXXXXXXXXXX...................XXXX",
"XXXX.............        ......XXXXXXXX.....................XXXX",
"XXXX.............        ........XXXX.......................XXXX",
"XXXX.............        ........XXXX.......................XXXX",
"XXXX............. XXXXX          XXXX    ...................XXXX",
"XXXX............. XXXXXX         XXXX    ...................XXXX",
"XXXX............. XXXXXX      XXXXXXXXXX ...................XXXX",
"XXXX............. XXXXXXXXXXXXXXXXXXXXXXXXX.................XXXX",
"XXXX.............  XXXXXXXXXXXXXXXXXXXXXXXXXXXXX............XXXX",
"XXXX.............    XXXXXXXXXXXXXXXXXXXXXXXXXXX............XXXX",
"XXXX.............    XXXXXXXXXXXXXXXXXXXXXXXXXXXXXX.........XXXX",
"XXXX.............               XXXXX  XXXXXXXXXXXX.........XXXX",
"XXXX.............        .......XXXX...........XXXX.........XXXX",
"XXXX.............        .......XXXX...........XXXX.........XXXX",
"XXXX.............        .......XXXX...........XXXX.........XXXX",
"XXXX.............        .......XXXX........................XXXX",
"XXXX.............        .......XXXX........................XXXX",
"XXXX.............        .......XXXX........................XXXX",
"XXXX.............        .......XXXX........................XXXX",
"XXXX.............        ....XXXXXXXXXXXXXX.................XXXX",
"XXXX.............       XXXXXXXXXXXXXXXXXXXX     ...........XXXX",
"XXXX.............     XXXXXXXXXXXXXXXXXXXXXX     ...........XXXX",
"XXXX.............  XXXXXXXXXXXXXXXXXXXXXXXXX     ...........XXXX",
"XXXX.............  XXXXXXXXXXXXX       XXXXX     ...........XXXX",
"XXXX.............  XXXXXXXX             XXXXX    ...........XXXX",
"XXXX.............  XXXXXX               XXXXX    ...........XXXX",
"XXXX...............XXXX.................XXXXX...............XXXX",
"XXXX...............XXXX..................XXXX...............XXXX",
"XXXX...............XXXX..................XXXX...............XXXX",
"XXXX...............XXXX..................XXXX...............XXXX",
"XXXX...............XXXX..................XXXX...............XXXX",
"XXXX........................................................XXXX",
"XXXX........................................................XXXX",
"XXXX........................................................XXXX",
"XXXXXXXXXXXXXXXXXXXXXXXXXXXXXXXXXXXXXXXXXXXXXXXXXXXXXXXXXXXXXXXX",
"XXXXXXXXXXXXXXXXXXXXXXXXXXXXXXXXXXXXXXXXXXXXXXXXXXXXXXXXXXXXXXXX",
"XXXXXXXXXXXXXXXXXXXXXXXXXXXXXXXXXXXXXXXXXXXXXXXXXXXXXXXXXXXXXXXX",
"XXXXXXXXXXXXXXXXXXXXXXXXXXXXXXXXXXXXXXXXXXXXXXXXXXXXXXXXXXXXXXXX"
};
