/* XPM */
static char *_693a915e5b34261d4bc73e7405b437dLSK03mgA1QlLPHfq[] = {
/* columns rows colors chars-per-pixel */
"64 64 2 1 ",
"  c #464646",
". c white",
/* pixels */
"................................................................",
"................................................................",
"................................................................",
"................................................................",
"....                                                        ....",
"....                                                        ....",
"....                                                        ....",
"....                                                        ....",
"....                                                        ....",
"....                                                        ....",
"....                                                        ....",
"....                                                        ....",
"....                                                        ....",
"....                                                        ....",
"....             ................................           ....",
"....             ................................           ....",
"....             ................................           ....",
"....             ................................           ....",
"....             ................................           ....",
"....             ................................           ....",
"....             ................................           ....",
"....             ................................           ....",
"....             ........                                   ....",
"....             ........                                   ....",
"....             ........                                   ....",
"....             ........                                   ....",
"....             ........                                   ....",
"....             ........                                   ....",
"....             ........                                   ....",
"....             ........                                   ....",
"....             ........................                   ....",
"....             ........................                   ....",
"....             ........................                   ....",
"....             ........................                   ....",
"....             ........................                   ....",
"....             ........................                   ....",
"....             ........................                   ....",
"....             ........................                   ....",
"....             ........                                   ....",
"....             ........                                   ....",
"....             ........                                   ....",
"....             ........                                   ....",
"....             ........                                   ....",
"....             ........                                   ....",
"....             ........                                   ....",
"....             ........                                   ....",
"....             ................................           ....",
"....             ................................           ....",
"....             ................................           ....",
"....             ................................           ....",
"....             ................................           ....",
"....             ................................           ....",
"....                                                        ....",
"....                                                        ....",
"....                                                        ....",
"....                                                        ....",
"....                                                        ....",
"....                                                        ....",
"....                                                        ....",
"....                                                        ....",
"................................................................",
"................................................................",
"................................................................",
"................................................................"
};
