/* XPM */
static char *e38f14e0dbb049a8a61732bef984a304fFiFkfX0MYsJhKbw[] = {
/* columns rows colors chars-per-pixel */
"64 64 3 1 ",
"  c #464646",
". c #B4B4B4",
"X c white",
/* pixels */
"XXXXXXXXXXXXXXXXXXXXXXXXXXXXXXXXXXXXXXXXXXXXXXXXXXXXXXXXXXXXXXXX",
"XXXXXXXXXXXXXXXXXXXXXXXXXXXXXXXXXXXXXXXXXXXXXXXXXXXXXXXXXXXXXXXX",
"XXXXXXXXXXXXXXXXXXXXXXXXXXXXXXXXXXXXXXXXXXXXXXXXXXXXXXXXXXXXXXXX",
"XXXXXXXXXXXXXXXXXXXXXXXXXXXXXXXXXXXXXXXXXXXXXXXXXXXXXXXXXXXXXXXX",
"XXXX                                                        XXXX",
"XXXX                                                        XXXX",
"XXXX                                                        XXXX",
"XXXX                                                        XXXX",
"XXXX                                                        XXXX",
"XXXX                                                        XXXX",
"XXXX                                                        XXXX",
"XXXX                                                        XXXX",
"XXXX                     ................                   XXXX",
"XXXX                     ................                   XXXX",
"XXXX                     ................                   XXXX",
"XXXX                     ................                   XXXX",
"XXXX                     ................                   XXXX",
"XXXX                     ................                   XXXX",
"XXXX                     ................                   XXXX",
"XXXX                     ................                   XXXX",
"XXXX             ........                                   XXXX",
"XXXX             ........                                   XXXX",
"XXXX             ........                                   XXXX",
"XXXX             ........                                   XXXX",
"XXXX             ........                                   XXXX",
"XXXX             ........                                   XXXX",
"XXXX             ........                                   XXXX",
"XXXX             ........                                   XXXX",
"XXXX             ........        ................           XXXX",
"XXXX             ........        ................           XXXX",
"XXXX             ........        ................           XXXX",
"XXXX             ........        ................           XXXX",
"XXXX             ........        ................           XXXX",
"XXXX             ........        ................           XXXX",
"XXXX             ........        ................           XXXX",
"XXXX             ........        ................           XXXX",
"XXXX             ........                ........           XXXX",
"XXXX             ........                ........           XXXX",
"XXXX             ........                ........           XXXX",
"XXXX             ........                ........           XXXX",
"XXXX             ........                ........           XXXX",
"XXXX             ........                ........           XXXX",
"XXXX             ........                ........           XXXX",
"XXXX             ........                ........           XXXX",
"XXXX                     ................                   XXXX",
"XXXX                     ................                   XXXX",
"XXXX                     ................                   XXXX",
"XXXX                     ................                   XXXX",
"XXXX                     ................                   XXXX",
"XXXX                     ................                   XXXX",
"XXXX                     ................                   XXXX",
"XXXX                     ................                   XXXX",
"XXXX                                                        XXXX",
"XXXX                                                        XXXX",
"XXXX                                                        XXXX",
"XXXX                                                        XXXX",
"XXXX                                                        XXXX",
"XXXX                                                        XXXX",
"XXXX                                                        XXXX",
"XXXX                                                        XXXX",
"XXXXXXXXXXXXXXXXXXXXXXXXXXXXXXXXXXXXXXXXXXXXXXXXXXXXXXXXXXXXXXXX",
"XXXXXXXXXXXXXXXXXXXXXXXXXXXXXXXXXXXXXXXXXXXXXXXXXXXXXXXXXXXXXXXX",
"XXXXXXXXXXXXXXXXXXXXXXXXXXXXXXXXXXXXXXXXXXXXXXXXXXXXXXXXXXXXXXXX",
"XXXXXXXXXXXXXXXXXXXXXXXXXXXXXXXXXXXXXXXXXXXXXXXXXXXXXXXXXXXXXXXX"
};
