/* XPM */
static char *_3a1e7516bdb4667d9306218d649a6fa3smjbik6pHM2FhP1[] = {
/* columns rows colors chars-per-pixel */
"64 64 2 1 ",
"  c #464646",
". c white",
/* pixels */
"................................................................",
"................................................................",
"................................................................",
"................................................................",
"....                                                        ....",
"....                                                        ....",
"....                                                        ....",
"....                                                        ....",
"....                           ........                     ....",
"....                         ............                   ....",
"....                        ..............                  ....",
"....                       ................                 ....",
"....                      ........  ........                ....",
"....                      ......      ......                ....",
"....                     ......        ......               ....",
"....                     .....          .....               ....",
"....                     .....          .....               ....",
"....                     ....            ....               ....",
"....                     ....            ....               ....",
"....                     .....          .....               ....",
"....                     .....          .....               ....",
"....                     ......        ......               ....",
"....                      ......      ......                ....",
"....                      ........  ........                ....",
"....                       ................                 ....",
"....                        ..............                  ....",
"....                         ............                   ....",
"....                           ........                     ....",
"....                             ....                       ....",
"....                             ....                       ....",
"....              .....          ....                       ....",
"....              ......         ....                       ....",
"....              ......      ..........                    ....",
"....              .........................                 ....",
"....               .............................            ....",
"....                 ...........................            ....",
"....                 ..............................         ....",
"....                            .....  ............         ....",
"....                            ....           ....         ....",
"....                            ....           ....         ....",
"....                            ....           ....         ....",
"....                            ....                        ....",
"....                            ....                        ....",
"....                            ....                        ....",
"....                            ....                        ....",
"....                         ..............                 ....",
"....                    ....................                ....",
"....                  ......................                ....",
"....               .........................                ....",
"....               .............       .....                ....",
"....               ........             .....               ....",
"....               ......               .....               ....",
"....               ....                 .....               ....",
"....               ....                  ....               ....",
"....               ....                  ....               ....",
"....               ....                  ....               ....",
"....               ....                  ....               ....",
"....                                                        ....",
"....                                                        ....",
"....                                                        ....",
"................................................................",
"................................................................",
"................................................................",
"................................................................"
};
