/* XPM */
static char *_6cba236d11947a1955c3788cd665900Er722KeJxfmtTX4D[] = {
/* columns rows colors chars-per-pixel */
"64 64 2 1 ",
"  c #464646",
". c white",
/* pixels */
"................................................................",
"................................................................",
"................................................................",
"................................................................",
"........                                                ........",
".........                                              .........",
"..........                                            ..........",
"...........                                          ...........",
".... .......                                        ....... ....",
"....  .......                                      .......  ....",
"....   .......                                    .......   ....",
"....    .......                                  .......    ....",
"....     .......                                .......     ....",
"....      .......                              .......      ....",
"....       .......                            .......       ....",
"....        .......                          .......        ....",
"....         .......                        .......         ....",
"....          .......                      .......          ....",
"....           .......                    .......           ....",
"....            .......                  .......            ....",
"....             .......                .......             ....",
"....              .......              .......              ....",
"....               .......            .......               ....",
"....                .......          .......                ....",
"....                 .......        .......                 ....",
"....                  .......      .......                  ....",
"....                   .......    .......                   ....",
"....                    .......  .......                    ....",
"....                     ..............                     ....",
"....                      ............                      ....",
"....                       ..........                       ....",
"....                        ........                        ....",
"....                        ........                        ....",
"....                       ..........                       ....",
"....                      ............                      ....",
"....                     ..............                     ....",
"....                    .......  .......                    ....",
"....                   .......    .......                   ....",
"....                  .......      .......                  ....",
"....                 .......        .......                 ....",
"....                .......          .......                ....",
"....               .......            .......               ....",
"....              .......              .......              ....",
"....             .......                .......             ....",
"....            .......                  .......            ....",
"....           .......                    .......           ....",
"....          .......                      .......          ....",
"....         .......                        .......         ....",
"....        .......                          .......        ....",
"....       .......                            .......       ....",
"....      .......                              .......      ....",
"....     .......                                .......     ....",
"....    .......                                  .......    ....",
"....   .......                                    .......   ....",
"....  .......                                      .......  ....",
".... .......                                        ....... ....",
"...........                                          ...........",
"..........                                            ..........",
".........                                              .........",
"........                                                ........",
"................................................................",
"................................................................",
"................................................................",
"................................................................"
};
