/* XPM */
static char *_63c7b1f36a54c4cdffb6c66ad974271FF1Kq4J4nzbjNHpZ[] = {
/* columns rows colors chars-per-pixel */
"64 64 3 1 ",
"  c #464646",
". c #FFF200",
"X c white",
/* pixels */
"XXXXXXXXXXXXXXXXXXXXXXXXXXXXXXXXXXXXXXXXXXXXXXXXXXXXXXXXXXXXXXXX",
"XXXXXXXXXXXXXXXXXXXXXXXXXXXXXXXXXXXXXXXXXXXXXXXXXXXXXXXXXXXXXXXX",
"XXXXXXXXXXXXXXXXXXXXXXXXXXXXXXXXXXXXXXXXXXXXXXXXXXXXXXXXXXXXXXXX",
"XXXXXXXXXXXXXXXXXXXXXXXXXXXXXXXXXXXXXXXXXXXXXXXXXXXXXXXXXXXXXXXX",
"XXXX                                                        XXXX",
"XXXX                                                        XXXX",
"XXXX                                                        XXXX",
"XXXX                                                        XXXX",
"XXXX                                                        XXXX",
"XXXX                                                        XXXX",
"XXXX                                                        XXXX",
"XXXX                                                        XXXX",
"XXXX                                                        XXXX",
"XXXX                                                        XXXX",
"XXXX                                                        XXXX",
"XXXX                                                        XXXX",
"XXXX                                                        XXXX",
"XXXX                                                        XXXX",
"XXXX                                                        XXXX",
"XXXX                                                        XXXX",
"XXXX                                                        XXXX",
"XXXX                                                        XXXX",
"XXXX                                                        XXXX",
"XXXX                                                        XXXX",
"XXXX       ...         ...   .........   ...      ...       XXXX",
"XXXX       ...         ...   .........   ...      ...       XXXX",
"XXXX       ...         ...   .........   ...      ...       XXXX",
"XXXX       ...         ...      ...      ......   ...       XXXX",
"XXXX       ...         ...      ...      ......   ...       XXXX",
"XXXX       ...         ...      ...      ......   ...       XXXX",
"XXXX       ...   ...   ...      ...      ...   ......       XXXX",
"XXXX       ...   ...   ...      ...      ...   ......       XXXX",
"XXXX       ...   ...   ...      ...      ...   ......       XXXX",
"XXXX       ......   ......      ...      ...      ...       XXXX",
"XXXX       ......   ......      ...      ...      ...       XXXX",
"XXXX       ......   ......      ...      ...      ...       XXXX",
"XXXX       ...         ...   .........   ...      ...       XXXX",
"XXXX       ...         ...   .........   ...      ...       XXXX",
"XXXX       ...         ...   .........   ...      ...       XXXX",
"XXXX                                                        XXXX",
"XXXX                                                        XXXX",
"XXXX                                                        XXXX",
"XXXX                                                        XXXX",
"XXXX                                                        XXXX",
"XXXX                                                        XXXX",
"XXXX                                                        XXXX",
"XXXX                                                        XXXX",
"XXXX                                                        XXXX",
"XXXX                                                        XXXX",
"XXXX                                                        XXXX",
"XXXX                                                        XXXX",
"XXXX                                                        XXXX",
"XXXX                                                        XXXX",
"XXXX                                                        XXXX",
"XXXX                                                        XXXX",
"XXXX                                                        XXXX",
"XXXX                                                        XXXX",
"XXXX                                                        XXXX",
"XXXX                                                        XXXX",
"XXXX                                                        XXXX",
"XXXXXXXXXXXXXXXXXXXXXXXXXXXXXXXXXXXXXXXXXXXXXXXXXXXXXXXXXXXXXXXX",
"XXXXXXXXXXXXXXXXXXXXXXXXXXXXXXXXXXXXXXXXXXXXXXXXXXXXXXXXXXXXXXXX",
"XXXXXXXXXXXXXXXXXXXXXXXXXXXXXXXXXXXXXXXXXXXXXXXXXXXXXXXXXXXXXXXX",
"XXXXXXXXXXXXXXXXXXXXXXXXXXXXXXXXXXXXXXXXXXXXXXXXXXXXXXXXXXXXXXXX"
};
