/* XPM */
static char *block1712583821[] = {
/* columns rows colors chars-per-pixel */
"64 64 130 2 ",
"   c #615B3B",
".  c #625C3C",
"X  c #645E3C",
"o  c #645E3D",
"O  c #66623C",
"+  c #68653C",
"@  c #73753E",
"#  c #75793E",
"$  c #696340",
"%  c #6A6440",
"&  c #6D6741",
"*  c #6D6845",
"=  c #716B43",
"-  c #726E43",
";  c #716B44",
":  c #766F47",
">  c #736E49",
",  c #757146",
"<  c #797247",
"1  c #78724B",
"2  c #7B7448",
"3  c #7D7649",
"4  c #7D764A",
"5  c #7E7950",
"6  c #817A4D",
"7  c #827B4D",
"8  c #837C4E",
"9  c #7F8840",
"0  c #808A40",
"q  c #838D40",
"w  c #879243",
"e  c #899541",
"r  c #8D9645",
"t  c #8C9446",
"y  c #949E4E",
"u  c #898353",
"i  c #8A8454",
"p  c #8B8555",
"a  c #8C8656",
"s  c #8D8757",
"d  c #8E8857",
"f  c #8F8958",
"g  c #918B5A",
"h  c #928C5A",
"j  c #938D5B",
"k  c #958F5D",
"l  c #999C54",
"z  c #9B9E56",
"x  c #97915F",
"c  c #97925F",
"v  c #90A142",
"b  c #93A642",
"n  c #94A642",
"m  c #93A444",
"M  c #97AB43",
"N  c #99A648",
"B  c #98A34E",
"V  c #9FAE4A",
"C  c #9CB245",
"Z  c #A0B049",
"A  c #A9B74F",
"S  c #A8BF49",
"D  c #AABB4F",
"F  c #9B9662",
"G  c #9C9763",
"H  c #9C9764",
"J  c #9F9A66",
"K  c #9F9B66",
"L  c #A09B66",
"P  c #A09C66",
"I  c #A29D68",
"U  c #A39F69",
"Y  c #A4A06A",
"T  c #A6A26C",
"R  c #A7A36D",
"E  c #A8A46E",
"W  c #A9A66F",
"Q  c #ADB166",
"!  c #B2B56E",
"~  c #B3B86C",
"^  c #AAA670",
"/  c #AAA770",
"(  c #ABA871",
")  c #ACA972",
"_  c #AEAB74",
"`  c #AFAC75",
"'  c #AFAC76",
"]  c #B0AD76",
"[  c #B0AE76",
"{  c #B2AF78",
"}  c #B9BD75",
"|  c #B3B078",
" . c #B5B27B",
".. c #B5B37B",
"X. c #B6B47C",
"o. c #B7B57D",
"O. c #B8B67E",
"+. c #B9B87F",
"@. c #ADC44C",
"#. c #B3CC4D",
"$. c #B6D04E",
"%. c #BBD351",
"&. c #BCD352",
"*. c #BDD553",
"=. c #BFD755",
"-. c #BED851",
";. c #BED951",
":. c #BAC072",
">. c #BDC375",
",. c #C1DD52",
"<. c #C0D856",
"1. c #C1D957",
"2. c #C3DD55",
"3. c #C3DD56",
"4. c #C2DB58",
"5. c #C4DC5A",
"6. c #C4E053",
"7. c #C2C97A",
"8. c #BAB880",
"9. c #BBB981",
"0. c #BCBA82",
"q. c #BDBB82",
"w. c #BFBE84",
"e. c #C0BF85",
"r. c #C2C187",
"t. c #C3C288",
"y. c #C4C288",
"u. c #C4C389",
"i. c #C8C78C",
"p. c #CBCA8F",
/* pixels */
"6.6.6.6.6.6.6.6.6.6.6.6.6.6.6.6.6.6.6.6.6.6.6.6.6.6.6.6.6.6.6.6.6.6.6.6.6.6.6.6.6.6.6.6.6.6.6.6.6.6.6.6.6.6.6.6.6.6.6.6.6.6.6.6.",
"6.6.6.6.6.6.6.6.6.6.6.6.6.6.6.6.6.6.6.6.6.6.6.6.6.6.6.6.6.6.6.6.6.6.6.6.6.6.6.6.6.6.6.6.6.6.6.6.6.6.6.6.6.6.6.6.6.6.6.6.6.6.6.6.",
"6.6.6.6.6.6.6.6.6.6.6.6.6.6.6.6.6.6.6.6.6.6.6.6.6.6.6.6.6.6.6.6.6.6.6.6.6.6.6.6.6.6.6.6.6.6.6.6.6.6.6.6.6.6.6.6.6.6.6.6.6.6.6.6.",
"6.6.6.6.6.6.6.6.6.6.6.6.6.6.6.6.6.6.6.6.6.6.6.6.6.6.6.6.6.6.6.6.6.6.6.6.6.6.6.6.6.6.6.6.6.6.6.6.6.6.6.6.6.6.6.6.6.6.6.6.6.6.6.6.",
"6.6.6.6.6.6.6.6.6.6.6.6.6.6.6.6.6.6.6.6.6.6.6.6.6.6.6.6.6.6.6.6.6.6.6.6.6.6.6.6.6.6.6.6.6.6.6.6.6.6.6.6.6.6.6.6.6.6.6.6.6.6.6.6.",
"6.6.6.6.6.6.6.6.6.6.6.6.6.6.6.6.6.6.6.6.6.6.6.6.6.6.6.6.6.6.6.6.6.6.6.6.6.6.6.6.6.6.6.6.6.6.6.6.6.6.6.6.6.6.6.6.6.6.6.6.6.6.6.6.",
"6.6.6.6.6.6.6.6.6.6.6.6.6.6.6.6.6.6.6.6.6.6.6.6.6.6.6.6.6.6.6.6.6.6.6.6.6.6.6.6.6.6.6.6.6.6.6.6.6.6.6.6.6.6.6.6.6.6.6.6.6.6.6.6.",
"6.6.6.6.6.6.6.6.6.6.6.6.6.6.6.6.6.6.6.6.6.6.6.6.6.6.6.6.6.6.6.6.6.6.6.6.6.6.6.6.6.6.6.6.6.6.6.6.6.6.6.6.6.6.6.6.6.6.6.6.6.6.6.6.",
"6.6.6.6.6.6.6.6.6.6.6.6.6.6.6.6.6.6.6.6.6.6.6.6.6.6.6.6.6.6.6.6.6.6.6.6.6.6.6.6.6.6.6.6.6.6.6.6.6.6.6.6.6.6.6.6.6.6.6.6.6.6.6.6.",
"6.6.6.6.6.6.6.6.6.6.6.6.6.6.6.6.6.6.6.6.6.6.6.6.6.6.6.6.6.6.6.6.6.6.6.6.6.6.6.6.6.6.6.6.6.6.6.6.6.6.6.6.6.6.6.6.6.6.6.6.6.6.6.6.",
"6.6.6.6.6.6.6.6.6.6.6.6.6.6.6.6.6.6.6.6.6.6.6.6.6.6.6.6.6.6.6.6.6.6.6.6.6.6.6.6.6.6.6.6.6.6.6.6.6.6.6.6.6.6.6.6.6.6.6.6.6.6.6.6.",
"6.6.6.6.6.6.6.6.6.6.6.6.6.6.6.6.6.6.6.6.6.6.6.6.6.6.6.6.6.7.7.7.7.7.7.7.7.7.7.7.7.7.7.7.7.5.6.6.6.6.6.6.6.6.6.6.6.6.6.6.6.6.6.6.",
"6.6.6.6.6.6.6.6.6.6.6.6.6.6.6.6.6.6.6.6.6.6.6.6.6.6.6.6.6.r.r.r.r.r.r.r.r.r.r.r.r.r.r.r.r.5.6.6.6.2.6.6.6.6.6.6.6.6.6.6.6.6.6.6.",
"6.6.6.6.6.6.6.6.6.6.6.6.6.6.6.6.6.6.6.6.6.6.6.~ ~ ~ ~ ~ ! t.r.r.r.p.i.p.p.i.p.r.y.y.p.r.r.>.>.~ ~ 2.6.6.6.6.6.6.6.6.6.6.6.6.6.6.",
"6.6.6.6.6.6.6.6.6.6.6.6.6.6.6.6.6.6.6.6.6.6.6.' _ _ _ _ _ t.t.t.r.p.p.p.p.p.p.r.r.p.p.r.r.8.+.' ' 1.6.6.6.6.6.6.6.6.6.6.6.6.6.6.",
"6.6.6.6.6.6.6.6.6.6.6.6.6.6.6.6.6.6.6.~ ~ ~ ~ q.0.y.t.r.t.i.i.p.i.p.p.p.p.p.p.i.p.p.p.r.r.r.r.] _ Q Q 1.6.6.6.6.6.6.6.6.6.6.6.6.",
"6.6.6.6.6.6.6.6.6.6.6.6.6.6.6.6.6.6.,._ _ ' _ r.r.p.p.p.p.p.p.p.p.p.p.p.p.p.p.p.p.p.p.y.r.r.r.] _ R Y 1.2.6.6.6.6.6.6.6.6.6.6.6.",
"6.6.6.6.6.6.6.6.6.6.6.6.6.6.6.6.6.~ ~ 0.0.y.y.p.p.p.p.p.p.p.p.p.p.p.p.p.p.p.p.p.p.y.y.r.r.r.r.o.| W R Q Q =.6.6.6.6.6.6.6.6.6.6.",
"6.6.6.6.6.6.6.6.6.6.6.6.6.6.6.6.6.' _ r.r.p.p.p.p.p.p.p.p.p.p.p.p.p.p.p.p.p.p.p.p.u.r.r.r.r.r.O.O./ R Y T 1.6.6.6.6.6.6.6.6.6.6.",
"6.6.6.6.6.6.6.6.6.6.6.6.6.6.6.~ ~ y.y.p.i.p.p.p.p.p.p.t.t.t.t.y.u.p.p.p.p.p.p.u.u.r.r.0.+.e.r.| ' Y R R T 1.6.6.6.6.6.6.6.6.6.6.",
"6.6.6.6.6.6.6.6.6.6.6.6.6.6.6._ _ p.p.p.p.p.p.p.p.p.p.t.r.r.r.t.r.p.p.p.p.p.p.u.r.r.r.O.O.r.r._ _ Y R T T 1.6.6.6.6.6.6.6.6.6.6.",
"6.6.6.6.6.6.6.6.6.6.6.6.2.~ ~ y.y.p.p.p.p.p.p.y.y.t.y.t.r.r.r.i.p.p.p.p.p.u.u.r.r.r.t.q.0.X.| ] _ / Y K K =.6.6.6.6.6.6.6.6.6.6.",
"6.6.6.6.6.6.6.6.6.6.6.6.1._ _ p.p.p.p.p.p.p.p.r.r.r.r.r.r.r.r.p.p.p.p.p.p.r.r.r.r.r.r.r.r.] _ _ _ Y R F F =.2.6.6.6.6.6.6.6.6.6.",
"6.6.6.6.6.6.6.6.6.6.2.:.} y.y.p.p.u.u.u.u.u.y.r.r.r.r.r.r.r.t.t.u.u.u.u.u.r.r.i.i.i.p.X.| _ _ _ _ P P h d *.6.6.6.6.6.6.6.6.6.6.",
"6.6.6.6.6.6.6.6.6.6.4.o.+.p.p.p.p.r.r.r.r.r.r.r.r.r.r.r.t.r.r.r.r.r.r.r.r.r.r.p.p.p.p.] _ _ _ _ _ F c s s *.6.6.6.6.6.6.6.6.6.6.",
"6.6.6.6.6.6.6.6.2.:.} o.O.0.0.p.p.r.r.r.r.| | | | p.i.i.i.t.r.r.r.r.r.p.i.i.p.q.+. .X.] _ _ _ ] _ c f s i *.6.6.6.6.6.6.6.6.6.6.",
"6.6.6.6.6.6.6.6.4.o.o.o.o.o.o.p.p.r.r.r.r._ _ _ _ p.p.p.p.y.e.y.r.r.r.p.p.p.p.O.o.' _ _ _ _ _ ] _ f i i s *.6.6.6.6.6.6.6.6.6.6.",
"6.6.6.6.6.6.6.6.4.o.o.o.o.o.o.0.+.i.p.r.r.L L _ _ o.o.|  .8.+.+.+.+.8.0.0.q.8.] ' _ _ _ _ _ _ P K f s i i *.6.6.6.6.6.6.6.6.6.6.",
"6.6.6.6.6.6.6.6.4.o.o.o.o.o.o.o.O.p.p.y.r.F F _ _ _ _ _ _ O.o.o.X.O.X.O.o.X.o.' _ _ _ _ _ ' ' H F d i i i -.6.6.6.6.6.6.6.6.6.6.",
"6.6.6.6.6.6.2.~ ! / / / / / / o.o.0.0.+.+.F F K P Y / |  .o.o.o.O.X.O.[ | ' [ _ _ _ _ _ _ I K h d G P d i *.6.6.6.6.6.6.6.6.6.6.",
"6.6.6.6.6.6.1._ _ T T T T T T o.o.o.o.o.o.F F F G T T O.o.o.o.o.X.O.| _ _ _ _ _ _ _ _ _ _ G F i i I T d u *.6.6.6.6.6.6.6.6.6.6.",
"6.6.6.6.6.6.1._ _ ( ( T T T T / / / / o.o.Y Y F G Y T ( W O.o.o.X.' | P K K K _ _ _ _ _ _ K F K P T T F F l l *.6.6.6.6.6.6.6.6.",
"6.6.6.6.6.,.1._ _ _ _ Y Y Y Y Y T T T o.o.T U F H T T T T o.o.o.+._ _ G F F F _ ] _ _ ] _ G G U R U R H F s i *.2.2.6.6.6.6.6.6.",
"6.6.6.6.6.2.1._ _ _ _ _ _ _ _ _ ) ) ) { ] R R F G T T T T / / / / K P F F W W _ ] R R R R U U R Y L L g s s s &.6.6.6.6.6.6.6.6.",
"6.6.6.6.6.6.1._ _ _ _ _ _ _ _ _ _ _ _ _ _ U T H F U T T T T T T Y F F F G _ _ _ ] R R R R T T U R H G s i i s &.6.6.6.6.6.6.6.6.",
"6.6.6.6.6.6.1.P I W / _ _ _ _ _ _ _ _ _ ] ^ / I I R R H L L L H P F F R R W / Y R R Y R R L L L L j g i s 6 6 &.6.6.6.6.6.6.6.6.",
"6.6.6.6.6.6.,.F F Y T ] ' _ _ _ _ _ _ _ _ _ _ R T T T G G G F G G H G ] _ Y R Y U R Y U T F G G G s u s u 3 2 &.6.6.6.6.6.6.6.6.",
"6.6.6.6.6.6.1.F F P P I I W W _ _ _ _ / / / ^ U T T T I I R U ^ Y T Y ^ R R W P L L L L L F G g g 6 6 g k 3 2 &.6.6.6.6.6.6.6.6.",
"6.6.6.6.2.6.<.F F F G F F T T ] _ _ _ T U T T T R U T T U ] _ _ ] _ ] Y R U Y F F F F G G F H s u 3 2 G H 4 2 &.6.6.6.6.6.6.6.6.",
"6.6.6.6.2.2.=.g g g g g g L L L I I I I I H I T T I H L K I I I U L P L L L L K F F F g g g g 6 6 d f 6 5 3 2 &.6.6.6.6.6.6.6.6.",
"6.6.6.6.6.6.*.d s i s s s F F F F F F F F F F T T F F F F F F F H G F F G F F F F F F s s i i 3 < c G > * 2 2 *.6.6.6.6.6.6.6.6.",
"6.6.6.6.6.6.*.i u 6 6 i s g g g g g g H F F F K L F F F F F F F G g g g g g g g g g g s i i s 3 2 y B & o + + $.6.6.6.6.6.6.6.6.",
"6.6.6.6.6.6.*.i i < 3 u u s i i i s i H F F F F H F F G F F F F G i i i s i i s u s u s i s s 3 2 m M + . .   $.6.6.6.6.6.6.6.6.",
"6.6.6.6.6.2.*.6 6 & + 6 6 i i s i i i 5 5 g g g g 5 3 g g g g g g s i 6 6 6 6 u s u s u i 6 6 & % @ # q q - , #.6.6.6.6.6.6.6.6.",
"6.6.6.6.6.6.*.2 <   o 3 3 s i s i i s * * i i i s * * s i i i s i i i 2 2 2 2 u u s s i i 4 2 o       r M 6 2 %.6.6.6.6.6.6.6.6.",
"6.6.6.6.6.6.;.r w . O r t 6 6 6 6 1 1 * * 1 1 ; ; o o ; ; s i i i s s g f f s s u 6 6 6 6 & % .       @.#.D D -.6.6.6.6.6.6.6.6.",
"6.6.6.6.6.2.;.M r o + M r 3 2 2 2 * * * * * * .         . s s i i s i H G G G s s 3 2 2 2 o . .       #.6.6.6.6.6.6.6.6.6.6.6.6.",
"6.6.6.6.6.,.,.#.@.q e M n + % 2 2 : > w w 2 > * = q q = = 6 6 6 6 6 6 8 8 B B : = + + % + 0 q o   N Z 2.6.6.6.6.6.6.6.6.6.6.6.6.",
"6.6.6.6.6.6.6.6.;.M M M v     < 2 2 2 M M 2 2 2 2 M M 2 2 2 2 2 2 4 2 2 3 M M +           v M +   #.6.6.6.6.6.6.6.6.6.6.6.6.6.6.",
"6.6.6.6.6.6.6.6.,.#.#.M n q q r r r r #.#.r r + + M M r r + % % + + + r r M M +       9 q n M Z V -.6.6.6.6.6.6.6.6.6.6.6.6.6.6.",
"6.6.6.6.6.6.6.6.6.6.;.M M M M M M M M ,.2.M M   X M M M M       . .   M M M M +       v M M M ,.6.6.6.6.6.6.6.6.6.6.6.6.6.6.6.6.",
"6.6.6.6.6.6.6.6.6.6.,.#.#.M M M M #.#.@.@.n M q q #.#.M M Z Z q q q q M M #.#.e q q q @.#.#.#.,.6.6.6.6.6.6.6.6.6.6.6.6.6.6.6.6.",
"6.6.6.6.6.6.6.6.6.6.6.6.;.M M M M 6.6.M M M M M M 2.6.M M 6.6.M M M M M M 6.6.C M M M -.6.6.6.6.6.6.6.6.6.6.6.6.6.6.6.6.6.6.6.6.",
"6.6.6.6.6.6.6.6.6.6.6.6.,.#.#.#.#.6.6.#.#.#.#.#.#.6.6.#.#.6.6.#.#.#.#.#.#.6.6.$.#.#.#.,.6.6.6.6.6.6.6.6.6.6.6.6.6.6.6.6.6.6.6.6.",
"6.6.6.6.6.6.6.6.6.6.6.6.6.6.,.6.6.6.6.6.6.6.6.6.6.6.6.6.6.6.6.6.6.6.4.2.6.6.6.6.6.6.2.6.6.6.6.6.6.6.6.6.6.6.6.6.6.6.6.6.6.6.6.6.",
"6.6.6.6.6.6.6.6.6.6.6.6.6.6.6.6.6.6.6.6.6.6.6.6.6.6.6.6.6.6.6.6.6.6.6.6.6.6.6.6.6.6.6.6.6.6.6.6.6.6.6.6.6.6.6.6.6.6.6.6.6.6.6.6.",
"6.6.6.6.6.6.6.6.6.6.6.6.6.6.6.6.6.6.6.6.6.6.6.6.6.6.6.6.6.6.6.6.6.6.6.6.6.6.6.6.6.6.6.6.6.6.6.6.6.6.6.6.6.6.6.6.6.6.6.6.6.6.6.6.",
"6.6.6.6.6.6.6.6.6.6.6.6.6.6.6.6.6.6.6.6.6.6.6.6.6.6.6.6.6.6.6.6.6.6.6.6.6.6.6.6.6.6.6.6.6.6.6.6.6.6.6.6.6.6.6.6.6.6.6.6.6.6.6.6.",
"6.6.6.6.6.6.6.6.6.6.6.6.6.6.6.6.6.6.6.6.6.6.6.6.6.6.6.6.6.6.6.6.6.6.6.6.6.6.6.6.6.6.6.6.6.6.6.6.6.6.6.6.6.6.6.6.6.6.6.6.6.6.6.6.",
"6.6.6.6.6.6.6.6.6.6.6.6.6.6.6.6.6.6.6.6.6.6.6.6.6.6.6.6.6.6.6.6.6.6.6.6.6.6.6.6.6.6.6.6.6.6.6.6.6.6.6.6.6.6.6.6.6.6.6.6.6.6.6.6.",
"6.6.6.6.6.6.6.6.6.6.6.6.6.6.6.6.6.6.6.6.6.6.6.6.6.6.6.6.6.6.6.6.6.6.6.6.6.6.6.6.6.6.6.6.6.6.6.6.6.6.6.6.6.6.6.6.6.6.6.6.6.6.6.6.",
"6.6.6.6.6.6.6.6.6.6.6.6.6.6.6.6.6.6.6.6.6.6.6.6.6.6.6.6.6.6.6.6.6.6.6.6.6.6.6.6.6.6.6.6.6.6.6.6.6.6.6.6.6.6.6.6.6.6.6.6.6.6.6.6.",
"6.6.6.6.6.6.6.6.6.6.6.6.6.6.6.6.6.6.6.6.6.6.6.6.6.6.6.6.6.6.6.6.6.6.6.6.6.6.6.6.6.6.6.6.6.6.6.6.6.6.6.6.6.6.6.6.6.6.6.6.6.6.6.6.",
"6.6.6.6.6.6.6.6.6.6.6.6.6.6.6.6.6.6.6.6.6.6.6.6.6.6.6.6.6.6.6.6.6.6.6.6.6.6.6.6.6.6.6.6.6.6.6.6.6.6.6.6.6.6.6.6.6.6.6.6.6.6.6.6."
};
