/* XPM */
static char *_f41f907730b4b05a15181addc37798dsQuWDJAqXkcW6ZT4[] = {
/* columns rows colors chars-per-pixel */
"64 64 60 1 ",
"  c #4F2913",
". c #522C15",
"X c #552F18",
"o c #573119",
"O c #5B351C",
"+ c #5E381F",
"@ c #5F3A21",
"# c #633D24",
"$ c #5F5918",
"% c #656C17",
"& c #72751B",
"* c #664027",
"= c #684026",
"- c #664128",
"; c #6B452C",
": c #6C4B2E",
"> c #70492F",
", c #6D4C30",
"< c #734D32",
"1 c #784F36",
"2 c #6F5132",
"3 c #755136",
"4 c #795237",
"5 c #765238",
"6 c #7B543A",
"7 c #7F593D",
"8 c #787B21",
"9 c #815B3F",
"0 c #835D41",
"q c #876143",
"w c #8A6346",
"e c #8C6548",
"r c #8F674B",
"t c #8F684B",
"y c #8F694C",
"u c #90694C",
"i c #926B4C",
"p c #926C4E",
"a c #956F4F",
"s c #966F52",
"d c #977053",
"f c #987353",
"g c #997355",
"h c #9A7557",
"j c #98775B",
"k c #9C7758",
"l c #9C7858",
"z c #9D795A",
"x c #9A7A5D",
"c c #9F7B5C",
"v c #9B7C5F",
"b c #9F7C5C",
"n c #A27F5E",
"m c #9C7C60",
"M c #A37F60",
"N c #A47F60",
"B c #7F8226",
"V c #9F8063",
"C c #A48160",
"Z c #A28366",
/* pixels */
"&&&&&&&&&&&&&&&&&&&&&&&&&&&&&&&&&&&&&&&&&&&&&&&&&&&&&&&&&&&&&&&&",
"&&&&&&&&&&&&&&&&&&&&&&&&&&&&&&&&&&&&&&&&&&&&&&&&&&&&&&&&&&&&&&&&",
"&&&&&&&&&&&&&&&&&&&&&&&&&&&&&&&&&&&&&&&&&&&&&&&&&&&&&&&&&&&&&&&&",
"&&&&&&&&&&&&&&&&&&&&&&&&&&&&&&&&&&&&&&&&&&&&&&&&&&&&&&&&&&&&&&&&",
"&&&&&&&&&&&&&&&&&&&&&&&&&&&&&&&&&&&&&&&&&&&&&&&&&&&&&&&&&&&&&&&&",
"&&&&&&&&&&&&&&&&&&&&&&&&&&&&&&&&&&&&&&&&&&&&&&&&&&&&&&&&&&&&&&&&",
"&&&&&&&&&&&&&&&&&&&&&&&&&&&&&&&&&&&&&&&&&&&&&&&&&&&&&&&&&&&&&&&&",
"&&&&&&&&&&&&&&&&&&&&&&&&&&&&&&&&&&&&&&&&B&&&&&&&&&&&&&&&&&&&&&&&",
"&&&&&&&&&&&&&&&&&&&&&&&&&&&&&&&&&&&&&&&&88&&&&&&&&&&&&&&&&&&&&&&",
"&&&&&&&&&&&&&&&&&&&&&&&&&&&&&&&&&&&&BB8&%8&&&&&&&&&&&&&&&&&&&&&&",
"&&&&&&&&&&&&&&&&&&&&&&&&&&&&&&&&&&&&&B88%%&BB8&&&&&&&&&&&&&&&&&&",
"&&&&&&&&&&&&&&&&&&&&&&&&&&&&&&&&&&8B&%88&%88B&&&&&&&&&&&&&&&&&&&",
"&&&&&&&&&&&&&&&&&&&&&&&&&&&&&&&&&&&B88%8&888&&&&&&&&&&&&&&&&&&&&",
"&&&&&&&&&&&&&&&&&&&&&&&&&&&&&&55553%88&%%88%&&&&&&&&&&&&&&&&&&&&",
"&&&&&&&&&&&&&&&&&&&&&&&&&&&&55ZZZZV358&&%%%&&&&&&&&&&&&&&&&&&&&&",
"&&&&&&&&&&&&&&&&&&&&&&&&&&&3ZZ--,<<vv,&88&&&&&&&&&&&&&&&&&&&&&&&",
"&&&&&&&&&&&&&&&&&&&&&&&&&&&<Z*<<666;m:&B%&&&&&&&&&&&&&&&&&&&&&&&",
"&&&&&&&&&&&&&&&&&&&&&&&&&&&3Zx<<666jj:&%&&&&&&&&&&&&&&&&&&&&&&&&",
"&&&&&&&&&&&&&&&&&&&&&&&&&&&@wwjjjjj66.&&&&&&&&&&&&&&&&&&&&&&&&&&",
"&&&&&&&&&&&&&&&&&&&&&&&&&&&&##www00oX&&&&&&&&&&&&&&&&&&&&&&&&&&&",
"&&&&&&&&&&&&&&&&&&&&&&&&&&&&-9:;;--;X&&&&&&&&&&&&&&&&&&&&&&&&&&&",
"&&&&&&&&&&&&&&&&&&&&&&&&&&&&;0tyr03;X&&&&&&&&&&&&&&&&&&&&&&&&&&&",
"&&&&&&&&&&&&&&&&&&&&&&&&&&&&;0yyr03;X&&&&&&&&&&&&&&&&&&&&&&&&&&&",
"&&&&&&&&&&&&&&&&&&&&&&&&&&&&;0yyr05,o&&&&&&&&&&&&&&&&&&&&&&&&&&&",
"&&&&&&&&&&&&&&&&&&&&&&&&&&&;w<tyr06-<o&&&&&&&&&&&&&&&&&&&&&&&&&&",
"&&&&&&&&&&&&&&&&&&&&&&&&&&;wwr333-#061o&&&&&&&&&&&&&&&&&&&&&&&&&",
"&&&&&&&&&&&&&&&&&&&&&&&&&<wrrdddprr094<o&&&&&&&&&&&&&&&&&&&&&&&&",
"&&&&&&&&&&&&&&&&&&&&&&&&&<4rdhhhdirr00#@&&&&&&&&&&&&&&&&&&&&&&&&",
"&&&&&&&&&&&&&&&&&&&&&&&&<ssqqjjjsirr<;6<o$&&&&&&&&&&&&&&&&&&&&&&",
"&&&&&&&&&&&&&&&&&&&&&&&&<sdzzwww966<r00<O$$$&&&&&&&&&&&&&&&&&&&&",
"&&&&&&&&&&&&&&&&&&&&&&&;dskznnnnzhsarr06<o$$$&&&&&&&&&&&&&&&&&&&",
"&&&&&&&&&&&&&&&&&&&&&&&<sdznnnnnnhsswr06<O$$$&&&&&&&&&&&&&&&&&&&",
"&&&&&&&&&&&&&&&&&&&&&&&:dzznnCCnngfarr96<+$$&&&&&&&&&&&&&&&&&&&&",
"&&&&&&&&&&&&&&&&&&&&&&&;dznMMCCCnnfaiww7<+$&&&&&&&&&&&&&&&&&&&&&",
"&&&&&&&&&&&&&&&&&&&&&&#<<znnnNNNnbdapww6##o$&&&&&&&&&&&&&&&&&&&&",
"&&&&&&&&&&&&&&&&&&&&&&#rrwtrCMMnncgai<>>41o$$&&&&&&&&&&&&&&&&&&&",
"&&&&&&&&&&&&&&&&&&&&&&#rrghhwwqqqq644r094<X$$&&&&&&&&&&&&&&&&&&&",
"&&&&&&&&&&&&&&&&&&&&&&#<r9hhzzzzhhhtrr9#4XX$$&&&&&&&&&&&&&&&&&&&",
"&&&&&&&&&&&&&&&&&&&&&&#w<i7hqzzz6htr*9#7+<X$$&&&&&&&&&&&&&&&&&&&",
"&&&&&&&&&&&&&&&&&&&&&&#wwii7p0z4a:r;r*76><o$$&&&&&&&&&&&&&&&&&&&",
"&&&&&&&&&&&&&&&&&&&&&&&+<wiipp9iiw:ww763XX$$$&&&&&&&&&&&&B&&&&&&",
"&&&&&&&&&&&&&&&&&&&&&&&+w<<3trrrrwww7##+2X$$&&&&&&&&BB8&&88&&&&&",
"&&&&&&&&&&&&&&&&&&&&&&&&o666<<<<;;*=*:::.$$$&&&&&&&&&B88&%8&&B&&",
"&&&&&&&&&&&&&&&&&&&&&&&&&o:666666655:::.$$$&&&&&&&&&&%888%&88%&&",
"&&&&&&&&&&&B&&&&&&&&&&&&&&X::665535,::.$$$&&&&&&&&&&B8%88&&88%&&",
"&&&&&&BB8&&88&&&&&&&&&&&&&&XX:,,,:,,. $$&&&&&&&&&&&&%88%8&&%%&&&",
"&&&&&&&B88&%8&&B&&&&&&&&&&&&&...... $$&&&&&&&&&&&&&&&%8%%&&&&&&&",
"&&&&&&&%888%&88%&&&&&&&&&&&&&&&&&&&&&&&&&&&&&&&&&&&&&&&&&&&&&&&&",
"&&&&&&B8%88&&88%&&&&&&&&&&&&&&&&&&&&&&&&&&&&&&&&&&&&&&&&&&&&&&&&",
"&&&&&&%88%8&&%%&&&&&&&&&&&&&&&&&&&&&&&&&&&&&&&&&&&&&&&&&&&&&&&&&",
"&&&&&&&%8%%&&&&&&&&&&&&&&&&&&&&&&&&&&&&&&&&&&&&&&&&&&&&&&&&&&&&&",
"&&&&&&&&&&&&&&&&&&&&&&&&&&&&&&&&&&&&&&&&&&&&&&&&&&&&&&&&&&&&&&&&",
"&&&&&&&&&&&&&&&&&&&&&&&&&&&&&&&&&&&&&&&&&&&&&&&&&&&&&&&&&&&&&&&&",
"&&&&&&&&&&&&&&&&&&&&&&&&&&&&&&&&&&&&&&&&&&&&&&&&&&&&&&&&&&&&&&&&",
"&&&&&&&&&&&&&&&&&&&&&&&&&&&&&&&&&&&&&&&&&&&&&&&&&&&&&&&&&&&&&&&&",
"&&&&&&&&&&&&&&&&&&&&&&&&&&&&&&&&&&&&&&&&&&&&&&&&&&&&&&&&&&&&&&&&",
"&&&&&&&&&&&&&&&&&&&&&&&&&&&&&&&&&&&&&&&&&&&&&&&&&&&&&&&&&&&&&&&&",
"&&&&&&&&&&&&&&&&&&&&&&&&&&&&&&&&&&&&&BB&&&&&&&&&&&&&&&&&&&&&&&&&",
"&&&&&&&&&&&&&&&&&&&&&&&&&&&&&&&&&&&&&&B88&&&BB&&&&&&&&&&&&&&&&&&",
"&&&&&&&&&&&&&&&&&&&&&&&&&&&&&&&&&&&&&&%88&&8B&&&&&&&&&&&&&&&&&&&",
"&&&&&&&&&&&&&&&&&&&&&&&&&&&&&&&&&&&&&&&%%&888&&&&&&&&&&&&&&&&&&&",
"&&&&&&&&&&&&&&&&&&&&&&&&&&&&&&&&&&&&&&&&&&88%&&&&&&&&&&&&&&&&&&&",
"&&&&&&&&&&&&&&&&&&&&&&&&&&&&&&&&&&&&&&&&&&%%&&&&&&&&&&&&&&&&&&&&",
"&&&&&&&&&&&&&&&&&&&&&&&&&&&&&&&&&&&&&&&&&&&&&&&&&&&&&&&&&&&&&&&&"
};
