/* XPM */
static char *exit1712583822[] = {
/* columns rows colors chars-per-pixel */
"64 64 15 1 ",
"  c #533112",
". c #633E18",
"X c #6B441B",
"o c #734B1F",
"O c #7B5122",
"+ c #A27D3C",
"@ c #AB985E",
"# c #9B9662",
"$ c #BAAA6C",
"% c #AEAB74",
"& c #CABB7B",
"* c #C4E053",
"= c #C2C187",
"- c #CBCA8F",
"; c #D1C281",
/* pixels */
"****************************************************************",
"****************************************************************",
"****************************************************************",
"****************************************************************",
"****************************************************************",
"****************************************************************",
"****************************************************************",
"****************************************************************",
"****************************************************************",
"****************************************************************",
"****************************************************************",
"****************************************************************",
"****************************************************************",
"****************************************************************",
"******************************O*********************************",
"******************************OO*****XXX************************",
"*****************************OOOo***XXXX************************",
"*************************...*OOOo**XX.XX************************",
"*************************....oOOOoXX.XXX************************",
"*************************....oOOOo..XXX*************************",
"**************************. .oOOOo..XXX*************************",
"**************************.. oOOOo.XXX**************************",
"***************************X ooOOooXXX**==**********************",
"************************=--= oOoOooXX-=---==********************",
"**********************==----OooOOooX++---====*******************",
"*********************====-==+ oOOO+++.======%*******************",
"*********************%=======+++++o+O. ===%%*=-===**************",
"***************=---&&*$$==%%+++  O+O .  %%#*===--==*************",
"**************%=-;;&&&@@$$%  .o+++oo ..  #*%$&&&&==%************",
"*************%=;;&&&&$****   .ooOOoo  .X  *@$$&&&&$#************",
"************%%$&&&&&$****   X.oooOoo. ..   *@$$$$$@*************",
"************##$$$$@$****    X.oooOOo....    O@@@@@**&&-=********",
"*************@@@@@****O     X.ooooOoo...X    ******&&;--=*******",
"*********************O      X..oooOoo....X    ****$$&&;-=*******",
"************&;;&****OO     XX..oooOoo..X..     ***$$$&&===******",
"***********=;;&&$***++    +XX..ooooOoO.X..X    O**@$$$&&%%#*****",
"**********==;;&&$@***OO  +XX..OooooOoOO.XX.X   ****@$$$$%##*****",
"*********==-&&&$$@**+++++XXX..+ooooOo++..XXXOOOO****@@@@##******",
"********%%==&&$$@***O+O+OXXX..+ooooOoOO..XXXX+++****************",
"********#%%==$$@******+OXXXX.++ooooOoOOO..XXXX+*****&;;;=*******",
"*********##%%$@****OOO+XXXX.XO+ooooOoOOO...XXXO****&&;;-==%*****",
"**********####*******OOXXX..O+OooooooOO+O...XXXO**$&&&&==%%#****",
"*******************OOOXXXX.*+++oooooo+++*+....****@$$&===%%#****",
"**************=;;&&***XXX..++++ooooooOOO++*.XO*****@$$%%%##*****",
"*************==--;;;***X..+OO+Ooooooo+OOO+OO*O******@#####******",
"************%==---=&$***X*O**+Ooooooo*+O*OO***&&;&**************",
"************#%%=-==%%*********O*oooooOO+*****&&;;====***********",
"*************#%#%=%#*****==******ooo***O****==----====**********",
"**************#####****===-===**************%=---===%%**********",
"***************###****===----%%***=======***#====%%%#***********",
"*********************%%=====-%#**==---==%%**##%%%%##************",
"*********************#%%%==%##**%==-===%%#***######*************",
"**********************##%%###**#%%%%%%%%#***********************",
"***********************####****##%%%%##*************************",
"********************************######**************************",
"****************************************************************",
"****************************************************************",
"****************************************************************",
"****************************************************************",
"****************************************************************",
"****************************************************************",
"****************************************************************",
"****************************************************************",
"****************************************************************"
};
