/* XPM */
static char *ec690657d8e3448bbdcd250a1f3649abhwU4R2DQQxHO7OVX[] = {
/* columns rows colors chars-per-pixel */
"64 64 123 2 ",
"   c #462313",
".  c #4D2712",
"X  c #4E2812",
"o  c #4D2B19",
"O  c #522B14",
"+  c #522E1A",
"@  c #5A3117",
"#  c #55321C",
"$  c #5A351D",
"%  c #5E391E",
"&  c #603A1F",
"*  c #553722",
"=  c #593623",
"-  c #573924",
";  c #5B3A25",
":  c #5C3E29",
">  c #623D22",
",  c #555216",
"<  c #5F5818",
"1  c #615A1B",
"2  c #656C17",
"3  c #72751B",
"4  c #5D412B",
"5  c #5A4535",
"6  c #5F4A3B",
"7  c #644226",
"8  c #62432D",
"9  c #6A462A",
"0  c #67482B",
"q  c #6A4A2D",
"w  c #624730",
"e  c #6C4D32",
"r  c #644E3C",
"t  c #6A4D39",
"y  c #704E31",
"u  c #6E5133",
"i  c #66523F",
"p  c #6C553F",
"a  c #715537",
"s  c #765837",
"d  c #735738",
"f  c #75593A",
"g  c #795E3D",
"h  c #686120",
"j  c #787B21",
"k  c #7A603F",
"l  c #665141",
"z  c #6A5542",
"x  c #6F5943",
"c  c #6D5B4B",
"v  c #725542",
"b  c #735A45",
"n  c #7A5F40",
"m  c #715E48",
"M  c #7A5D4B",
"N  c #7C6141",
"B  c #74614B",
"V  c #7C614D",
"C  c #756451",
"Z  c #7B6551",
"A  c #7B6A55",
"S  c #7F6E59",
"D  c #7F705B",
"F  c #816645",
"G  c #856A4A",
"H  c #876F4F",
"J  c #886C4C",
"K  c #8A714F",
"L  c #846552",
"P  c #876E50",
"I  c #886F51",
"U  c #896F5C",
"Y  c #8B7353",
"T  c #8E7653",
"R  c #8A7254",
"E  c #8B7455",
"W  c #8C7455",
"Q  c #81715B",
"!  c #81715C",
"~  c #907756",
"^  c #907857",
"/  c #917958",
"(  c #937B5C",
")  c #947C5C",
"_  c #857561",
"`  c #867661",
"'  c #847663",
"]  c #8B7565",
"[  c #867966",
"{  c #8C7E67",
"}  c #8D7F69",
"|  c #977F61",
" . c #7F8226",
".. c #8E816C",
"X. c #998263",
"o. c #9A8364",
"O. c #9B8566",
"+. c #90836F",
"@. c #928672",
"#. c #998C77",
"$. c #978B78",
"%. c #998E7C",
"&. c #9B907E",
"*. c #46809E",
"=. c #48819F",
"-. c #548BA8",
";. c #70A1B4",
":. c #9D9282",
">. c #9F9688",
",. c #A09686",
"<. c #A09689",
"1. c #A29A8C",
"2. c #A79F91",
"3. c #A7A091",
"4. c #A9A190",
"5. c #ABA396",
"6. c #ACA496",
"7. c #ACA597",
"8. c #AFA69A",
"9. c #B0A79B",
"0. c #B0A89B",
"q. c #B0A89C",
"w. c #B7B0A5",
/* pixels */
"3 3 3 3 3 3 3 3 3 3 3 3 3 3 3 3 3 3 3 3 3 3 3 3 3 3 3 3 3 3 3 3 3 3 3 3 3 3 3 3 3 3 3 3 3 3 3 3 3 3 3 3 3 3 3 3 3 3 3 3 3 3 3 3 ",
"3 3 3 3 3 3 3 3 3 3 3 3 3 3 3 3 3 3 3 3 3 3 3 3 3 3 3 3 3 3 3 3 3 3 3 3 3 3 3 3 3 3 3 3 3 3 3 3 3 3 3 3 3 3 3 3 3 3 3 3 3 3 3 3 ",
"3 3 3 3 3 3 3 3 3 3 3 3 3 3 3 3 3 3 3 3 3 3 3 3 3 3 3 3 3 3 3 3 3 3 3 3 3 3 3 3 3 3 3 3 3 3 3 3 3 3 3 3 3 3 3 3 3 3 3 3 3 3 3 3 ",
"3 3 3 3 3 3 3 3 3 3 3 3 3 3 3 3 3 3 3 3 3 3 3 3 3 3 3 3 3 3 3 3 3 3 3 3 3 3 3 3 3 3 3 3 3 3 3 3 3 3 3 3 3 3 3 3 3 3 3 3 3 3 3 3 ",
"3 3 3 3 3 3 3 3 3 3 3 3 3 3 3 3 3 3 3 3 3 3 3 3 3 3 3 3 3 3 3 3 3 3 3 3 3 3 3 3 3 3 3 3 3 3 3 3 3 3 3 3 3 3 3 3 3 3 3 3 3 3 3 3 ",
"3 3 3 3 3 3 3 3 3 3 3 3 3 3 3 3 3 3 3 3 3 3 3 3 3 3 q q q q e > e y e e e 3 3 3 3 3 3 3 3 3 3 3 3 3 3 3 3 3 3 3 3 3 3 3 3 3 3 3 ",
"3 3 3 3 3 3 3 3 3 3 3 3 3 3 3 3 3 3 3 3 3 3 9 q 9 > K K K J J @ J J G G G $ 7 7 7 3 3 3 3 3 3 3 3 3 3 3 3 3 3 3 3 3 3 3 3 3 3 3 ",
"3 3 3 3 3 3 3 3 3 3 3 3 3 3 3 3 3 3 3 3 q 9 ~ ^ / & K K K J G @ J G G G G $ g g g > 7 3 3 3 3 3 3 3 3 3 3 3 3 3 3 3 3 3 3 3 3 3 ",
"3 3 3 3 3 3 3 3 3 3 3 3 3 3 3 3 3 3 > & Y T T ~ / & X.o.X.) ) % ) ) ) ) W $ g g g g f $ ; 3 3 3 3 3 3 3 3 3 3 3 3 3 3 3 3 3 3 3 ",
"3 3 3 3 3 3 3 3 3 3 3 3 3 3 3 3 3 9 G % J O.O.O.O.& f f f f F % g g g g N $ W W W W s > a ; 3 3 3 3 3 3 3 3 3 3 3 3 3 3 3 3 3 3 ",
"3 3 3 3 3 3 3 3 3 3 3 3 3 3 3 3 q J H % | f J N N > N N f f N & g g N N N 7 9 9 F n W > a u ; 3 3 3 3 3 3 3 3 3 3 3 3 3 3 3 3 3 ",
"3 3 3 3 3 3 3 3 3 3 3 3 3 3 3 9 G J ) > f f H N N > N N N f N 7 g g N N N 9 9 G N N k 7 I a d $ 3 3 3 3 3 3 3 3 3 3 3 3 3 3 3 3 ",
"3 3 3 3 3 3 3 3 3 3 3 3 3 3 3 9 G ( g > s H F N N 7 N N N N N 7 g N N N k q G N N N N 9 N H a $ 3 3 3 3 3 3 3 3 3 3 3 3 3 3 3 3 ",
"3 3 3 3 3 3 3 3 3 3 3 3 3 3 7 n R f g > s J t t t t t t t t t t t t t t t t t N N N N q g k H a $ 3 3 3 3 3 3 3 3 3 3 3 3 3 3 3 ",
"3 3 3 3 3 3 3 3 3 3 3 3 3 3 9 E f f g 7 G t 4.4.4.4.4.4.4.4.4.4.4.4.4.4.4.4.4.t N N n q k k k G $ 3 3 3 3 3 3 3 3 3 3 3 3 3 3 3 ",
"3 3 3 3 3 3 3 3 3 3 3 3 3 7 n R f f f q t 8.4.4.4.4.4.4.4.4.4.4.4.4.4.4.4.4.3.8.t N N e k k g P e $ 3 3 3 3 3 3 3 3 3 3 3 3 3 3 ",
"3 3 3 3 3 3 3 3 3 3 3 3 3 7 P f f f f q t 8.4.4.4.4.4.4.4.4.4.4.4.4.4.4.4.4.4.9.t N N u k k g g R @ 3 3 3 3 3 3 3 3 3 3 3 3 3 3 ",
"3 3 3 3 3 3 3 3 3 3 3 3 3 7 H f f f f q t 8.5.4.5.5.5.5.5.5.5.5.5.4.5.5.5.4.4.0.t N N u k g g g R @ 3 3 3 3 3 3 3 3 3 3 3 3 3 3 ",
"3 3 3 3 3 3 3 3 3 3 3 3 3 $ f f f f f q t 8.5.5.5.5.5.5.5.5.5.5.5.5.5.7.7.5.5.0.t N N e k g g g g O 3 3 3 3 3 3 3 3 3 3 3 3 3 3 ",
"3 3 3 3 3 3 3 3 3 3 3 3 3 $ % % % > > > t 8.5.5.5.7.7.7.7.7.7.7.7.5.7.7.7.7.7.q.t > > > ; % % $ $ O 3 3 3 3 3 3 3 3 3 3 3 3 3 3 ",
"3 3 3 3 3 3 3 3 3 3 3 3 3 @ A A ! Q Q ` t 8.7.7.7.7.7.7.8.8.8.8.8.7.7.7.7.7.7.q.t ` S S S S D A A O 3 3 3 3 3 3 3 3 3 3 3 3 3 3 ",
"3 3 3 3 3 3 3 3 3 3 3 3 3 @ b b B B B Z t 8.7.7.7.7.7.7.8.8.8.8.8.8.7.7.7.7.7.q.t C B B B B B x x O 3 3 3 3 3 3 3 3 3 3 3 3 3 3 ",
"3 3 3 3 3 3 3 3 3 3 3 3 3 @ b b B B B Z t 8.7.7.8.8.7.7.8.8.8.8.8.8.8.8.7.7.7.q.t C B B B B B x x O 3 3 3 3 3 3 3 3 3 3 3 3 3 3 ",
"3 3 3 3 3 3 3 3 3 3 3 3 3 @ O O O O O O t q.8.8.8.U 7.7.7.8.8.8.8.8.8.] 8.8.8.q.t O O O O O O O O O 3 3 3 3 3 3 3 3 3 3 3 3 3 3 ",
"3 3 3 3 3 3 3 3 3 3 3 3 3 @ 7 7 7 9 q % t q.8.8.L 1.Z 8.8.8.8.8.8.8.L 1.Z 8.8.q.t q q q q q q 0 0 O 3 3 3 3 3 3 3 3 3 3 3 3 3 3 ",
"3 3 3 3 3 3 3 3 3 3 3 3 3 O d f f f f ; t q.8.M 1.1.1.M 8.8.8.8.8.M 1.1.1.M 8.q.t n n u d f d d d O 3 3 3 3 3 3 3 3 3 3 3 3 3 3 ",
"3 3 3 3 3 3 3 3 3 3 3 3 3 O d d f f f 7 t q.8.M 1.] 1.V 7.8.8.8.8.M 1.] 1.M 8.q.t g g u d d d d d O 3 3 3 3 3 3 3 3 3 3 3 3 3 3 ",
"3 3 3 3 3 3 3 3 3 3 3 3 3 O d d d f f q t q.M 1.] ] ] 1.v q.q.q.z 1.] ] ] 1.v q.t g g u d d d d d O 1 < < 3 3 3 3 3 3 3 3 3 3 3 ",
"3 3 3 3 3 3 3 3 3 3 3 3 3 O d d d d d q 8 2.b >.>.>.>.>.b :.:.:.v <.>.>.>.>.p 3.8 g g u d d d d d O 1 1 < < < 3 3 3 3 3 3 3 3 3 ",
"3 3 3 3 3 3 3 3 3 3 3 3 3 O d d d d d q 8 1.:.:.:.:.:.:.:.:.:.:.:.:.:.:.>.>.>.2.8 w w : 4 4 d d d O 1 < < < < < < 3 3 3 3 3 3 3 ",
"3 3 3 3 3 3 3 3 3 3 3 3 3 O d d d d d q 8 1.:.:.&.&.&.:.:.:.:.:.:.&.:.:.:.:.:.1.8 w w : 4 4 4 d d O 1 1 < < < < < < 3 3 3 3 3 3 ",
"3 3 3 3 3 3 3 3 3 3 3 3 3 O d d d d d q 8 1.%.%.%.%.%.&.%.%.%.&.%.&.&.:.:.:.:.1.8 w w ; 4 4 4 d d O 1 1 < < < < < < < 3 3 3 3 3 ",
"3 3 3 3 3 3 3 3 3 3 3 3 3 O d d d d d q 8 1.%.V M b M M V %.%.%.V M b V V Z &.1.8 w w : 4 4 4 u u O 1 < < < < < < < < 3 3 3 3 3 ",
"3 3 3 3 3 3 3 3 3 3 3 3 3 O d d d d d e 8 >.%.%.w.=.*.w.%.%.%.%.%.w.=.*.w.%.%.1.8 8 w - 4 4 4 u u O 1 1 < < < < < < < < 3 3 3 3 ",
"3 3 3 3 3 3 3 3 3 3 3 3 3 O d d d d d q 8 >.%.%.w.;.-.w.#.#.#.#.#.w.;.-.w.%.%.1.8 8 8 - 4 : : u u O 1 1 < < < < < < < < 3 3 3 3 ",
"3 3 3 3 3 3 3 3 3 3 3 3 3 O d d d d d q 8 >.#.#.#.#.#.#.#.#.#.$.$.$.$.#.#.#.%.1.8 8 8 * : : : u u O < < < < < < < < < < 3 3 3 3 ",
"3 3 3 3 3 3 3 3 3 3 3 3 3 O d d d d d q 8 :.$.$.$.$.$.$.$.$.$.$.$.$.$.$.$.#.#.1.8 w 8 * : : : u u O < < < < < < < < < 3 3 3 3 3 ",
"3 3 3 3 3 3 3 3 3 3 3 3 3 X d d d d d q 8 :.$.$.$.$.$.$.$.$.a $.$.$.$.$.$.$.$.>.8 8 8 * : : : u u X < < < < < < < < < 3 3 3 3 3 ",
"3 3 3 3 3 3 3 3 3 3 3 3 3 X @ @ $ $ $ % 8 :.$.$.$.$.$.$.$.$.e $.$.$.$.$.$.$.$.,.8 + + + o o o @ @ X < < < < < < < < 3 3 3 3 3 3 ",
"3 3 3 3 3 3 3 3 3 3 3 3 3 X Z Z S A A ` 8 :.$.$.$.$.$.$.$.e $.e $.$.$.$.$.$.$.>.8 z l l l l l Z Z X < < < < < < < < 3 3 3 3 3 3 ",
"3 3 3 3 3 3 3 3 3 3 3 3 3 X z z m m m B : &.$.$.$.$.$.$.t $.$.$.t $.$.$.$.$.$.:.8 6 5 5 5 5 5 p p X < < < < < < <  .3 3 3 3 3 3 ",
"3 3 3 3 3 3 3 3 3 3 3 3 3 X z z c m m B : %.$.$.$.$.$.$.$.$.$.$.$.$.$.$.$.$.$.&.8 6 5 5 5 5 5 p p X < < h h 1 < < j j 3 3 3 3 3 ",
"3 3 3 3 3 3 3 3 3 3 3 3 3 X X X X O O O : #.$.$.$.$.@.@.$.$.$.$.@.@.$.$.$.$.$.&.8             X X X < < < h 1 1 3 2 j 3 3  .3 3 ",
"3 3 3 3 3 3 3 3 3 3 3 3 3 X > > 7 7 9 $ : #.$.$.$.@.@.@.@.@.@.@.@.@.@.$.$.$.$.&.8 * * # * # # > > . < < < , 1 1 j 2 3 j j 2 3 3 ",
"3 3 3 3 3 3 3 3 3 3 3  .3 X u u u u u $ : #.$.$.@.@.@.@.@.@.@.@.@.@.@.@.$.$.@.&.8 8 8 # : : : e e . < < h 1 , j j 3 3 j j 2 3 3 ",
"3 3 3 3 3 3  . .j 3 3 j j X u u u u u ; : #.@.@.@.@.@.@.@.@.@.@.@.@.@.@.@.@.@.%.8 8 8 # : : e e e . < < , 1 1 2 j 3 3 2 2 3 3 3 ",
"3 3 3 3 3 3 3  .j j 3 2 j X u u u u u ; : #.@.@.@.@.@.@.@.@.@.@.@.@.@.@.@.@.@.#.4 8 8 # : : e e e . < < < , j 2 2 3 3 3 3 3 3 3 ",
"3 3 3 3 3 3 3 2 j j j 2 3 X + $ $ ; ; ; : #.@.@.@.@.@.@.@.@.@.@.@.@.@.@.@.@.@.#.4 o o o o @ + . . . < < < < 3 3 3 3 3 3 3 3 3 3 ",
"3 3 3 3 3 3  .j 2 j j 3 3 X B B B B C C : #.+.+.@.@.@.@.@.@.@.@.@.@.@.@.@.@.@.#.8 r 6 6 6 C C C C . < < < 3 3 3 3 3 3 3 3 3 3 3 ",
"3 3 3 3 3 3 2 j j 2 j 3 3 X ` [ [ [ [ [ : $...+.+.+.+.+.+.+.+.+.+.@.@.@.+.+.+.#.8 c c c ` ` ` ` ` . < < < 3 3 3 3 3 3 3 3 3 3 3 ",
"3 3 3 3 3 3 3 2 j 2 2 3 3 X i i i i l l : $.........................+.+.+.+.+.#.8 5 5 5 r i i r r . < < 3 3 3 3 3 3 3 3 3 3 3 3 ",
"3 3 3 3 3 3 3 3 3 3 3 3 3 X i i i i i i ; $...................................$.4 5 5 z r r r r r . < < 3 3 3 3 3 3 3 3 3 3 3 3 ",
"3 3 3 3 3 3 3 3 3 3 3 3 3 X r r r i z z ; $...................................$.; 5 5 z z z r r r . < 3 3 3 3 3 3 3 3 3 3 3 3 3 ",
"3 3 3 3 3 3 3 3 3 3 3 3 3 X r r r z z z ; $...................................@.; 5 z z z z z r r . < 3 3 3 3 3 3 3 3 3 3 3 3 3 ",
"3 3 3 3 3 3 3 3 3 3 3 3 3 . . X X X X X ; $.} } } ......................} } } @.;   . . . . . . . . 3 3 3 3 3 3 3 3 3 3 3 3 3 3 ",
"3 3 3 3 3 3 3 3 3 3 3 3 3 3 3 3 3 3 3 3 # @.} } } } } } } } } } } } } } } } { @.* 3 3 3 3 3 3 3 3 3 3 3 3 3 3 3 3 3 3 3 3 3 3 3 ",
"3 3 3 3 3 3 3 3 3 3 3 3 3 3 3 3 3 3 3 3 3 = ; ; ; ; ; ; ; ; ; ; ; ; ; ; ; ; ; = 3 3 3 3 3 3 3 3 3 3 3 3 3 3 3 3 3 3 3 3 3 3 3 3 ",
"3 3 3 3 3 3 3 3 3 3 3 3 3 3 3 3 3 3 3 3 3 3 3 3 3 3 3 3 3 3 3 3 3 3 3 3 3  . .3 3 3 3 3 3 3 3 3 3 3 3 3 3 3 3 3 3 3 3 3 3 3 3 3 ",
"3 3 3 3 3 3 3 3 3 3 3 3 3 3 3 3 3 3 3 3 3 3 3 3 3 3 3 3 3 3 3 3 3 3 3 3 3 3  .j j 3 3 3  . .3 3 3 3 3 3 3 3 3 3 3 3 3 3 3 3 3 3 ",
"3 3 3 3 3 3 3 3 3 3 3 3 3 3 3 3 3 3 3 3 3 3 3 3 3 3 3 3 3 3 3 3 3 3 3 3 3 3 2 j j 3 3 j  .3 3 3 3 3 3 3 3 3 3 3 3 3 3 3 3 3 3 3 ",
"3 3 3 3 3 3 3 3 3 3 3 3 3 3 3 3 3 3 3 3 3 3 3 3 3 3 3 3 3 3 3 3 3 3 3 3 3 3 3 2 2 3 j j j 3 3 3 3 3 3 3 3 3 3 3 3 3 3 3 3 3 3 3 ",
"3 3 3 3 3 3 3 3 3 3 3 3 3 3 3 3 3 3 3 3 3 3 3 3 3 3 3 3 3 3 3 3 3 3 3 3 3 3 3 3 3 3 j j 2 3 3 3 3 3 3 3 3 3 3 3 3 3 3 3 3 3 3 3 ",
"3 3 3 3 3 3 3 3 3 3 3 3 3 3 3 3 3 3 3 3 3 3 3 3 3 3 3 3 3 3 3 3 3 3 3 3 3 3 3 3 3 3 2 2 3 3 3 3 3 3 3 3 3 3 3 3 3 3 3 3 3 3 3 3 ",
"3 3 3 3 3 3 3 3 3 3 3 3 3 3 3 3 3 3 3 3 3 3 3 3 3 3 3 3 3 3 3 3 3 3 3 3 3 3 3 3 3 3 3 3 3 3 3 3 3 3 3 3 3 3 3 3 3 3 3 3 3 3 3 3 "
};
