/* XPM */
static char *exit_no1712583822[] = {
/* columns rows colors chars-per-pixel */
"64 64 155 2 ",
"   c #060608",
".  c #19110A",
"X  c #2C1B0D",
"o  c #0D2D1E",
"O  c #342210",
"+  c #382511",
"@  c #353C1B",
"#  c #15213C",
"$  c #302A26",
"%  c #3F362E",
"&  c #402B15",
"*  c #4C3014",
"=  c #533112",
"-  c #633E18",
";  c #77383D",
":  c #104023",
">  c #155434",
",  c #155D30",
"<  c #176739",
"1  c #19703B",
"2  c #1A7A3E",
"3  c #6B4408",
"4  c #6B441B",
"5  c #4A4E2A",
"6  c #544122",
"7  c #484232",
"8  c #504E35",
"9  c #574C38",
"0  c #5A583E",
"q  c #715023",
"w  c #7B5122",
"e  c #775C3E",
"r  c #6E6C2A",
"t  c #766426",
"y  c #65732D",
"u  c #7C7325",
"i  c #6E6836",
"p  c #747A34",
"a  c #143464",
"s  c #243D6F",
"d  c #14444C",
"f  c #1C4871",
"g  c #155273",
"h  c #205469",
"j  c #5A4E44",
"k  c #465759",
"l  c #646347",
"z  c #686041",
"x  c #796755",
"c  c #747B58",
"v  c #930F18",
"b  c #A31721",
"n  c #B4202A",
"m  c #B0710B",
"M  c #826D24",
"N  c #9C6B24",
"B  c #BD692E",
"V  c #A27D3C",
"C  c #C07A09",
"Z  c #CD7137",
"A  c #CB7B31",
"S  c #827C64",
"D  c #CE454E",
"F  c #E86A73",
"G  c #828124",
"H  c #82813B",
"J  c #AF9435",
"K  c #D18308",
"L  c #DB8B0D",
"P  c #D38A17",
"I  c #E59311",
"U  c #F9A31B",
"Y  c #C68625",
"T  c #C9852C",
"R  c #D59126",
"E  c #D98E35",
"W  c #DD9B3E",
"Q  c #998E5E",
"!  c #AB985E",
"~  c #BB9A56",
"^  c #94A940",
"/  c #9B9662",
"(  c #B5986C",
")  c #BAAA6C",
"_  c #AEAB74",
"`  c #BBA87F",
"'  c #CC9240",
"]  c #E6A047",
"[  c #F3B359",
"{  c #CABB7B",
"}  c #E9B375",
"|  c #F3B371",
" . c #E7C344",
".. c #EDD143",
"X. c #FFD541",
"o. c #F3DF42",
"O. c #C4E053",
"+. c #F9EE41",
"@. c #FFFC40",
"#. c #FFFC4C",
"$. c #FFFC57",
"%. c #FFFD6F",
"&. c #111A86",
"*. c #1C3BA5",
"=. c #1E4894",
"-. c #2B549D",
";. c #2B6485",
":. c #305EB5",
">. c #1C69A1",
",. c #2869B7",
"<. c #2173B9",
"1. c #5D688B",
"2. c #577384",
"3. c #285CC4",
"4. c #3568CD",
"5. c #2D73CF",
"6. c #267DD1",
"7. c #3A7FD9",
"8. c #4274D7",
"9. c #5E88BB",
"0. c #258ED7",
"q. c #3389DA",
"w. c #2B94DC",
"e. c #249FDE",
"r. c #5785CA",
"t. c #20D6C7",
"y. c #828283",
"u. c #88879C",
"i. c #8786A3",
"p. c #8F8DA1",
"a. c #9593A6",
"s. c #8D97B2",
"d. c #86A9A9",
"f. c #C0B892",
"g. c #FEBDA1",
"h. c #C2C187",
"j. c #CBCA8F",
"k. c #D1C281",
"l. c #EEC388",
"z. c #F3D39A",
"x. c #C6DEBA",
"c. c #FED8B0",
"v. c #F9E3AD",
"b. c #FEE5B8",
"n. c #888CC2",
"m. c #93A7C2",
"M. c #A0B9EB",
"N. c #91C9CF",
"B. c #8FE4C3",
"V. c #91CFEE",
"C. c #C6ECC2",
"Z. c #C8E1D7",
"A. c #FEF3C0",
"S. c #FEF9DF",
"D. c white",
/* pixels */
"O.O.O.O.O.O.O.O.O.O.O.O.O.O.O.O.O.O.O.O.O.O.O.O.O.O.O.O.O.O.O.O.O.O.O.O.O.O.O.O.O.O.O.O.O.O.O.O.O.O.O.O.O.O.O.O.O.O.O.O.O.O.O.O.",
"O.O.O.O.O.O.O.O.O.O.O.O.O.O.O.O.O.O.O.O.O.O.O.O.O.O.O.O.O.O.O.O.O.O.O.O.O.O.O.O.O.O.O.O.O.O.O.O.O.O.O.O.O.O.O.O.O.O.O.O.O.O.O.O.",
"O.O.O.O.O.O.O.O.O.O.O.O.O.O.O.O.O.O.O.O.O.O.O.O.O.O.O.O.O.O.O.O.O.O.O.O.O.O.O.O.O.O.O.O.O.O.O.O.O.O.O.O.O.O.O.O.O.O.O.O.O.O.O.O.",
"O.O.O.O.O.O.O.O.O.O.O.O.O.O.O.O.O.O.O.O.O.O.O.O.O.O.O.O.O.O.O.O.O.O.O.O.O.O.O.O.O.O.O.O.O.O.O.O.O.O.O.O.O.O.O.O.O.O.O.O.O.O.O.O.",
"O.O.O.O.O.O.O.O.O.O.O.O.O.O.O.O.O.O.O.O.O.O.O.O.O.O.O.O.O.O.O.O.O.O.O.O.O.O.O.O.O.O.O.O.O.O.O.O.O.O.O.O.O.O.O.O.O.O.O.O.O.O.O.O.",
"O.O.O.O.O.O.O.O.O.O.O.O.O.O.O.O.O.O.O.O.O.O.O.O.O.O.O.O.O.O.O.O.O.O.O.O.O.O.O.O.O.O.O.O.O.O.O.O.O.O.O.O.O.O.O.O.O.O.O.O.O.O.O.O.",
"O.O.O.O.O.O.O.O.O.O.O.O.O.O.O.O.O.O.O.O.O.O.O.O.O.O.O.O.O.O.O.O.O.O.O.O.O.O.O.O.O.O.O.O.O.O.O.O.O.O.O.O.O.O.O.O.O.O.O.O.O.O.O.O.",
"O.O.O.O.O.O.O.O.O.O.O.O.O.O.O.O.O.O.O.O.O.O.O.O.O.O.O.O.O.O.O.O.O.O.O.O.O.O.O.O.O.O.O.O.O.O.O.O.O.O.O.O.O.O.O.O.O.O.O.O.O.O.O.O.",
"O.O.O.O.O.O.O.O.O.O.O.O.O.O.O.O.O.O.O.O.O.O.O.O.O.O.O.O.y               O.O.O.O.O.O.O.O.O.O.O.O.O.O.O.O.O.O.O.O.O.O.O.O.O.O.O.O.",
"O.O.O.O.O.O.O.O.O.O.O.O.O.O.O.O.O.O.O.O.O.O.O.O.O.^ y y r t t u G H H H y y y O.O.O.O.O.O.O.O.O.O.O.O.O.O.O.O.O.O.O.O.O.O.O.O.O.",
"O.O.O.O.O.O.O.O.O.O.O.O.O.O.O.O.O.O.O.O.O.O.O.O.O.y     t  . .o.@.%.%.%.      O.O.O.O.O.O.O.O.O.O.O.O.O.O.O.O.O.O.O.O.O.O.O.O.O.",
"O.O.O.O.O.O.O.O.O.O.O.O.O.O.O.O.O.O.O.O.O.O.O.O.  t  . . . .@.@.@.@.@.@.%.%.%.  y O.O.O.O.O.O.O.O.O.O.O.O.O.O.O.O.O.O.O.O.O.O.O.",
"O.O.O.O.O.O.O.O.O.O.O.O.O.O.O.O.O.O.O.O.O.O.^ y t J  . ...o.@.@.@.@.@.@.$.$.$.H p y O.O.O.O.O.O.O.O.O.O.O.O.O.O.O.O.O.O.O.O.O.O.",
"O.O.O.O.O.O.O.O.O.O.O.O.O.O.O.O.O.O.O.O.O.O.y    . . . .o.@.@.@.@.@.@.@.@.@.@.%.H   O.O.O.O.O.O.O.O.O.O.O.O.O.O.O.O.O.O.O.O.O.O.",
"O.O.O.O.O.O.O.O.O.O.O.O.O.O.O.O.O.O.O.O.O.  t  . . . . . . .@.@.@.@.@.@.@.@.@.@.$.%.  y O.O.O.O.O.O.O.O.O.O.O.O.O.O.O.O.O.O.O.O.",
"O.O.O.O.O.O.O.O.O.O.O.O.O.O.O.O.O.O.O.^ y t J  . . . . . . .o.+.@.o.+.@.@.#.$.@.$.%.H p y O.O.O.O.O.O.O.O.O.O.O.O.O.O.O.O.O.O.O.",
"O.O.O.O.O.O.O.O.O.O.O.O.O.O.O.O.O.O.O.y    . . . . . . . . . .o.@. .o.@.@.$.%.@.$.%.%.H   O.O.O.O.O.O.O.O.O.O.O.O.O.O.O.O.O.O.O.",
"O.O.O.O.O.O.O.O.O.O.O.O.O.O.O.            v v v v v v v v v v b n v b n n n n n D F F ;           y O.O.O.O.O.O.O.O.O.O.O.O.O.O.",
"O.O.O.O.O.O.O.O.O.O.O.O.O.^ y t t t t t t B B B B B B B B B T A Z B A E E E E E ] [ | ~ H H H H H p y O.O.O.O.O.O.O.O.O.O.O.O.O.",
"O.O.O.O.O.O.O.O.O.O.O.O.O.y    . . . . . . . . . . . . . . .@.o. . .o.@.@.@.@.@.@.@.%.%.%.%.%.%.%.H   O.O.O.O.O.O.O.O.O.O.O.O.O.",
"O.O.O.O.O.O.O.O.O.O.O.O.O.O.O.            U I K m m m K W } } z.A.} } } K C m K P R X.M           y O.O.O.O.O.O.O.O.O.O.O.O.O.O.",
"O.O.O.O.O.O.O.O.O.O.O.O.O.O.O.y y y y @   I L K C Y ' 3 q e z.v.A.z.( e 3 N ' K P R X.M   y y y y ^ O.O.O.O.O.O.O.O.O.O.O.O.O.O.",
"O.O.O.O.O.O.O.O.O.O.O.O.O.O.O.O.O.O.O.y   K K K K W }       A.A.A.A.S     e } K P R X.M   O.O.O.O.O.O.O.O.O.O.O.O.O.O.O.O.O.O.O.",
"O.O.O.O.O.O.O.O.O.O.O.O.O.O.O.O.O.O.O.y   A.z.} } z.A.D.n.&.A.A.A.A.S.D.&.i.A.} } } A.S   O.O.O.O.O.O.O.O.O.O.O.O.O.O.O.O.O.O.O.",
"O.O.O.O.O.O.O.O.O.O.O.O.O.O.O.O.O.O.O.y   A.z.} z.v.A.V.r.*.A.A.A.A.Z.V.*.s.A.z.l.} A.S   O.O.O.O.O.O.O.O.O.O.O.O.O.O.O.O.O.O.O.",
"O.O.O.O.O.O.O.O.O.O.O.O.O.O.O.O.O.O.O.y   A.z.} A.A.A.e.6.3.A.A.A.A.N.e.3.m.A.A.z.} A.S   O.O.O.O.O.O.O.O.O.O.O.O.O.O.O.O.O.O.O.",
"O.O.O.O.O.O.O.O.O.O.O.O.O.O.O.O.O.O.O.y   } z.A.A.A.A.t.t.t.A.A.A.A.B.t.t.B.A.A.A.A.} e   h.j.h.h.h.O.O.O.O.O.O.O.O.O.O.O.O.O.O.",
"O.O.O.O.O.O.O.O.O.O.O.O.O.O.O.h.j.j.j.Q z e ` A.c.c.c.B.B.B.A.A.A.A.C.B.B.x.c.c.b.A.e i l h.h.j.j.h.h.O.O.O.O.O.O.O.O.O.O.O.O.O.",
"O.O.O.O.O.O.O.O.O.O.O.O.O.O._ h.j.k.k.{ {   S A.g.g.g.A.A.A.A.A.A.A.A.A.A.c.g.g.c.A.  0 ) { { { { h.h._ O.O.O.O.O.O.O.O.O.O.O.O.",
"O.O.O.O.O.O.O.O.O.O.O.O.O._ h.k.k.{ { { { ) y   A.A.A.A.A.A.A.A.A.A.A.A.A.A.A.A.S   O.! ) ) { { { { ) / O.O.O.O.O.O.O.O.O.O.O.O.",
"O.O.O.O.O.O.O.O.O.O.O.O._ _ ) { { { { { ) O.^ y S f.A.A.A.A.A.A.A.A.A.A.A.A.A.S 9 X = O.! ) ) ) ) ) ! O.O.O.O.O.O.O.O.O.O.O.O.O.",
"O.O.O.O.O.O.O.O.O.O.O.O./ / ) ) ) ) ! ) O.O.O.O.  S A.A.A.A.A.A.A.A.A.A.A.A.A.  X = = = w ! ! ! ! ! O.O.{ { j.h.O.O.O.O.O.O.O.O.",
"O.O.O.O.O.O.O.O.O.O.O.O.O.! ! ! ! ! O.O.O.O.w = = X         } } } } e         - 4 = = = = O.O.O.O.O.O.{ { k.j.j.h.O.O.O.O.O.O.O.",
"O.O.O.O.O.O.O.O.O.O.O.O.O.O.O.O.O.O.O.O.O.w = = X .   s s s a.p.u.a.1.s s #   O * 4 = = = = O.O.O.O.) ) { { k.j.h.O.O.O.O.O.O.O.",
"O.O.O.O.O.O.O.O.O.O.O.O.{ k.k.{ O.O.O.O.w w = =       8.8.8.8.4.3.8.8.8.8.s     O - = = = = = O.O.O.) ) ) { { h.h.h.O.O.O.O.O.O.",
"O.O.O.O.O.O.O.O.O.O.O.h.k.k.{ { ) O.O.O.V V X   8.4.3.e.e.e.8.-.a e.e.e.e.6.3.8.s   4 = = = = w O.O.! ) ) ) { { _ _ / O.O.O.O.O.",
"O.O.O.O.O.O.O.O.O.O.h.h.k.k.{ { ) ! O.O.O.w &   8.4.3.e.e.e.8.:.=.e.e.e.e.6.3.8.s   - 4 = = = O.O.O.O.! ) ) ) ) _ / / O.O.O.O.O.",
"O.O.O.O.O.O.O.O.O.h.h.j.{ { { ) ) ! O.O.V V 6   8.4.3.e.e.e.8.4.3.e.e.e.e.6.3.8.s   4 4 w w w w O.O.O.O.! ! ! ! / / O.O.O.O.O.O.",
"O.O.O.O.O.O.O.O._ _ h.h.{ { ) ) ! O.O.O.w V &   8.4.3.e.e.e.8.-.a e.e.e.e.6.3.8.s   4 4 4 V V V O.O.O.O.O.O.O.O.O.O.O.O.O.O.O.O.",
"O.O.O.O.O.O.O.O./ _ _ h.h.) ) ! O.O.O.O.O.O.6   q.5.3.q.w.e.q.,.=.e.e.e.e.6.3.q.f   4 4 4 4 V O.O.O.O.O.{ k.k.k.h.O.O.O.O.O.O.O.",
"O.O.O.O.O.O.O.O.O./ / _ _ ) ! O.O.O.O.w w w 6   e.6.3.8.q.e.e.6.3.e.e.e.e.6.3.e.g   - 4 4 4 w O.O.O.O.{ { k.k.j.h.h._ O.O.O.O.O.",
"O.O.O.O.O.O.O.O.O.O./ / / / O.O.O.O.O.O.O.w &   e.6.3.8.q.e.e.>.a 8.q.e.e.6.3.e.g   - - 4 4 4 w O.O.) { { { { h.h._ _ / O.O.O.O.",
"O.O.O.O.O.O.O.O.O.O.O.O.O.O.O.O.O.O.O.w w w +   d.9.4.8.7.q.e.<.=.8.7.q.e.0.6.d.k   - - - - O.O.O.O.! ) ) { h.h.h._ _ / O.O.O.O.",
"O.O.O.O.O.O.O.O.O.O.O.O.O.O.h.k.k.{ { O.O.O.+   } a.8.8.8.8.e.6.3.8.8.8.e.e.e.} e   O.- 4 w O.O.O.O.O.! ) ) _ _ _ / / O.O.O.O.O.",
"O.O.O.O.O.O.O.O.O.O.O.O.O.h.h.j.j.k.k.k.O.O.y   D.M.8.8.8.8.8.-.a 8.8.8.8.8.8.D.y.  w w O.w O.O.O.O.O.O.! / / / / / O.O.O.O.O.O.",
"O.O.O.O.O.O.O.O.O.O.O.O._ h.h.j.j.j.h.{ ) O.^ y y.2.;.;.;.;.;.h d ;.;.;.;.;.;.y.c & w O.O.O.{ { k.{ O.O.O.O.O.O.O.O.O.O.O.O.O.O.",
"O.O.O.O.O.O.O.O.O.O.O.O./ _ _ h.j.h.h._ _ O.O.O.  o > > > > > > > > > > > > >   y O.O.O.O.{ { k.k.h.h.h.h.O.O.O.O.O.O.O.O.O.O.O.",
"O.O.O.O.O.O.O.O.O.O.O.O.O./ _ / _ h._ / O.O.O.O.  o > > < 2 2 2 2 2 2 2 2 < >   y O.O.O.h.h.j.j.j.j.h.h.h.h.O.O.O.O.O.O.O.O.O.O.",
"O.O.O.O.O.O.O.O.O.O.O.O.O.O./ / / / / O.O.O.O.h.  o > < 1 2 : : : : , 2 2 1 <   y O.O.O._ h.j.j.j.h.h.h._ _ O.O.O.O.O.O.O.O.O.O.",
"O.O.O.O.O.O.O.O.O.O.O.O.O.O.O./ / / O.O.O.O.h.h.  o > 2 2 2         : 2 2 2 2   l O.O.O./ h.h.h.h._ _ _ / O.O.O.O.O.O.O.O.O.O.O.",
"O.O.O.O.O.O.O.O.O.O.O.O.O.O.O.O.O.O.O.O.O._ _ h.  o > 2 2 2   y O.  : 2 2 2 2   0 _ O.O./ / _ _ _ _ / / O.O.O.O.O.O.O.O.O.O.O.O.",
"O.O.O.O.O.O.O.O.O.O.O.O.O.O.O.O.O.O.O.O.O./ _ _   o > 2 2 2   y _   : 2 2 2 2   0 / O.O.O./ / / / / / O.O.O.O.O.O.O.O.O.O.O.O.O.",
"O.O.O.O.O.O.O.O.O.O.O.O.O.O.O.O.O.O.O.O.O.O./ /   o > 2 2 2   8 _   : 2 2 2 2   8 O.O.O.O.O.O.O.O.O.O.O.O.O.O.O.O.O.O.O.O.O.O.O.",
"O.O.O.O.O.O.O.O.O.O.O.O.O.O.O.O.O.O.O.O.O.O.O./   $ j x x x   8 /   % x x x x   y O.O.O.O.O.O.O.O.O.O.O.O.O.O.O.O.O.O.O.O.O.O.O.",
"O.O.O.O.O.O.O.O.O.O.O.O.O.O.O.O.O.O.O.O.O.O.O.O.y 5 $ % % % y ^ / 8 7 % % % % y ^ O.O.O.O.O.O.O.O.O.O.O.O.O.O.O.O.O.O.O.O.O.O.O.",
"O.O.O.O.O.O.O.O.O.O.O.O.O.O.O.O.O.O.O.O.O.O.O.O.O.y         O.O.O.O.y         O.O.O.O.O.O.O.O.O.O.O.O.O.O.O.O.O.O.O.O.O.O.O.O.O.",
"O.O.O.O.O.O.O.O.O.O.O.O.O.O.O.O.O.O.O.O.O.O.O.O.O.O.O.O.O.O.O.O.O.O.O.O.O.O.O.O.O.O.O.O.O.O.O.O.O.O.O.O.O.O.O.O.O.O.O.O.O.O.O.O.",
"O.O.O.O.O.O.O.O.O.O.O.O.O.O.O.O.O.O.O.O.O.O.O.O.O.O.O.O.O.O.O.O.O.O.O.O.O.O.O.O.O.O.O.O.O.O.O.O.O.O.O.O.O.O.O.O.O.O.O.O.O.O.O.O.",
"O.O.O.O.O.O.O.O.O.O.O.O.O.O.O.O.O.O.O.O.O.O.O.O.O.O.O.O.O.O.O.O.O.O.O.O.O.O.O.O.O.O.O.O.O.O.O.O.O.O.O.O.O.O.O.O.O.O.O.O.O.O.O.O.",
"O.O.O.O.O.O.O.O.O.O.O.O.O.O.O.O.O.O.O.O.O.O.O.O.O.O.O.O.O.O.O.O.O.O.O.O.O.O.O.O.O.O.O.O.O.O.O.O.O.O.O.O.O.O.O.O.O.O.O.O.O.O.O.O.",
"O.O.O.O.O.O.O.O.O.O.O.O.O.O.O.O.O.O.O.O.O.O.O.O.O.O.O.O.O.O.O.O.O.O.O.O.O.O.O.O.O.O.O.O.O.O.O.O.O.O.O.O.O.O.O.O.O.O.O.O.O.O.O.O.",
"O.O.O.O.O.O.O.O.O.O.O.O.O.O.O.O.O.O.O.O.O.O.O.O.O.O.O.O.O.O.O.O.O.O.O.O.O.O.O.O.O.O.O.O.O.O.O.O.O.O.O.O.O.O.O.O.O.O.O.O.O.O.O.O.",
"O.O.O.O.O.O.O.O.O.O.O.O.O.O.O.O.O.O.O.O.O.O.O.O.O.O.O.O.O.O.O.O.O.O.O.O.O.O.O.O.O.O.O.O.O.O.O.O.O.O.O.O.O.O.O.O.O.O.O.O.O.O.O.O.",
"O.O.O.O.O.O.O.O.O.O.O.O.O.O.O.O.O.O.O.O.O.O.O.O.O.O.O.O.O.O.O.O.O.O.O.O.O.O.O.O.O.O.O.O.O.O.O.O.O.O.O.O.O.O.O.O.O.O.O.O.O.O.O.O."
};
