/* XPM */
static char *ac36a1e87bff43aedb7324adfa2d3514oqC0kHZhJxWbgkSE[] = {
/* columns rows colors chars-per-pixel */
"64 64 91 1 ",
"  c #4D2712",
". c #4E2812",
"X c #522B14",
"o c #532F18",
"O c #5A3117",
"+ c #56321A",
"@ c #5A351D",
"# c #5E391E",
"$ c #603A1F",
"% c #5B3720",
"& c #5E3A21",
"* c #623D23",
"= c #555216",
"- c #5F5818",
"; c #615A1B",
": c #656C17",
"> c #72751B",
", c #644126",
"< c #664529",
"1 c #69462A",
"2 c #67482B",
"3 c #6A4A2D",
"4 c #6C4E31",
"5 c #644F3C",
"6 c #704E31",
"7 c #6E5234",
"8 c #66523F",
"9 c #6C563E",
"0 c #715537",
"q c #765837",
"w c #735738",
"e c #755A3A",
"r c #795E3E",
"t c #686120",
"y c #787B21",
"u c #7A603F",
"i c #675240",
"p c #695642",
"a c #6C5A46",
"s c #6D5C48",
"d c #715C45",
"f c #7A5F40",
"g c #715E48",
"h c #7D6241",
"j c #74624C",
"k c #756551",
"l c #786751",
"z c #7B6A55",
"x c #7F6E59",
"c c #7D6D5A",
"v c #7F705B",
"b c #7F7262",
"n c #816645",
"m c #836947",
"M c #836848",
"N c #866B4A",
"B c #876C4B",
"V c #846B4D",
"C c #876E4F",
"Z c #886C4C",
"A c #8A714F",
"S c #876E50",
"D c #886F51",
"F c #8B7353",
"G c #8E7653",
"H c #8A7254",
"J c #8B7455",
"K c #8C7455",
"L c #8D7455",
"P c #81715B",
"I c #81715C",
"U c #907756",
"Y c #907857",
"T c #917858",
"R c #937B5C",
"E c #947C5C",
"W c #867661",
"Q c #847562",
"! c #867966",
"~ c #897B67",
"^ c #8E7F6A",
"/ c #8C7F6C",
"( c #977F61",
") c #7F8226",
"_ c #8E806C",
"` c #998263",
"' c #9A8364",
"] c #9B8567",
"[ c #928371",
"{ c #938472",
"} c #948675",
/* pixels */
">>>>>>>>>>>>>>>>>>>>>>>>>>>>>>>>>>>>>>>>>>>>>>>>>>>>>>>>>>>>>>>>",
">>>>>>>>>>>>>>>>>>>>>>>>>>>>>>>>>>>>>>>>>>>>>>>>>>>>>>>>>>>>>>>>",
">>>>>>>>>>>>>>>>>>>>>>>>>>>>>>>>>>>>>>>>>>>>>>>>>>>>>>>>>>>>>>>>",
">>>>>>>>>>>>>>>>>>>>>>>>>>>>>>>>>>>>>>>>>>>>>>>>>>>>>>>>>>>>>>>>",
">>>>>>>>>>>>>>>>>>>>>>>>>>>>>>>>>>>>>>>>>>>>>>>>>>>>>>>>>>>>>>>>",
">>>>>>>>>>>>>>>>>>>>>>>>>>33334*46444>>>>>>>>>>>>>>>>>>>>>>>>>>>",
">>>>>>>>>>>>>>>>>>>>>>131*AAAZBOBBNNN@,,,>>>>>>>>>>>>>>>>>>>>>>>",
">>>>>>>>>>>>>>>>>>>>31UYT$AAAZNOBNNNN@rrr*,>>>>>>>>>>>>>>>>>>>>>",
">>>>>>>>>>>>>>>>>>*$FGGUT$`'`EE#EEEEK@rrrre@&>>>>>>>>>>>>>>>>>>>",
">>>>>>>>>>>>>>>>>1M#Z]]]]$eeeen#rrrru@KKKKw*0&>>>>>>>>>>>>>>>>>>",
">>>>>>>>>>>>>>>>3ZC#(eZhh*hheeh$rrhhu,<<nfK*07&>>>>>>>>>>>>>>>>>",
">>>>>>>>>>>>>>>1NZE*eeChh*hhheh<rrhhh1<Mhhh,D00@>>>>>>>>>>>>>>>>",
">>>>>>>>>>>>>>>1NRr*qCnhh<hhhhh<rhhhu3Mhhhh<hC0@>>>>>>>>>>>>>>>>",
">>>>>>>>>>>>>>,fHer*qZnnn<hhhhh1rhhhu3hhhhh3ruC0@>>>>>>>>>>>>>>>",
">>>>>>>>>>>>>><Jeer,Mhhhn3hhhhh1hhhhh3hhfhf3uuuV@>>>>>>>>>>>>>>>",
">>>>>>>>>>>>><fHeee3hnnnh3hhhhn1hhhhh3hffhh4uurS4@>>>>>>>>>>>>>>",
">>>>>>>>>>>>>,Seeee3hhnnn3hhhhn<hhhhh3hhhhh7uurrH+>>>>>>>>>>>>>>",
">>>>>>>>>>>>><Ceeee3hhhnn3hhhhn<nhhhh3hhhhh7urrrH+>>>>>>>>>>>>>>",
">>>>>>>>>>>>>#eeeee3hhh,h3ffffh3mhhhh3h,hhh4urrrrX>>>>>>>>>>>>>>",
">>>>>>>>>>>>>@###******{13ffffh3mhhhh3,{****&##@@X>>>>>>>>>>>>>>",
">>>>>>>>>>>>>+xxIPPWWWWx^,ffffh3mhhhh*[lWWxxxxvzzX>>>>>>>>>>>>>>",
">>>>>>>>>>>>>+ddjjjlzzxxx^,rrrh3Mhhh*[lllkjjjjjaaX>>>>>>>>>>>>>>",
">>>>>>>>>>>>>+ddjjjlzzzxxXrrrrh1MhhhhXlllkjjjjjaaX>>>>>>>>>>>>>>",
">>>>>>>>>>>>>+XXXXXXXXXzX7rrrrh1Mhhhh3XlXXXXXXXXXX>>>>>>>>>>>>>>",
">>>>>>>>>>>>>+<,,<3#333X47rrrrh1Mhhhh33X333333322X>>>>>>>>>>>>>>",
">>>>>>>>>>>>>Xweeee&fhh344rrrrh1Nhhhh3u3fff7wewwwX>>>>>>>>>>>>>>",
">>>>>>>>>>>>>Xwweee,hfhf44rrrrh<Buhhh3hrrrr7wwwwwX>>>>>>>>>>>>>>",
">>>>>>>>>>>>>Xwwwee3hrrr34rrrrh<Chhhh3hrrrr7wwwwwX;-->>>>>>>>>>>",
">>>>>>>>>>>>>Xwwwww3hrrr34rrrrh<Chhhh3hrrrr7wwwwwX;;--->>>>>>>>>",
">>>>>>>>>>>>>Xwwwww3hrrrr4errrh<Chhhh4hrrrr700000X;------>>>>>>>",
">>>>>>>>>>>>>X0wwww3heeee4eeeeh<Vuuhh4hrrrr400000X;;------>>>>>>",
">>>>>>>>>>>>>X0wwww3heeee4eee@***&uuu7hrrrr400000X;;------->>>>>",
">>>>>>>>>>>>>X0000w3heeee4ee#_^^^/#rr7hrrrr400777X;-------->>>>>",
">>>>>>>>>>>>>X000004fewww4ee#jjjjj#rr7heree277777X;;-------->>>>",
">>>>>>>>>>>>>X000003f0www4ee@jjXjj#er4heeee<77777X;;-------->>>>",
">>>>>>>>>>>>>X000003f000w4eeXggXggXee4heeee<77777X---------->>>>",
">>>>>>>>>>>>>X000003f00003weX99999Xee3heeee<77777X--------->>>>>",
">>>>>>>>>>>>>.000003h00&03ww3XXXXX3ee3r*eee<77777.--------->>>>>",
">>>>>>>>>>>>>.++@@@#&&&_&3www33@31www4*/&&%#@@@++.-------->>>>>>",
">>>>>>>>>>>>>.llxzxWWWWk/&wwwww,rewwe*/jIIzzzzxll.-------->>>>>>",
">>>>>>>>>>>>>.ppgggjjjkll~&0www,wwwe*/jjjjsssss99.-------)>>>>>>",
">>>>>>>>>>>>>.ppsggjjjkllXw0www,wwww0Xjjjjsssss99.--tt;--yy>>>>>",
">>>>>>>>>>>>>....XXXXXXkX,w00ww,0w000,Xs....XX....---t;;>:y>>)>>",
">>>>>>>>>>>>>.**,<<@233X<,0000w,00007,3.<<<*<,*** ---=;;y:>yy:>>",
">>>>>>>>>>>)>.77777@77720,00000&07777,e<eee*44444 --t;=yy>>yy:>>",
">>>>>>))y>>yy.77777&77770*00000@77777*eeeee&44444 --=;;:y>>::>>>",
">>>>>>>)yy>:y.77777&77777&00000o77777&eeeee&44444 ---=y::>>>>>>>",
">>>>>>>:yyy:>.o@%&&&%%%@@+++oX.XXo++@@@@@@@+++o   ---->>>>>>>>>>",
">>>>>>)y:yy>>.jjjjkkkklzzzzzzxb.WWxxzzzlkkkkkkkkk --->>>>>>>>>>>",
">>>>>>:yy:y>>.W!!!!!!!!!/////}}.}}////!!!!!!!!!!! --->>>>>>>>>>>",
">>>>>>>:y::>>.8888iiiiaaaaaassk.kssssaaaappp58855 -->>>>>>>>>>>>",
">>>>>>>>>>>>>.888888ipaaaaaassk.ksssaaaaappp55555 -->>>>>>>>>>>>",
">>>>>>>>>>>>>.5558ppppaaaaaassk.kssssaappppppp555 ->>>>>>>>>>>>>",
">>>>>>>>>>>>>.555pppppaaaaaassk.ksssssaappppppp55 ->>>>>>>>>>>>>",
">>>>>>>>>>>>>  ........................           >>>>>>>>>>>>>>",
">>>>>>>>>>>>>>>>>>>>>>>>>>>>>>>>>>>>>>>>>>>>>>>>>>>>>>>>>>>>>>>>",
">>>>>>>>>>>>>>>>>>>>>>>>>>>>>>>>>>>>>>>>>>>>>>>>>>>>>>>>>>>>>>>>",
">>>>>>>>>>>>>>>>>>>>>>>>>>>>>>>>>>>>>))>>>>>>>>>>>>>>>>>>>>>>>>>",
">>>>>>>>>>>>>>>>>>>>>>>>>>>>>>>>>>>>>>)yy>>>))>>>>>>>>>>>>>>>>>>",
">>>>>>>>>>>>>>>>>>>>>>>>>>>>>>>>>>>>>>:yy>>y)>>>>>>>>>>>>>>>>>>>",
">>>>>>>>>>>>>>>>>>>>>>>>>>>>>>>>>>>>>>>::>yyy>>>>>>>>>>>>>>>>>>>",
">>>>>>>>>>>>>>>>>>>>>>>>>>>>>>>>>>>>>>>>>>yy:>>>>>>>>>>>>>>>>>>>",
">>>>>>>>>>>>>>>>>>>>>>>>>>>>>>>>>>>>>>>>>>::>>>>>>>>>>>>>>>>>>>>",
">>>>>>>>>>>>>>>>>>>>>>>>>>>>>>>>>>>>>>>>>>>>>>>>>>>>>>>>>>>>>>>>"
};
