/* XPM */
static char *_1c6dcc575dd4bbafaaba26f9d76ccefUh74HRKqC58tMx3B[] = {
/* columns rows colors chars-per-pixel */
"64 64 85 1 ",
"  c #53321D",
". c #573622",
"X c #583521",
"o c #593724",
"O c #593A27",
"+ c #5A3B28",
"@ c #5B3C29",
"# c #5D3E2A",
"$ c #5F5818",
"% c #656C17",
"& c #72751B",
"* c #5F402C",
"= c #60402B",
"- c #61422D",
"; c #684B36",
": c #6D4B34",
"> c #6F4C36",
", c #6A4D39",
"< c #6E523F",
"1 c #74513A",
"2 c #787B21",
"3 c #6F5341",
"4 c #705340",
"5 c #725543",
"6 c #745643",
"7 c #775946",
"8 c #785A48",
"9 c #795E4A",
"0 c #7C5F4B",
"q c #7B5E4D",
"w c #7B624E",
"e c #7C604D",
"r c #7E6352",
"t c #7E6450",
"y c #846552",
"u c #896F5C",
"i c #8B7565",
"p c #8E7665",
"a c #8C7E67",
"s c #8D7F69",
"d c #7F8226",
"f c #8D806B",
"g c #8F826D",
"h c #90836E",
"j c #90846F",
"k c #908470",
"l c #908471",
"z c #938774",
"x c #948873",
"c c #948875",
"v c #978B77",
"b c #998C77",
"n c #968A78",
"m c #978C7A",
"M c #988D78",
"N c #9A8F7F",
"B c #9A907E",
"V c #9C917E",
"C c #46809E",
"Z c #48819F",
"A c #548BA8",
"S c #70A1B4",
"D c #9B9080",
"F c #9C9180",
"G c #9E9482",
"H c #9E9384",
"J c #9F9686",
"K c #9F9688",
"L c #A09686",
"P c #A09689",
"I c #A1998B",
"U c #A29A8D",
"Y c #A49C8E",
"T c #A69E90",
"R c #A7A091",
"E c #A9A190",
"W c #AAA294",
"Q c #ACA496",
"! c #ACA597",
"~ c #AFA69B",
"^ c #AFA79C",
"/ c #B0A79B",
"( c #B0A89B",
") c #B0A89C",
"_ c #B7B0A5",
/* pixels */
"&&&&&&&&&&&&&&&&&&&&&&&&&&&&&&&&&&&&&&&&&&&&&&&&&&&&&&&&&&&&&&&&",
"&&&&&&&&&&&&&&&&&&&&&&&&&&&&&&&&&&&&&&&&&&&&&&&&&&&&&&&&&&&&&&&&",
"&&&&&&&&&&&&&&&&&&&&&&&&&&&&&&&&&&&&&&&&&&&&&&&&&&&&&&&&&&&&&&&&",
"&&&&&&&&&&&&&&&&&&&&&&&&&&&&&&&&&&&&&&&&&&&&&&&&&&&&&&&&&&&&&&&&",
"&&&&&&&&&&&&&&&&&&&&&&&&&&&&&&&&&&&&&&&&&&&&&&&&&&&&&&&&&&&&&&&&",
"&&&&&&&&&&&&&&&&&&&&&&&&&&&&&&&&&&&&&&&&&&&&&&&&&&&&&&&&&&&&&&&&",
"&&&&&&&&&&&&&&&&&&&&&&&&&&&&&&&&&&&&&&&&&&&&&&&&&&&&&&&&&&&&&&&&",
"&&&&&&&&&&&&&&&&&&&&&&&&&&&&&&&&&&&&&&&&d&&&&&&&&&&&&&&&&&&&&&&&",
"&&&&&&&&&&&&&&&&&&&&&&&&&&&&&&&&&&&&&&&&22&&&&&&&&&&&&&&&&&&&&&&",
"&&&&&&&&&&&&&&&&&&&&&&&&&&&&&&&&&&&&dd2&%2&&&&&&&&&&&&&&&&&&&&&&",
"&&&&&&&&&&&&&&&&&&&&&&&&&&&&&&&&&&&&&d22%%&dd2&&&&&&&&&&&&&&&&&&",
"&&&&&&&&&&&&&&&&&&&&&&&,,,,,,,,,,,,,,,,,&%22d&&&&&&&&&&&&&&&&&&&",
"&&&&&&&&&&&&&&&&&&&&&&,EEEEEEEEEEEEEEEEE,222&&&&&&&&&&&&&&&&&&&&",
"&&&&&&&&&&&&&&&&&&&&&,~EEEEEEEEEEEEEEEEE~,2%&&&&&&&&&&&&&&&&&&&&",
"&&&&&&&&&&&&&&&&&&&&&,~WWWEEEEEEEEEEEEEE/,%&&&&&&&&&&&&&&&&&&&&&",
"&&&&&&&&&&&&&&&&&&&&&,~WEWWWWWWWWWWWWWEE(,&&&&&&&&&&&&&&&&&&&&&&",
"&&&&&&&&&&&&&&&&&&&&&,~WWWWWWWWWWWWW!!WW(,&&&&&&&&&&&&&&&&&&&&&&",
"&&&&&&&&&&&&&&&&&&&&&,~WWW!!!!!!!!W!!!!!),&&&&&&&&&&&&&&&&&&&&&&",
"&&&&&&&&&&&&&&&&&&&&&,~!!!!~~~~~!!!!!!!!),&&&&&&&&&&&&&&&&&&&&&&",
"&&&&&&&&&&&&&&&&&&&&&,~!!!!~~~~~!!!!!!!!),&&&&&&&&&&&&&&&&&&&&&&",
"&&&&&&&&&&&&&&&&&&&&&,~!!~~~~~~~~~~!~!!!),&&&&&&&&&&&&&&&&&&&&&&",
"&&&&&&&&&&&&&&&&&&&&&,^~~~u~~~!!~~~~p~~~),&&&&&&&&&&&&&&&&&&&&&&",
"&&&&&&&&&&&&&&&&&&&&&,)~~yUr!!!!~!~yIr~~),&&&&&&&&&&&&&&&&&&&&&&",
"&&&&&&&&&&&&&&&&&&&&&,)~9UII9!!!~~9IIIq~),&&&&&&&&&&&&&&&&&&&&&&",
"&&&&&&&&&&&&&&&&&&&&&,)~0IiIe~~~~~qIiI9~),&&&&&&&&&&&&&&&&&&&&&&",
"&&&&&&&&&&&&&&&&&&&&&;)8IiiiI6)))3IiiiI4),&&&&&&&&&&&&&&&&&&&&&&",
"&&&&&&&&&&&&&&&&&&&&&-T7JKKKK7FHH5PKKJK<R-&&&&&&&&&&&&&&&&&&&&&&",
"&&&&&&&&&&&&&&&&&&&&&-YDFVFFFFFFFFFFGJJJT-$$$$$&&&&&&&&&&&&&&&&&",
"&&&&&&&&&&&&&&&&&&&&&-YDDBBBDDDDDDFFFFFHY-$$$$$$&&&&&&&&&&&&&&&&",
"&&&&&&&&&&&&&&&&&&&&&-INNNNNBNNNBNBBDFFFY-$$$$$$&&&&&&&&&&&&&&&&",
"&&&&&&&&&&&&&&&&&&&&&-INw9799eNNNw97eetBY-$$$$$$&&&&&&&&&&&&&&&&",
"&&&&&&&&&&&&&&&&&&&&&-JNN_ZC_NNNNN_ZC_NNY-$$$$$$&&&&&&&&&&&&&&&&",
"&&&&&&&&&&&&&&&&&&&&&-JNN_SA_MMMMM_SA_NNU-$$$$$$&&&&&&&&&&&&&&&&",
"&&&&&&&&&&&&&&&&&&&&&-JMMMMMnnMMnmmmMMMNI-$$$$$$&&&&&&&&&&&&&&&&",
"&&&&&&&&&&&&&&&&&&&&&-JmmnnnnnnvvnnnnnnnI-$$$$$$&&&&&&&&&&&&&&&&",
"&&&&&&&&&&&&&&&&&&&&&-Fnnnnnnnv1vnnnnnnnJ-$$$$$$&&&&&&&&&&&&&&&&",
"&&&&&&&&&&&&&&&&&&&&&-Fnnnnnnvv>vvvvvnnnL-$$$$$$&&&&&&&&&&&&&&&&",
"&&&&&&&&&&&&&&&&&&&&&=Fnnnvvvv:v>vvvvvnnJ-$$$$$$&&&&&&&&&&&&&&&&",
"&&&&&&&&&&&&&&&&&&&&&#Bvvvvvv;vvv:vvvvvnG-$$$$$$&&&&&&&&&&&&&&&&",
"&&&&&&&&&&&&&&&&&&&&&#NvvvvvvvvvvvvvvvvvV-$$$$$$&&&&&&&&&&&&&&&&",
"&&&&&&&&&&&&&&&&&&&&&#MvvvvvvvvvvvvvvvvvV-$$$$$$&&&&&&&&&d&&&&&&",
"&&&&&&&&&&&&&&&&&&&&&#MvvvzzzzzzzzzzvvvvV-$$$$$$&&&&dd2&&22&&&&&",
"&&&&&&&&&&&&&&&&&&&&&#MvvzzzzzzzzzzzzvvzV-$$$$$$&&&&&d22&%2&&d&&",
"&&&&&&&&&&&&&&&&&&&&&#MllllzzzzzzzlllzzlN-$$$$$&&&&&&%222%&22%&&",
"&&&&&&&&&&&d&&&&&&&&&#MlllllllllllllllllM-$$$$$&&&&&d2%22&&22%&&",
"&&&&&&dd2&&22&&&&&&&&#MlllllllllllllllllM-$$$$&&&&&&%22%2&&%%&&&",
"&&&&&&&d22&%2&&d&&&&&#MhhlllllllllllllllM-$$$$&&&&&&&%2%%&&&&&&&",
"&&&&&&&%222%&22%&&&&&@vghhjjjjjjjjlllhjjb-$$$&&&&&&&&&&&&&&&&&&&",
"&&&&&&d2%22&&22%&&&&&@vggggggggghhghhhhhM-$$$&&&&&&&&&&&&&&&&&&&",
"&&&&&&%22%2&&%%&&&&&&Ovgfgggggggggggggggv*$$&&&&&&&&&&&&&&&&&&&&",
"&&&&&&&%2%%&&&&&&&&&&Ovffffggggggggggggfv+$$&&&&&&&&&&&&&&&&&&&&",
"&&&&&&&&&&&&&&&&&&&&&Ovfffffffffffgfffffx+$&&&&&&&&&&&&&&&&&&&&&",
"&&&&&&&&&&&&&&&&&&&&&Ovsssfffffffffffsssx+$&&&&&&&&&&&&&&&&&&&&&",
"&&&&&&&&&&&&&&&&&&&&& xssssssssssssssssax.&&&&&&&&&&&&&&&&&&&&&&",
"&&&&&&&&&&&&&&&&&&&&&&XOOOOOOOOOOOOOOOOOo&&&&&&&&&&&&&&&&&&&&&&&",
"&&&&&&&&&&&&&&&&&&&&&&&&&&&&&&&&&&&&&&&&&&&&&&&&&&&&&&&&&&&&&&&&",
"&&&&&&&&&&&&&&&&&&&&&&&&&&&&&&&&&&&&&&&&&&&&&&&&&&&&&&&&&&&&&&&&",
"&&&&&&&&&&&&&&&&&&&&&&&&&&&&&&&&&&&&&dd&&&&&&&&&&&&&&&&&&&&&&&&&",
"&&&&&&&&&&&&&&&&&&&&&&&&&&&&&&&&&&&&&&d22&&&dd&&&&&&&&&&&&&&&&&&",
"&&&&&&&&&&&&&&&&&&&&&&&&&&&&&&&&&&&&&&%22&&2d&&&&&&&&&&&&&&&&&&&",
"&&&&&&&&&&&&&&&&&&&&&&&&&&&&&&&&&&&&&&&%%&222&&&&&&&&&&&&&&&&&&&",
"&&&&&&&&&&&&&&&&&&&&&&&&&&&&&&&&&&&&&&&&&&22%&&&&&&&&&&&&&&&&&&&",
"&&&&&&&&&&&&&&&&&&&&&&&&&&&&&&&&&&&&&&&&&&%%&&&&&&&&&&&&&&&&&&&&",
"&&&&&&&&&&&&&&&&&&&&&&&&&&&&&&&&&&&&&&&&&&&&&&&&&&&&&&&&&&&&&&&&"
};
