/* XPM */
static char *player1712583823[] = {
/* columns rows colors chars-per-pixel */
"64 64 144 2 ",
"   c #060608",
".  c #0D2D1E",
"X  c #353C1B",
"o  c #15213C",
"O  c #302A26",
"+  c #3F362E",
"@  c #77383D",
"#  c #104023",
"$  c #155434",
"%  c #155D30",
"&  c #176739",
"*  c #19703B",
"=  c #1A7A3E",
"-  c #6B4408",
";  c #45462F",
":  c #4C4C33",
">  c #715023",
",  c #775C3E",
"<  c #596238",
"1  c #6E6C2A",
"2  c #766426",
"3  c #65732D",
"4  c #7C7325",
"5  c #626F30",
"6  c #6E6836",
"7  c #747A34",
"8  c #143464",
"9  c #243D6F",
"0  c #14444C",
"q  c #1C4871",
"w  c #155273",
"e  c #205469",
"r  c #5A4E44",
"t  c #465759",
"y  c #737849",
"u  c #796755",
"i  c #747B58",
"p  c #930F18",
"a  c #A31721",
"s  c #B4202A",
"d  c #B0710B",
"f  c #826D24",
"g  c #9C6B24",
"h  c #BD692E",
"j  c #C07A09",
"k  c #CD7137",
"l  c #CB7B31",
"z  c #827C64",
"x  c #CE454E",
"c  c #E86A73",
"v  c #828124",
"b  c #82813B",
"n  c #AF9435",
"m  c #D18308",
"M  c #DB8B0D",
"N  c #D38A17",
"B  c #E59311",
"V  c #F9A31B",
"C  c #C68625",
"Z  c #C9852C",
"A  c #D59126",
"S  c #D98E35",
"D  c #DD9B3E",
"F  c #839051",
"G  c #BB9A56",
"H  c #94A940",
"J  c #B5986C",
"K  c #ADBE69",
"L  c #BBA87F",
"P  c #CC9240",
"I  c #E6A047",
"U  c #F3B359",
"Y  c #E9B375",
"T  c #F3B371",
"R  c #B7CD5F",
"E  c #B8CF5E",
"W  c #BED758",
"Q  c #BAD15C",
"!  c #AEC067",
"~  c #B1C464",
"^  c #B5CB60",
"/  c #B4C862",
"(  c #C2DE54",
")  c #C2DE55",
"_  c #E7C344",
"`  c #EDD143",
"'  c #FFD541",
"]  c #F3DF42",
"[  c #C4E053",
"{  c #F9EE41",
"}  c #FFFC40",
"|  c #FFFC4C",
" . c #FFFC57",
".. c #FFFD6F",
"X. c #111A86",
"o. c #1C3BA5",
"O. c #1E4894",
"+. c #2B549D",
"@. c #2B6485",
"#. c #305EB5",
"$. c #1C69A1",
"%. c #2869B7",
"&. c #2173B9",
"*. c #5D688B",
"=. c #577384",
"-. c #285CC4",
";. c #3568CD",
":. c #2D73CF",
">. c #267DD1",
",. c #3A7FD9",
"<. c #4274D7",
"1. c #5E88BB",
"2. c #258ED7",
"3. c #3389DA",
"4. c #2B94DC",
"5. c #249FDE",
"6. c #5785CA",
"7. c #20D6C7",
"8. c #828283",
"9. c #88879C",
"0. c #8786A3",
"q. c #8F8DA1",
"w. c #9593A6",
"e. c #8D97B2",
"r. c #86A9A9",
"t. c #C0B892",
"y. c #FEBDA1",
"u. c #EEC388",
"i. c #F3D39A",
"p. c #C6DEBA",
"a. c #FED8B0",
"s. c #F9E3AD",
"d. c #FEE5B8",
"f. c #888CC2",
"g. c #93A7C2",
"h. c #A0B9EB",
"j. c #91C9CF",
"k. c #8FE4C3",
"l. c #91CFEE",
"z. c #C6ECC2",
"x. c #C8E1D7",
"c. c #FEF3C0",
"v. c #FEF9DF",
"b. c white",
/* pixels */
"[ [ [ [ [ [ [ [ [ [ [ [ [ [ [ [ [ [ [ [ [ [ [ [ [ [ [ [ [ [ [ [ [ [ [ [ [ [ [ [ [ [ [ [ [ [ [ [ [ [ [ [ [ [ [ [ [ [ [ [ [ [ [ [ ",
"[ [ [ [ [ [ [ [ [ [ [ [ [ [ [ [ [ [ [ [ [ [ [ [ [ [ [ [ [ [ [ [ [ [ [ [ [ [ [ [ [ [ [ [ [ [ [ [ [ [ [ [ [ [ [ [ [ [ [ [ [ [ [ [ ",
"[ [ [ [ [ [ [ [ [ [ [ [ [ [ [ [ [ [ [ [ [ [ [ [ [ [ [ [ [ [ [ [ [ [ [ [ [ [ [ [ [ [ [ [ [ [ [ [ [ [ [ [ [ [ [ [ [ [ [ [ [ [ [ [ ",
"[ [ [ [ [ [ [ [ [ [ [ [ [ [ [ [ [ [ [ [ [ [ [ [ [ [ [ [ [ [ [ [ [ [ [ [ [ [ [ [ [ [ [ [ [ [ [ [ [ [ [ [ [ [ [ [ [ [ [ [ [ [ [ [ ",
"[ [ [ [ [ [ [ [ [ [ [ [ [ [ [ [ [ [ [ [ [ [ [ [ [ [ [ [ [ [ [ [ [ [ [ [ [ [ [ [ [ [ [ [ [ [ [ [ [ [ [ [ [ [ [ [ [ [ [ [ [ [ [ [ ",
"[ [ [ [ [ [ [ [ [ [ [ [ [ [ [ [ [ [ [ [ [ [ [ [ [ [ [ [ [ [ [ [ [ [ [ [ [ [ [ [ [ [ [ [ [ [ [ [ [ [ [ [ [ [ [ [ [ [ [ [ [ [ [ [ ",
"[ [ [ [ [ [ [ [ [ [ [ [ [ [ [ [ [ [ [ [ [ [ [ [ [ [ [ [ [ [ [ [ [ [ [ [ [ [ [ [ [ [ [ [ [ [ [ [ [ [ [ [ [ [ [ [ [ [ [ [ [ [ [ [ ",
"[ [ [ [ [ [ [ [ [ [ [ [ [ [ [ [ [ [ [ [ [ [ [ [ [ [ [ [ [ [ [ [ [ [ [ [ [ [ [ [ [ [ [ [ [ [ [ [ [ [ [ [ [ [ [ [ [ [ [ [ [ [ [ [ ",
"[ [ [ [ [ [ [ [ [ [ [ [ [ [ [ [ [ [ [ [ [ [ [ [ [ [ [ [ 3               [ [ [ [ [ [ [ [ [ [ [ [ [ [ [ [ [ [ [ [ [ [ [ [ [ [ [ [ ",
"[ [ [ [ [ [ [ [ [ [ [ [ [ [ [ [ [ [ [ [ [ [ [ [ [ H 3 3 1 2 2 4 v b b b 3 3 3 [ [ [ [ [ [ [ [ [ [ [ [ [ [ [ [ [ [ [ [ [ [ [ [ [ ",
"[ [ [ [ [ [ [ [ [ [ [ [ [ [ [ [ [ [ [ [ [ [ [ [ [ 3     2 _ _ ] } ......      [ [ [ [ [ [ [ [ [ [ [ [ [ [ [ [ [ [ [ [ [ [ [ [ [ ",
"[ [ [ [ [ [ [ [ [ [ [ [ [ [ [ [ [ [ [ [ [ [ [ [   2 _ _ _ _ } } } } } } ......  3 [ [ [ [ [ [ [ [ [ [ [ [ [ [ [ [ [ [ [ [ [ [ [ ",
"[ [ [ [ [ [ [ [ [ [ [ [ [ [ [ [ [ [ [ [ [ [ H 3 2 n _ _ ` ] } } } } } }  . . .b 7 3 [ [ [ [ [ [ [ [ [ [ [ [ [ [ [ [ [ [ [ [ [ [ ",
"[ [ [ [ [ [ [ [ [ [ [ [ [ [ [ [ [ [ [ [ [ [ 3   _ _ _ _ ] } } } } } } } } } } ..b   [ [ [ [ [ [ [ [ [ [ [ [ [ [ [ [ [ [ [ [ [ [ ",
"[ [ [ [ [ [ [ [ [ [ [ [ [ [ [ [ [ [ [ [ [   2 _ _ _ _ _ _ _ } } } } } } } } } }  ...  3 [ [ [ [ [ [ [ [ [ [ [ [ [ [ [ [ [ [ [ [ ",
"[ [ [ [ [ [ [ [ [ [ [ [ [ [ [ [ [ [ [ H 3 2 n _ _ _ _ _ _ _ ] { } ] { } } |  .}  ...b 7 3 [ [ [ [ [ [ [ [ [ [ [ [ [ [ [ [ [ [ [ ",
"[ [ [ [ [ [ [ [ [ [ [ [ [ [ [ [ [ [ [ 3   _ _ _ _ _ _ _ _ _ _ ] } _ ] } }  ...}  .....b   [ [ [ [ [ [ [ [ [ [ [ [ [ [ [ [ [ [ [ ",
"[ [ [ [ [ [ [ [ [ [ [ [ [ [ [             p p p p p p p p p p a s p a s s s s s x c c @           3 [ [ [ [ [ [ [ [ [ [ [ [ [ [ ",
"[ [ [ [ [ [ [ [ [ [ [ [ [ H 3 2 2 2 2 2 2 h h h h h h h h h Z l k h l S S S S S I U T G b b b b b 7 3 [ [ [ [ [ [ [ [ [ [ [ [ [ ",
"[ [ [ [ [ [ [ [ [ [ [ [ [ 3   _ _ _ _ _ _ _ _ _ _ _ _ _ _ _ } ] _ _ ] } } } } } } } ..............b   [ [ [ [ [ [ [ [ [ [ [ [ [ ",
"[ [ [ [ [ [ [ [ [ [ [ [ [ [ [             V B m d d d m D Y Y i.c.Y Y Y m j d m N A ' f           3 [ [ [ [ [ [ [ [ [ [ [ [ [ [ ",
"[ [ [ [ [ [ [ [ [ [ [ [ [ [ [ 3 3 3 3 X   B M m j C P - > , i.s.c.i.J , - g P m N A ' f   3 3 3 3 H [ [ [ [ [ [ [ [ [ [ [ [ [ [ ",
"[ [ [ [ [ [ [ [ [ [ [ [ [ [ [ [ [ [ [ 3   m m m m D Y       c.c.c.c.z     , Y m N A ' f   [ [ [ [ [ [ [ [ [ [ [ [ [ [ [ [ [ [ [ ",
"[ [ [ [ [ [ [ [ [ [ [ [ [ [ [ [ [ [ [ 3   c.i.Y Y i.c.b.f.X.c.c.c.c.v.b.X.0.c.Y Y Y c.z   [ [ [ [ [ [ [ [ [ [ [ [ [ [ [ [ [ [ [ ",
"[ [ [ [ [ [ [ [ [ [ [ [ [ [ [ [ [ [ [ 3   c.i.Y i.s.c.l.6.o.c.c.c.c.x.l.o.e.c.i.u.Y c.z   [ [ [ [ [ [ [ [ [ [ [ [ [ [ [ [ [ [ [ ",
"[ [ [ [ [ [ [ [ [ [ [ [ [ [ [ [ [ [ [ 3   c.i.Y c.c.c.5.>.-.c.c.c.c.j.5.-.g.c.c.i.Y c.z   [ [ [ [ [ [ [ [ [ [ [ [ [ [ [ [ [ [ [ ",
"[ [ [ [ [ [ [ [ [ [ [ [ [ [ [ [ [ [ [ 3   Y i.c.c.c.c.7.7.7.c.c.c.c.k.7.7.k.c.c.c.c.Y ,   [ [ [ [ [ [ [ [ [ [ [ [ [ [ [ [ [ [ [ ",
"[ [ [ [ [ [ [ [ [ [ [ [ [ [ [ [ [ [ [ H 3 , L c.a.a.a.k.k.k.c.c.c.c.z.k.k.p.a.a.d.c., 6 3 [ [ [ [ [ [ [ [ [ [ [ [ [ [ [ [ [ [ [ ",
"[ [ [ [ [ [ [ [ [ [ [ [ [ [ [ [ [ [ [ [ [   z c.y.y.y.c.c.c.c.c.c.c.c.c.c.a.y.y.a.c.  3 [ [ [ [ [ [ [ [ [ [ [ [ [ [ [ [ [ [ [ [ ",
"[ [ [ [ [ [ [ [ [ [ [ [ [ [ [ [ [ [ [ [ [ [ 3   c.c.c.c.c.c.c.c.c.c.c.c.c.c.c.c.z   [ [ [ [ [ [ [ [ [ [ [ [ [ [ [ [ [ [ [ [ [ [ ",
"[ [ [ [ [ [ [ [ [ [ [ [ [ [ [ [ [ [ [ [ [ [ H 3 z t.c.c.c.c.c.c.c.c.c.c.c.c.c.z y 3 [ [ [ [ [ [ [ [ [ [ [ [ [ [ [ [ [ [ [ [ [ [ ",
"[ [ [ [ [ [ [ [ [ [ [ [ [ [ [ [ [ [ [ [ [ [ [ [   z c.c.c.c.c.c.c.c.c.c.c.c.c.  3 [ [ [ [ [ [ [ [ [ [ [ [ [ [ [ [ [ [ [ [ [ [ [ ",
"[ [ [ [ [ [ [ [ [ [ [ [ [ [ [ [ [ [ [ [ [ [ [ [ [ 3         Y Y Y Y ,         [ [ [ [ [ [ [ [ [ [ [ [ [ [ [ [ [ [ [ [ [ [ [ [ [ ",
"[ [ [ [ [ [ [ [ [ [ [ [ [ [ [ [ [ [ [ [ [ [ [ [ 3 X   9 9 9 w.q.9.w.*.9 9 o   3 H [ [ [ [ [ [ [ [ [ [ [ [ [ [ [ [ [ [ [ [ [ [ [ ",
"[ [ [ [ [ [ [ [ [ [ [ [ [ [ [ [ [ [ [ [ [ [ [ [       <.<.<.<.;.-.<.<.<.<.9     3 [ [ [ [ [ [ [ [ [ [ [ [ [ [ [ [ [ [ [ [ [ [ [ ",
"[ [ [ [ [ [ [ [ [ [ [ [ [ [ [ [ [ [ [ [ [ [ 3   <.;.-.5.5.5.<.+.8 5.5.5.5.>.-.<.9   [ [ [ [ [ [ [ [ [ [ [ [ [ [ [ [ [ [ [ [ [ [ ",
"[ [ [ [ [ [ [ [ [ [ [ [ [ [ [ [ [ [ [ [ [ [ 3   <.;.-.5.5.5.<.#.O.5.5.5.5.>.-.<.9   [ [ [ [ [ [ [ [ [ [ [ [ [ [ [ [ [ [ [ [ [ [ ",
"[ [ [ [ [ [ [ [ [ [ [ [ [ [ [ [ [ [ [ [ [ [ 3   <.;.-.5.5.5.<.;.-.5.5.5.5.>.-.<.9   [ [ [ [ [ [ [ [ [ [ [ [ [ [ [ [ [ [ [ [ [ [ ",
"[ [ [ [ [ [ [ [ [ [ [ [ [ [ [ [ [ [ [ [ [ [ 3   <.;.-.5.5.5.<.+.8 5.5.5.5.>.-.<.9   [ [ [ [ [ [ [ [ [ [ [ [ [ [ [ [ [ [ [ [ [ [ ",
"[ [ [ [ [ [ [ [ [ [ [ [ [ [ [ [ [ [ [ [ [ [ 3   3.:.-.3.4.5.3.%.O.5.5.5.5.>.-.3.q   [ [ [ [ [ [ [ [ [ [ [ [ [ [ [ [ [ [ [ [ [ [ ",
"[ [ [ [ [ [ [ [ [ [ [ [ [ [ [ [ [ [ [ [ [ [ 3   5.>.-.<.3.5.5.>.-.5.5.5.5.>.-.5.w   [ [ [ [ [ [ [ [ [ [ [ [ [ [ [ [ [ [ [ [ [ [ ",
"[ [ [ [ [ [ [ [ [ [ [ [ [ [ [ [ [ [ [ [ [ [ 3   5.>.-.<.3.5.5.$.8 <.3.5.5.>.-.5.w   [ [ [ [ [ [ [ [ [ [ [ [ [ [ [ [ [ [ [ [ [ [ ",
"[ [ [ [ [ [ [ [ [ [ [ [ [ [ [ [ [ [ [ [ [ [ 3   r.1.;.<.,.3.5.&.O.<.,.3.5.2.>.r.t   [ [ [ [ [ [ [ [ [ [ [ [ [ [ [ [ [ [ [ [ [ [ ",
"[ [ [ [ [ [ [ [ [ [ [ [ [ [ [ [ [ [ [ [ [ [ 3   Y w.<.<.<.<.5.>.-.<.<.<.5.5.5.Y ,   [ [ [ [ [ [ [ [ [ [ [ [ [ [ [ [ [ [ [ [ [ [ ",
"[ [ [ [ [ [ [ [ [ [ [ [ [ [ [ [ [ [ [ [ [ [ 3   b.h.<.<.<.<.<.+.8 <.<.<.<.<.<.b.8.  [ [ [ [ [ [ [ [ [ [ [ [ [ [ [ [ [ [ [ [ [ [ ",
"[ [ [ [ [ [ [ [ [ [ [ [ [ [ [ [ [ [ [ [ [ [ H 3 8.=.@.@.@.@.@.e 0 @.@.@.@.@.@.8.i 3 [ [ [ [ [ [ [ [ [ [ [ [ [ [ [ [ [ [ [ [ [ [ ",
"[ [ [ [ [ [ [ [ [ [ [ [ [ [ [ [ [ [ [ [ [ [ [ [   . $ $ $ $ $ $ $ $ $ $ $ $ $   3 [ [ [ [ [ [ [ [ [ [ [ [ [ [ [ [ [ [ [ [ [ [ [ ",
"[ [ [ [ [ [ [ [ [ [ [ [ [ [ [ [ [ [ [ [ [ [ [ [   . $ $ & = = = = = = = = & $   3 [ [ [ [ [ [ [ [ [ [ [ [ [ [ [ [ [ [ [ [ [ [ [ ",
"[ [ [ [ [ [ [ [ [ [ [ [ [ [ [ [ [ [ [ [ [ [ [ [   . $ & * = # # # # % = = * &   3 [ [ [ [ [ [ [ [ [ [ [ [ [ [ [ [ [ [ [ [ [ [ [ ",
"[ [ [ [ [ [ [ [ [ [ [ [ [ [ [ [ [ [ [ [ [ [ [ [   . $ = = =         # = = = =   3 [ [ [ [ [ [ [ [ [ [ [ [ [ [ [ [ [ [ [ [ [ [ [ ",
"[ [ [ [ [ [ [ [ [ [ [ [ [ [ [ [ [ [ [ [ [ [ [ [   . $ = = =   3 [   # = = = =   3 [ [ [ [ [ [ [ [ [ [ [ [ [ [ [ [ [ [ [ [ [ [ [ ",
"[ [ [ [ [ [ [ [ [ [ [ [ [ [ [ [ [ [ [ [ [ [ [ [   . $ = = =   3 [   # = = = =   3 [ [ [ [ [ [ [ [ [ [ [ [ [ [ [ [ [ [ [ [ [ [ [ ",
"[ [ [ [ [ [ [ [ [ [ [ [ [ [ [ [ [ [ [ [ [ [ [ [   . $ = = =   3 [   # = = = =   3 [ [ [ [ [ [ [ [ [ [ [ [ [ [ [ [ [ [ [ [ [ [ [ ",
"[ [ [ [ [ [ [ [ [ [ [ [ [ [ [ [ [ [ [ [ [ [ ) W   O r u u u   < K   + u u u u   5 ) [ [ [ [ [ [ [ [ [ [ [ [ [ [ [ [ [ [ [ [ [ [ ",
"[ [ [ [ [ [ [ [ [ [ [ [ [ [ [ [ [ [ [ [ [ Q ! K < ; O + + + < F K < : + + + + < F K R [ [ [ [ [ [ [ [ [ [ [ [ [ [ [ [ [ [ [ [ [ ",
"[ [ [ [ [ [ [ [ [ [ [ [ [ [ [ [ [ [ [ [ ( R K K K <         K K K K <         K K ! E [ [ [ [ [ [ [ [ [ [ [ [ [ [ [ [ [ [ [ [ [ ",
"[ [ [ [ [ [ [ [ [ [ [ [ [ [ [ [ [ [ [ [ [ [ ) W Q R ~ ~ ! K K ! K K ! ! ~ / / Q W ) [ [ [ [ [ [ [ [ [ [ [ [ [ [ [ [ [ [ [ [ [ [ ",
"[ [ [ [ [ [ [ [ [ [ [ [ [ [ [ [ [ [ [ [ [ [ [ [ [ [ [ [ [ [ [ [ [ [ [ [ [ [ [ [ [ [ [ [ [ [ [ [ [ [ [ [ [ [ [ [ [ [ [ [ [ [ [ [ ",
"[ [ [ [ [ [ [ [ [ [ [ [ [ [ [ [ [ [ [ [ [ [ [ [ [ [ [ [ [ [ [ [ [ [ [ [ [ [ [ [ [ [ [ [ [ [ [ [ [ [ [ [ [ [ [ [ [ [ [ [ [ [ [ [ ",
"[ [ [ [ [ [ [ [ [ [ [ [ [ [ [ [ [ [ [ [ [ [ [ [ [ [ [ [ [ [ [ [ [ [ [ [ [ [ [ [ [ [ [ [ [ [ [ [ [ [ [ [ [ [ [ [ [ [ [ [ [ [ [ [ ",
"[ [ [ [ [ [ [ [ [ [ [ [ [ [ [ [ [ [ [ [ [ [ [ [ [ [ [ [ [ [ [ [ [ [ [ [ [ [ [ [ [ [ [ [ [ [ [ [ [ [ [ [ [ [ [ [ [ [ [ [ [ [ [ [ ",
"[ [ [ [ [ [ [ [ [ [ [ [ [ [ [ [ [ [ [ [ [ [ [ [ [ [ [ [ [ [ [ [ [ [ [ [ [ [ [ [ [ [ [ [ [ [ [ [ [ [ [ [ [ [ [ [ [ [ [ [ [ [ [ [ ",
"[ [ [ [ [ [ [ [ [ [ [ [ [ [ [ [ [ [ [ [ [ [ [ [ [ [ [ [ [ [ [ [ [ [ [ [ [ [ [ [ [ [ [ [ [ [ [ [ [ [ [ [ [ [ [ [ [ [ [ [ [ [ [ [ ",
"[ [ [ [ [ [ [ [ [ [ [ [ [ [ [ [ [ [ [ [ [ [ [ [ [ [ [ [ [ [ [ [ [ [ [ [ [ [ [ [ [ [ [ [ [ [ [ [ [ [ [ [ [ [ [ [ [ [ [ [ [ [ [ [ "
};
