/* XPM */
static char *_f7ec9d396184662e14e51bd08f21346lBj343SjvVMgoWfF[] = {
/* columns rows colors chars-per-pixel */
"64 64 12 1 ",
"  c #997333",
". c #A17C39",
"X c #588369",
"o c #5C876C",
"O c #608B6F",
"+ c #689475",
"@ c #A9843F",
"# c #B9954A",
"$ c #CDAB58",
"% c #C4E053",
"& c #12D1C8",
"* c #8CDBCB",
/* pixels */
"%%%%%%%%%%%%%%%%%%%%%%%%%%%%%%%%%%%%%%%%%%%%%%%%%%%%%%%%%%%%%%%%",
"%%%%%%%%%%%%%%%%%%%%%%%%%%%%%%%%%%%%%%%%%%%%%%%%%%%%%%%%%%%%%%%%",
"%%%%%%%%%%%%%%%%%%%%%%%%%%%%%%%%%%%%%%%%%%%%%%%%%%%%%%%%%%%%%%%%",
"%%%%%%%%%%%%%%%%%%%%%%%%%%%%%%%%%%%%%%%%%%%%%%%%%%%%%%%%%%%%%%%%",
"%%%%%%%%%%%%%%%%%%%%%%%%%%%%%%%%%%%%%%%%%%%%%%%%%%%%%%%%%%%%%%%%",
"%%%%%%%%%%%%%%%%%%%%%%%%%%%%%%%%%%%%%%%%%%%%%%%%%%%%%%%%%%%%%%%%",
"%%%%%%%%%%%%%%%%%%%%%%%%%%%%%%%%%%%%%%%%%%%%%%%%%%%%%%%%%%%%%%%%",
"%%%%%%%%%%%%%%%%%%%%%%%%%%%%%%%%%%%%%%%%%%%%%%%%%%%%%%%%%%%%%%%%",
"%%%%%%%%%%%%%%%%%%%%%%%%%%%%%%%%%%%%%%%%%%%%%%%%%%%%%%%%%%%%%%%%",
"%%%%%%%%%%%%%%%%%%%%%%%%%%%%%%%%%%%%%%%%%%%%%%%%%%%%%%%%%%%%%%%%",
"%%%%%%%%%%%%%%%%%%%%%%%%%%%%%%%%@@%%%%%%%%%%%%%%%%@@%%%%%%%%%%%%",
"%%%%%%%%%%%%%%%%%%%%%%%%%%%%%%%%@@%%%%%%%%%%%%%%%%@@%%%%%%%%%%%%",
"%%%%%%%%%%%%%%%%%%%%%%%%%%@@%%@@%%..%%##%%##%%##@@@@@@%%%%##%%@@",
"%%%%%%%%%%%%%%%%%%%%%%%%%%@@%%@@%%..%%##%%##%%##@@@@@@%%%%##%%@@",
"%%##..%%..%%%%%%%%%%%%##%%%%####..##..%%##%%######..##..%%%%##..",
"%%##..%%..%%%%%%%%%%%%##%%%%####..##..%%##%%######..##..%%%%##..",
"....####%%%%%%####%%##%%########  ################  ..$$########",
"....####%%%%%%####%%##%%########  ################  ..$$########",
"    ######%%####%%##############  ..############$$  ..@@$$$$####",
"    ######%%####%%##############  ..############$$  ..@@$$$$####",
"    ..$$####################$$..  ....$$$$####$$..  ..@@@@####  ",
"    ..$$####################$$..  ....$$$$####$$..  ..@@@@####  ",
"    ....##############$$$$@@@@..  ......@@@@@@....****@@@@@@..  ",
"    ....##############$$$$@@@@..  ......@@@@@@....****@@@@@@..  ",
"******....$$########$$@@@@@@@@******....@@@@@@..**XXXX**@@@@..**",
"******....$$########$$@@@@@@@@******....@@@@@@..**XXXX**@@@@..**",
"XXXXXX**....$$$$$$$$@@@@@@****++++++************ooooXXOO******XX",
"XXXXXX**....$$$$$$$$@@@@@@****++++++************ooooXXOO******XX",
"++++XXoo**..@@@@@@@@@@****++++++++++++++++OOOOooXX++++++++++++++",
"++++XXoo**..@@@@@@@@@@****++++++++++++++++OOOOooXX++++++++++++++",
"++++++oooo**@@@@@@@@**++++++++++++++++++++++OOoo++++++++++++++++",
"++++++oooo**@@@@@@@@**++++++++++++++++++++++OOoo++++++++++++++++",
"++++++++oooo********OO++++++++++++++++++++++OOoo++++++++++++++++",
"++++++++oooo********OO++++++++++++++++++++++OOoo++++++++++++++++",
"++++++++ooooOOOOOOOOOOXX++++++++++++++++++XXOOXXoo++++++++++++++",
"++++++++ooooOOOOOOOOOOXX++++++++++++++++++XXOOXXoo++++++++++++++",
"++++++XXooooOOOOOOOOOOXXoo++++++++++++ooooXXooXXoooooooo++++++++",
"++++++XXooooOOOOOOOOOOXXoo++++++++++++ooooXXooXXoooooooo++++++++",
"OOooooXX++++++++++++OOXXooooOOOOOOOOOOooooXXooXXoooooooooo++++++",
"OOooooXX++++++++++++OOXXooooOOOOOOOOOOooooXXooXXoooooooooo++++++",
"OOoooo++++++++++++++++XXooooOOOOOOOOOOooooXX++++++ooooooooOOOOOO",
"OOoooo++++++++++++++++XXooooOOOOOOOOOOooooXX++++++ooooooooOOOOOO",
"oooooo++++++++++++++++XXooooOOOOOOOOOOoooo++++++++++ooooooOOOOOO",
"oooooo++++++++++++++++XXooooOOOOOOOOOOoooo++++++++++ooooooOOOOOO",
"OOooXXoo++++++++++++XXXXXXoo++++++++OOoooo++++++++XXooooooooOOOO",
"OOooXXoo++++++++++++XXXXXXoo++++++++OOoooo++++++++XXooooooooOOOO",
"OOooXXooOO++++++++ooXXXXXX++++++++++++ooooXX++++OOXXooXXXXOOOOOO",
"OOooXXooOO++++++++ooXXXXXX++++++++++++ooooXX++++OOXXooXXXXOOOOOO",
"XXXX&&XXXXooooooooXXXX&&XXOO++++++++OO&&ooXXOOOOOOXXoo&&&&XXXXXX",
"XXXX&&XXXXooooooooXXXX&&XXOO++++++++OO&&ooXXOOOOOOXXoo&&&&XXXXXX",
"&&&&&&&&&&XXXXXXXX&&&&&&&&ooOO++++OOOO&&&&XXooOOooXX&&&&&&&&&&&&",
"&&&&&&&&&&XXXXXXXX&&&&&&&&ooOO++++OOOO&&&&XXooOOooXX&&&&&&&&&&&&",
"&&&&&&&&&&&&&&&&&&&&&&&&&&XXooOOOOooXX&&&&&&&&&&&&&&&&&&&&&&&&&&",
"&&&&&&&&&&&&&&&&&&&&&&&&&&XXooOOOOooXX&&&&&&&&&&&&&&&&&&&&&&&&&&",
"&&&&&&&&&&&&&&&&&&&&&&&&&&&&ooOOOOoo&&&&&&&&&&&&&&&&&&&&&&&&&&&&",
"&&&&&&&&&&&&&&&&&&&&&&&&&&&&ooOOOOoo&&&&&&&&&&&&&&&&&&&&&&&&&&&&",
"&&&&&&&&&&&&&&&&&&&&&&&&&&&&&&&&&&&&&&&&&&&&&&&&&&&&&&&&&&&&&&&&",
"&&&&&&&&&&&&&&&&&&&&&&&&&&&&&&&&&&&&&&&&&&&&&&&&&&&&&&&&&&&&&&&&",
"&&&&&&&&&&&&&&&&&&&&&&&&&&&&&&&&&&&&&&&&&&&&&&&&&&&&&&&&&&&&&&&&",
"&&&&&&&&&&&&&&&&&&&&&&&&&&&&&&&&&&&&&&&&&&&&&&&&&&&&&&&&&&&&&&&&",
"&&&&&&&&&&&&&&&&&&&&&&&&&&&&&&&&&&&&&&&&&&&&&&&&&&&&&&&&&&&&&&&&",
"&&&&&&&&&&&&&&&&&&&&&&&&&&&&&&&&&&&&&&&&&&&&&&&&&&&&&&&&&&&&&&&&",
"&&&&&&&&&&&&&&&&&&&&&&&&&&&&&&&&&&&&&&&&&&&&&&&&&&&&&&&&&&&&&&&&",
"&&&&&&&&&&&&&&&&&&&&&&&&&&&&&&&&&&&&&&&&&&&&&&&&&&&&&&&&&&&&&&&&"
};
