/* XPM */
static char *fc4b84c294194d278580d23e45c0d552lo7xe4iQtJfaOSNP[] = {
/* columns rows colors chars-per-pixel */
"64 64 12 1 ",
"  c #997333",
". c #A17C39",
"X c #588369",
"o c #5C876C",
"O c #608B6F",
"+ c #689475",
"@ c #A9843F",
"# c #B9954A",
"$ c #CDAB58",
"% c #C4E053",
"& c #12D1C8",
"* c #8CDBCB",
/* pixels */
"&&&&&&&&&&OO++++++OO**########....%%..%%%%%%%%%%%%%%%%%%%%%%%%%%",
"&&&&&&&&&&OO++++++OO**########....%%..%%%%%%%%%%%%%%%%%%%%%%%%%%",
"&&&&&&&&&&ooOOOOOOOO**$$##########%%%%%%%%%%%%%%%%%%%%%%%%%%%%%%",
"&&&&&&&&&&ooOOOOOOOO**$$##########%%%%%%%%%%%%%%%%%%%%%%%%%%%%%%",
"&&&&&&&&&&&&oooooooo**$$############..%%%%%%%%%%%%%%%%%%%%%%%%%%",
"&&&&&&&&&&&&oooooooo**$$############..%%%%%%%%%%%%%%%%%%%%%%%%%%",
"&&&&&&&&&&&&++++++++**@@##$$$$####%%%%%%..%%%%%%%%%%%%%%%%%%%%%%",
"&&&&&&&&&&&&++++++++**@@##$$$$####%%%%%%..%%%%%%%%%%%%%%%%%%%%%%",
"&&&&&&&&&&++++++++++**@@@@@@@@..####%%##%%%%%%%%%%%%%%%%%%%%%%%%",
"&&&&&&&&&&++++++++++**@@@@@@@@..####%%##%%%%%%%%%%%%%%%%%%%%%%%%",
"&&&&&&&&OO++++++++++++**@@@@@@..######%%##%%##%%%%%%%%%%%%%%%%%%",
"&&&&&&&&OO++++++++++++**@@@@@@..######%%##%%##%%%%%%%%%%%%%%%%%%",
"&&&&&&&&OO++++++++OO++++******$$############%%%%%%%%%%%%%%%%%%%%",
"&&&&&&&&OO++++++++OO++++******$$############%%%%%%%%%%%%%%%%%%%%",
"&&&&&&&&OOOO++++++OOOO++++ooOO$$############%%##%%%%##%%%%%%%%##",
"&&&&&&&&OOOO++++++OOOO++++ooOO$$############%%##%%%%##%%%%%%%%##",
"&&&&&&&&ooOOOOOOooOOOOoooooo**@@$$################%%##%%%%######",
"&&&&&&&&ooOOOOOOooOOOOoooooo**@@$$################%%##%%%%######",
"&&&&&&&&&&ooOOoooo++++XXoooo**@@@@$$$$######..################..",
"&&&&&&&&&&ooOOoooo++++XXoooo**@@@@$$$$######..################..",
"&&&&&&&&&&&&oooo++++++++XXXXXX**@@@@@@$$$$@@....##############..",
"&&&&&&&&&&&&oooo++++++++XXXXXX**@@@@@@$$$$@@....##############..",
"&&&&&&&&&&&&&&&&++++++++++XXXXOO**@@@@@@@@....$$##########$$..  ",
"&&&&&&&&&&&&&&&&++++++++++XXXXOO**@@@@@@@@....$$##########$$..  ",
"&&&&&&&&&&&&&&&&++++++++++++XXOOOO****@@@@****@@$$$$$$$$$$  ..**",
"&&&&&&&&&&&&&&&&++++++++++++XXOOOO****@@@@****@@$$$$$$$$$$  ..**",
"&&&&&&&&&&&&&&&&OO++++++++++XX++++++OO****oooo@@@@@@......  **XX",
"&&&&&&&&&&&&&&&&OO++++++++++XX++++++OO****oooo@@@@@@......  **XX",
"&&&&&&&&&&&&&&&&OOOO++++++oo++++++++++OOOOoooo**@@@@......**++++",
"&&&&&&&&&&&&&&&&OOOO++++++oo++++++++++OOOOoooo**@@@@......**++++",
"&&&&&&&&&&&&&&&&OOOOOO++oo++++++++++++++++OOooOO**********++++++",
"&&&&&&&&&&&&&&&&OOOOOO++oo++++++++++++++++OOooOO**********++++++",
"&&&&&&&&&&&&&&&&&&OOOOoooo++++++++++++++++++ooOOOOoooooo++++++++",
"&&&&&&&&&&&&&&&&&&OOOOoooo++++++++++++++++++ooOOOOoooooo++++++++",
"&&&&&&&&&&&&&&&&&&&&OOooooOO++++++++++++++++ooOOOOOOoooo++++++++",
"&&&&&&&&&&&&&&&&&&&&OOooooOO++++++++++++++++ooOOOOOOoooo++++++++",
"&&&&&&&&&&&&&&&&&&&&&&&&&&OOOO++++++++++++OOooOOOOOOooooXX++++++",
"&&&&&&&&&&&&&&&&&&&&&&&&&&OOOO++++++++++++OOooOOOOOOooooXX++++++",
"&&&&&&&&&&&&&&&&&&&&&&&&&&OOOOOO++++++++XXOO++++++++++++XXooooOO",
"&&&&&&&&&&&&&&&&&&&&&&&&&&OOOOOO++++++++XXOO++++++++++++XXooooOO",
"&&&&&&&&&&&&&&&&&&&&&&&&&&OOOOOOOOOOooooXX++++++++++++++++ooooOO",
"&&&&&&&&&&&&&&&&&&&&&&&&&&OOOOOOOOOOooooXX++++++++++++++++ooooOO",
"&&&&&&&&&&&&&&&&&&&&&&&&&&&&OOOOOOOOooooXX++++++++++++++++oooooo",
"&&&&&&&&&&&&&&&&&&&&&&&&&&&&OOOOOOOOooooXX++++++++++++++++oooooo",
"&&&&&&&&&&&&&&&&&&&&&&&&&&&&&&&&OOOOooXXXXXX++++++++++++ooXXooOO",
"&&&&&&&&&&&&&&&&&&&&&&&&&&&&&&&&OOOOooXXXXXX++++++++++++ooXXooOO",
"&&&&&&&&&&&&&&&&&&&&&&&&&&&&&&&&&&&&&&&&XXXXoo++++++++OOooXXooOO",
"&&&&&&&&&&&&&&&&&&&&&&&&&&&&&&&&&&&&&&&&XXXXoo++++++++OOooXXooOO",
"&&&&&&&&&&&&&&&&&&&&&&&&&&&&&&&&&&&&&&&&&&XXXXooooooooXXXX&&XXXX",
"&&&&&&&&&&&&&&&&&&&&&&&&&&&&&&&&&&&&&&&&&&XXXXooooooooXXXX&&XXXX",
"&&&&&&&&&&&&&&&&&&&&&&&&&&&&&&&&&&&&&&&&&&&&&&XXXXXXXX&&&&&&&&&&",
"&&&&&&&&&&&&&&&&&&&&&&&&&&&&&&&&&&&&&&&&&&&&&&XXXXXXXX&&&&&&&&&&",
"&&&&&&&&&&&&&&&&&&&&&&&&&&&&&&&&&&&&&&&&&&&&&&&&&&&&&&&&&&&&&&&&",
"&&&&&&&&&&&&&&&&&&&&&&&&&&&&&&&&&&&&&&&&&&&&&&&&&&&&&&&&&&&&&&&&",
"&&&&&&&&&&&&&&&&&&&&&&&&&&&&&&&&&&&&&&&&&&&&&&&&&&&&&&&&&&&&&&&&",
"&&&&&&&&&&&&&&&&&&&&&&&&&&&&&&&&&&&&&&&&&&&&&&&&&&&&&&&&&&&&&&&&",
"&&&&&&&&&&&&&&&&&&&&&&&&&&&&&&&&&&&&&&&&&&&&&&&&&&&&&&&&&&&&&&&&",
"&&&&&&&&&&&&&&&&&&&&&&&&&&&&&&&&&&&&&&&&&&&&&&&&&&&&&&&&&&&&&&&&",
"&&&&&&&&&&&&&&&&&&&&&&&&&&&&&&&&&&&&&&&&&&&&&&&&&&&&&&&&&&&&&&&&",
"&&&&&&&&&&&&&&&&&&&&&&&&&&&&&&&&&&&&&&&&&&&&&&&&&&&&&&&&&&&&&&&&",
"&&&&&&&&&&&&&&&&&&&&&&&&&&&&&&&&&&&&&&&&&&&&&&&&&&&&&&&&&&&&&&&&",
"&&&&&&&&&&&&&&&&&&&&&&&&&&&&&&&&&&&&&&&&&&&&&&&&&&&&&&&&&&&&&&&&",
"&&&&&&&&&&&&&&&&&&&&&&&&&&&&&&&&&&&&&&&&&&&&&&&&&&&&&&&&&&&&&&&&",
"&&&&&&&&&&&&&&&&&&&&&&&&&&&&&&&&&&&&&&&&&&&&&&&&&&&&&&&&&&&&&&&&"
};
