/* XPM */
static char *_d7e8173bede4b65f67241cf8f770255IKuUYME5BHjeHmqk[] = {
/* columns rows colors chars-per-pixel */
"64 64 12 1 ",
"  c #997333",
". c #A17C39",
"X c #588369",
"o c #5C876C",
"O c #608B6F",
"+ c #689475",
"@ c #A9843F",
"# c #B9954A",
"$ c #CDAB58",
"% c #C4E053",
"& c #12D1C8",
"* c #8CDBCB",
/* pixels */
"%%%%%%%%%%%%%%%%%%%%%%%%%%..%%....########@@**++++++OO&&&&&&&&&&",
"%%%%%%%%%%%%%%%%%%%%%%%%%%..%%....########@@**++++++OO&&&&&&&&&&",
"%%%%%%%%%%%%%%%%%%%%%%%%%%%%%%##########$$@@**OOOOOOoo&&&&&&&&&&",
"%%%%%%%%%%%%%%%%%%%%%%%%%%%%%%##########$$@@**OOOOOOoo&&&&&&&&&&",
"%%%%%%%%%%%%%%%%%%%%%%%%%%..############$$##**oooooo&&&&&&&&&&&&",
"%%%%%%%%%%%%%%%%%%%%%%%%%%..############$$##**oooooo&&&&&&&&&&&&",
"%%%%%%%%%%%%%%%%%%%%%%%%%%%%%%####$$$$##@@##**++++++&&&&&&&&&&&&",
"%%%%%%%%%%%%%%%%%%%%%%%%%%%%%%####$$$$##@@##**++++++&&&&&&&&&&&&",
"%%%%%%%%%%%%%%%%%%%%%%%%##%%####..@@@@@@@@**++++++++++&&&&&&&&&&",
"%%%%%%%%%%%%%%%%%%%%%%%%##%%####..@@@@@@@@**++++++++++&&&&&&&&&&",
"%%%%%%%%%%%%%%%%%%%%%%##%%######..@@@@@@**++++++++++++OO&&&&&&&&",
"%%%%%%%%%%%%%%%%%%%%%%##%%######..@@@@@@**++++++++++++OO&&&&&&&&",
"%%%%%%%%%%%%%%%%%%%%############$$******++++OO++++++++OO&&&&&&&&",
"%%%%%%%%%%%%%%%%%%%%############$$******++++OO++++++++OO&&&&&&&&",
"##%%%%%%%%##%%%%##%%############$$OOoo++++OOOO++++++OOOO&&&&&&&&",
"##%%%%%%%%##%%%%##%%############$$OOoo++++OOOO++++++OOOO&&&&&&&&",
"######%%%%##%%################$$@@**ooooooOOOOooOOOOOOoo&&&&&&&&",
"######%%%%##%%################$$@@**ooooooOOOOooOOOOOOoo&&&&&&&&",
"..################..######$$$$@@@@**ooooXX++++ooooOOoo&&&&&&&&&&",
"..################..######$$$$@@@@**ooooXX++++ooooOOoo&&&&&&&&&&",
"..##############....@@$$$$@@@@@@**XXXXXX++++++++oooo&&&&&&&&&&&&",
"..##############....@@$$$$@@@@@@**XXXXXX++++++++oooo&&&&&&&&&&&&",
"....$$##########$$....@@@@@@@@**OOXXXX++++++++++&&&&&&&&&&&&&&&&",
"....$$##########$$....@@@@@@@@**OOXXXX++++++++++&&&&&&&&&&&&&&&&",
"**..  $$$$$$$$$$@@....@@@@****OOOOXX++++++++++++&&&&&&&&&&&&&&&&",
"**..  $$$$$$$$$$@@....@@@@****OOOOXX++++++++++++&&&&&&&&&&&&&&&&",
"oo**  ......@@@@@@********OO++++++XX++++++++++OO&&&&&&&&&&&&&&&&",
"oo**  ......@@@@@@********OO++++++XX++++++++++OO&&&&&&&&&&&&&&&&",
"++++**......@@@@**ooooOOOO++++++++++oo++++++OOOO&&&&&&&&&&&&&&&&",
"++++**......@@@@**ooooOOOO++++++++++oo++++++OOOO&&&&&&&&&&&&&&&&",
"++++++**********OOooOO++++++++++++++++oo++OOOOOO&&&&&&&&&&&&&&&&",
"++++++**********OOooOO++++++++++++++++oo++OOOOOO&&&&&&&&&&&&&&&&",
"++++++++ooooooOOOOoo++++++++++++++++++ooooOOOO&&&&&&&&&&&&&&&&&&",
"++++++++ooooooOOOOoo++++++++++++++++++ooooOOOO&&&&&&&&&&&&&&&&&&",
"++++++++ooooOOOOOOoo++++++++++++++++OOooooOO&&&&&&&&&&&&&&&&&&&&",
"++++++++ooooOOOOOOoo++++++++++++++++OOooooOO&&&&&&&&&&&&&&&&&&&&",
"++++++XXooooOOOOOOooOO++++++++++++OOOO&&&&&&&&&&&&&&&&&&&&&&&&&&",
"++++++XXooooOOOOOOooOO++++++++++++OOOO&&&&&&&&&&&&&&&&&&&&&&&&&&",
"OOooooXX++++++++++++OOXX++++++++OOOOOO&&&&&&&&&&&&&&&&&&&&&&&&&&",
"OOooooXX++++++++++++OOXX++++++++OOOOOO&&&&&&&&&&&&&&&&&&&&&&&&&&",
"OOoooo++++++++++++++++XXooooOOOOOOOOOO&&&&&&&&&&&&&&&&&&&&&&&&&&",
"OOoooo++++++++++++++++XXooooOOOOOOOOOO&&&&&&&&&&&&&&&&&&&&&&&&&&",
"oooooo++++++++++++++++XXooooOOOOOOOO&&&&&&&&&&&&&&&&&&&&&&&&&&&&",
"oooooo++++++++++++++++XXooooOOOOOOOO&&&&&&&&&&&&&&&&&&&&&&&&&&&&",
"OOooXXoo++++++++++++XXXXXXooOOOO&&&&&&&&&&&&&&&&&&&&&&&&&&&&&&&&",
"OOooXXoo++++++++++++XXXXXXooOOOO&&&&&&&&&&&&&&&&&&&&&&&&&&&&&&&&",
"OOooXXooOO++++++++ooXXXX&&&&&&&&&&&&&&&&&&&&&&&&&&&&&&&&&&&&&&&&",
"OOooXXooOO++++++++ooXXXX&&&&&&&&&&&&&&&&&&&&&&&&&&&&&&&&&&&&&&&&",
"XXXX&&XXXXooooooooXXXX&&&&&&&&&&&&&&&&&&&&&&&&&&&&&&&&&&&&&&&&&&",
"XXXX&&XXXXooooooooXXXX&&&&&&&&&&&&&&&&&&&&&&&&&&&&&&&&&&&&&&&&&&",
"&&&&&&&&&&XXXXXXXX&&&&&&&&&&&&&&&&&&&&&&&&&&&&&&&&&&&&&&&&&&&&&&",
"&&&&&&&&&&XXXXXXXX&&&&&&&&&&&&&&&&&&&&&&&&&&&&&&&&&&&&&&&&&&&&&&",
"&&&&&&&&&&&&&&&&&&&&&&&&&&&&&&&&&&&&&&&&&&&&&&&&&&&&&&&&&&&&&&&&",
"&&&&&&&&&&&&&&&&&&&&&&&&&&&&&&&&&&&&&&&&&&&&&&&&&&&&&&&&&&&&&&&&",
"&&&&&&&&&&&&&&&&&&&&&&&&&&&&&&&&&&&&&&&&&&&&&&&&&&&&&&&&&&&&&&&&",
"&&&&&&&&&&&&&&&&&&&&&&&&&&&&&&&&&&&&&&&&&&&&&&&&&&&&&&&&&&&&&&&&",
"&&&&&&&&&&&&&&&&&&&&&&&&&&&&&&&&&&&&&&&&&&&&&&&&&&&&&&&&&&&&&&&&",
"&&&&&&&&&&&&&&&&&&&&&&&&&&&&&&&&&&&&&&&&&&&&&&&&&&&&&&&&&&&&&&&&",
"&&&&&&&&&&&&&&&&&&&&&&&&&&&&&&&&&&&&&&&&&&&&&&&&&&&&&&&&&&&&&&&&",
"&&&&&&&&&&&&&&&&&&&&&&&&&&&&&&&&&&&&&&&&&&&&&&&&&&&&&&&&&&&&&&&&",
"&&&&&&&&&&&&&&&&&&&&&&&&&&&&&&&&&&&&&&&&&&&&&&&&&&&&&&&&&&&&&&&&",
"&&&&&&&&&&&&&&&&&&&&&&&&&&&&&&&&&&&&&&&&&&&&&&&&&&&&&&&&&&&&&&&&",
"&&&&&&&&&&&&&&&&&&&&&&&&&&&&&&&&&&&&&&&&&&&&&&&&&&&&&&&&&&&&&&&&",
"&&&&&&&&&&&&&&&&&&&&&&&&&&&&&&&&&&&&&&&&&&&&&&&&&&&&&&&&&&&&&&&&"
};
