/* XPM */
static char *_cc3b3168336401faea605ad2a2e59a98gxrEaIP2XJtRGIw[] = {
/* columns rows colors chars-per-pixel */
"64 64 13 1 ",
"  c #997333",
". c #A17C39",
"X c #588369",
"o c #5C876C",
"O c #608B6F",
"+ c #689475",
"@ c #729F7C",
"# c #A9843F",
"$ c #B9954A",
"% c #CDAB58",
"& c #C4E053",
"* c #12D1C8",
"= c #8CDBCB",
/* pixels */
"**********OO++++++==##$$$$$$&&&&&&&&&&&&&&&&&&&&&&&&&&&&&&&&&&&&",
"**********OO++++++==##$$$$$$&&&&&&&&&&&&&&&&&&&&&&&&&&&&&&&&&&&&",
"**********ooOO++++==##$$$$&&&&&&&&&&&&&&&&&&&&&&&&&&&&&&&&&&&&&&",
"**********ooOO++++==##$$$$&&&&&&&&&&&&&&&&&&&&&&&&&&&&&&&&&&&&&&",
"**********ooooOO==####%%$$$$&&&&&&&&&&&&&&&&&&&&&&&&&&&&&&&&&&&&",
"**********ooooOO==####%%$$$$&&&&&&&&&&&&&&&&&&&&&&&&&&&&&&&&&&&&",
"************oooo==####%%$$$$&&&&&&&&&&&&&&&&&&&&&&&&&&&&&&&&&&&&",
"************oooo==####%%$$$$&&&&&&&&&&&&&&&&&&&&&&&&&&&&&&&&&&&&",
"**************oo==####..%%$$&&$$&&&&&&&&&&&&&&&&&&&&&&&&&&&&&&&&",
"**************oo==####..%%$$&&$$&&&&&&&&&&&&&&&&&&&&&&&&&&&&&&&&",
"******************==....%%$$$$&&&&&&&&&&&&&&&&&&&&&&&&&&&&&&&&&&",
"******************==....%%$$$$&&&&&&&&&&&&&&&&&&&&&&&&&&&&&&&&&&",
"****************++==....  $$&&&&&&&&&&&&&&&&&&&&&&&&&&&&&&&&&&&&",
"****************++==....  $$&&&&&&&&&&&&&&&&&&&&&&&&&&&&&&&&&&&&",
"**************@@++++==..  $$&&&&&&&&&&&&&&&&&&&&&&&&&&&&&&&&&&&&",
"**************@@++++==..  $$&&&&&&&&&&&&&&&&&&&&&&&&&&&&&&&&&&&&",
"**************++++++==..  $$&&$$&&&&&&&&&&&&&&&&&&&&&&&&&&&&&&&&",
"**************++++++==..  $$&&$$&&&&&&&&&&&&&&&&&&&&&&&&&&&&&&&&",
"************@@++++++==..$$$$&&&&&&&&&&&&&&&&&&&&&&&&&&&&&&&&&&&&",
"************@@++++++==..$$$$&&&&&&&&&&&&&&&&&&&&&&&&&&&&&&&&&&&&",
"**********@@++++++++==$$$$$$$$&&&&$$&&&&&&&&&&&&&&&&&&&&&&&&&&&&",
"**********@@++++++++==$$$$$$$$&&&&$$&&&&&&&&&&&&&&&&&&&&&&&&&&&&",
"**********++++++++==$$%%$$&&&&&&&&&&&&&&&&&&&&&&&&&&&&&&&&&&&&&&",
"**********++++++++==$$%%$$&&&&&&&&&&&&&&&&&&&&&&&&&&&&&&&&&&&&&&",
"********@@++++++++==$$%%$$$$&&&&&&&&&&&&&&&&&&&&&&&&&&&&&&&&&&&&",
"********@@++++++++==$$%%$$$$&&&&&&&&&&&&&&&&&&&&&&&&&&&&&&&&&&&&",
"********@@++++++OO==$$%%$$$$$$&&&&&&&&&&&&&&&&&&&&&&&&&&&&&&&&&&",
"********@@++++++OO==$$%%$$$$$$&&&&&&&&&&&&&&&&&&&&&&&&&&&&&&&&&&",
"********++++++++OO==$$$$$$$$&&&&&&&&&&&&&&&&&&&&&&&&&&&&&&&&&&&&",
"********++++++++OO==$$$$$$$$&&&&&&&&&&&&&&&&&&&&&&&&&&&&&&&&&&&&",
"********OO++++OO==%%##$$$$&&&&&&&&&&&&&&&&&&&&&&&&&&&&&&&&&&&&&&",
"********OO++++OO==%%##$$$$&&&&&&&&&&&&&&&&&&&&&&&&&&&&&&&&&&&&&&",
"********OOOOOO==%%$$$$%%$$$$&&&&&&&&&&&&&&&&&&&&&&&&&&&&&&&&&&&&",
"********OOOOOO==%%$$$$%%$$$$&&&&&&&&&&&&&&&&&&&&&&&&&&&&&&&&&&&&",
"********ooOOOO==$$$$$$%%$$$$$$&&&&&&&&&&&&&&&&&&&&&&&&&&&&&&&&&&",
"********ooOOOO==$$$$$$%%$$$$$$&&&&&&&&&&&&&&&&&&&&&&&&&&&&&&&&&&",
"**********ooOO==$$$$$$%%$$$$$$&&&&&&&&&&&&&&&&&&&&&&&&&&&&&&&&&&",
"**********ooOO==$$$$$$%%$$$$$$&&&&&&&&&&&&&&&&&&&&&&&&&&&&&&&&&&",
"************oo==$$$$$$%%$$$$&&&&&&&&&&&&&&&&&&&&&&&&&&&&&&&&&&&&",
"************oo==$$$$$$%%$$$$&&&&&&&&&&&&&&&&&&&&&&&&&&&&&&&&&&&&",
"**************==##$$$$%%$$&&&&&&&&&&&&&&&&&&&&&&&&&&&&&&&&&&&&&&",
"**************==##$$$$%%$$&&&&&&&&&&&&&&&&&&&&&&&&&&&&&&&&&&&&&&",
"**************==########$$$$&&&&&&&&&&&&&&&&&&&&&&&&&&&&&&&&&&&&",
"**************==########$$$$&&&&&&&&&&&&&&&&&&&&&&&&&&&&&&&&&&&&",
"************++oo==######%%$$$$&&&&&&&&&&&&&&&&&&&&&&&&&&&&&&&&&&",
"************++oo==######%%$$$$&&&&&&&&&&&&&&&&&&&&&&&&&&&&&&&&&&",
"**********++++++oo====####$$&&&&&&&&&&&&&&&&&&&&&&&&&&&&&&&&&&&&",
"**********++++++oo====####$$&&&&&&&&&&&&&&&&&&&&&&&&&&&&&&&&&&&&",
"**********@@++++OOooXX==##$$&&&&&&&&&&&&&&&&&&&&&&&&&&&&&&&&&&&&",
"**********@@++++OOooXX==##$$&&&&&&&&&&&&&&&&&&&&&&&&&&&&&&&&&&&&",
"**********OO@@OOOO@@++==##$$&&&&&&&&&&&&&&&&&&&&&&&&&&&&&&&&&&&&",
"**********OO@@OOOO@@++==##$$&&&&&&&&&&&&&&&&&&&&&&&&&&&&&&&&&&&&",
"**********ooOOOO@@++++==##$$$$$$&&&&&&&&&&&&&&&&&&&&&&&&&&&&&&&&",
"**********ooOOOO@@++++==##$$$$$$&&&&&&&&&&&&&&&&&&&&&&&&&&&&&&&&",
"************ooOO@@++++==%%$$$$&&&&&&&&&&&&&&&&&&&&&&&&&&&&&&&&&&",
"************ooOO@@++++==%%$$$$&&&&&&&&&&&&&&&&&&&&&&&&&&&&&&&&&&",
"************oooooo++==$$$$$$&&&&$$&&&&&&&&&&&&&&&&&&&&&&&&&&&&&&",
"************oooooo++==$$$$$$&&&&$$&&&&&&&&&&&&&&&&&&&&&&&&&&&&&&",
"************++++oooo==%%$$&&$$&&&&&&&&&&&&&&&&&&&&&&&&&&&&&&&&&&",
"************++++oooo==%%$$&&$$&&&&&&&&&&&&&&&&&&&&&&&&&&&&&&&&&&",
"**********++++++++oo==%%$$$$&&&&&&&&&&&&&&&&&&&&&&&&&&&&&&&&&&&&",
"**********++++++++oo==%%$$$$&&&&&&&&&&&&&&&&&&&&&&&&&&&&&&&&&&&&",
"**********@@++++++OO==$$$$$$&&&&&&&&&&&&&&&&&&&&&&&&&&&&&&&&&&&&",
"**********@@++++++OO==$$$$$$&&&&&&&&&&&&&&&&&&&&&&&&&&&&&&&&&&&&"
};
