/* XPM */
static char *_45668a494684d51e226ef43601cbbaalSmTxuAGQJorFkmK[] = {
/* columns rows colors chars-per-pixel */
"64 64 13 1 ",
"  c #997333",
". c #A17C39",
"X c #588369",
"o c #5C876C",
"O c #608B6F",
"+ c #689475",
"@ c #729F7C",
"# c #A9843F",
"$ c #B9954A",
"% c #CDAB58",
"& c #C4E053",
"* c #12D1C8",
"= c #8CDBCB",
/* pixels */
"&&&&&&&&&&&&&&&&&&&&&&&&&&&&&&&&&&&&$$$$$$==++++++++OO**********",
"&&&&&&&&&&&&&&&&&&&&&&&&&&&&&&&&&&&&$$$$$$==++++++++OO**********",
"&&&&&&&&&&&&&&&&&&&&&&&&&&&&&&&&&&&&&&$$$$==++++++OOoo**********",
"&&&&&&&&&&&&&&&&&&&&&&&&&&&&&&&&&&&&&&$$$$==++++++OOoo**********",
"&&&&&&&&&&&&&&&&&&&&&&&&&&&&&&&&&&&&$$$$%%==OOOOOOoooo**********",
"&&&&&&&&&&&&&&&&&&&&&&&&&&&&&&&&&&&&$$$$%%==OOOOOOoooo**********",
"&&&&&&&&&&&&&&&&&&&&&&&&&&&&&&&&&&&&$$$$%%==oooooooo************",
"&&&&&&&&&&&&&&&&&&&&&&&&&&&&&&&&&&&&$$$$%%==oooooooo************",
"&&&&&&&&&&&&&&&&&&&&&&&&&&&&&&&&&&$$$$%%  ==oooooo**************",
"&&&&&&&&&&&&&&&&&&&&&&&&&&&&&&&&&&$$$$%%  ==oooooo**************",
"&&&&&&&&&&&&&&&&&&&&&&&&&&&&&&$$&&$$$$%%==XXoo******************",
"&&&&&&&&&&&&&&&&&&&&&&&&&&&&&&$$&&$$$$%%==XXoo******************",
"&&&&&&&&&&&&&&&&&&&&&&&&&&&&&&&&&&&&$$  ==oo++++****************",
"&&&&&&&&&&&&&&&&&&&&&&&&&&&&&&&&&&&&$$  ==oo++++****************",
"&&&&&&&&&&&&&&&&&&&&&&&&&&&&&&&&$$&&$$  ==++++++@@**************",
"&&&&&&&&&&&&&&&&&&&&&&&&&&&&&&&&$$&&$$  ==++++++@@**************",
"&&&&&&&&&&&&&&&&&&&&&&&&&&&&&&&&&&$$$$  ==++++++++**************",
"&&&&&&&&&&&&&&&&&&&&&&&&&&&&&&&&&&$$$$  ==++++++++**************",
"&&&&&&&&&&&&&&&&&&&&&&&&&&&&&&&&&&&&$$$$==++++++++@@************",
"&&&&&&&&&&&&&&&&&&&&&&&&&&&&&&&&&&&&$$$$==++++++++@@************",
"&&&&&&&&&&&&&&&&&&&&&&&&&&&&$$&&&&$$$$$$==++++++++++@@**********",
"&&&&&&&&&&&&&&&&&&&&&&&&&&&&$$&&&&$$$$$$==++++++++++@@**********",
"&&&&&&&&&&&&&&&&&&&&&&&&&&&&&&&&&&$$$$$$%%==++++++++++**********",
"&&&&&&&&&&&&&&&&&&&&&&&&&&&&&&&&&&$$$$$$%%==++++++++++**********",
"&&&&&&&&&&&&&&&&&&&&&&&&&&&&&&&&&&&&$$$$%%==OO++++++++@@********",
"&&&&&&&&&&&&&&&&&&&&&&&&&&&&&&&&&&&&$$$$%%==OO++++++++@@********",
"&&&&&&&&&&&&&&&&&&&&&&&&&&&&&&&&&&$$$$$$%%==OOOO++++++@@********",
"&&&&&&&&&&&&&&&&&&&&&&&&&&&&&&&&&&$$$$$$%%==OOOO++++++@@********",
"&&&&&&&&&&&&&&&&&&&&&&&&&&&&&&&&$$$$$$$$$$==OOOO++++++++********",
"&&&&&&&&&&&&&&&&&&&&&&&&&&&&&&&&$$$$$$$$$$==OOOO++++++++********",
"&&&&&&&&&&&&&&&&&&&&&&&&&&&&&&&&&&&&$$$$$$##==OOOO++++OO********",
"&&&&&&&&&&&&&&&&&&&&&&&&&&&&&&&&&&&&$$$$$$##==OOOO++++OO********",
"&&&&&&&&&&&&&&&&&&&&&&&&&&&&&&&&&&&&$$$$%%$$$$==OOOOOOOO********",
"&&&&&&&&&&&&&&&&&&&&&&&&&&&&&&&&&&&&$$$$%%$$$$==OOOOOOOO********",
"&&&&&&&&&&&&&&&&&&&&&&&&&&&&&&&&&&&&&&$$%%$$$$==@@OOOOoo********",
"&&&&&&&&&&&&&&&&&&&&&&&&&&&&&&&&&&&&&&$$%%$$$$==@@OOOOoo********",
"&&&&&&&&&&&&&&&&&&&&&&&&&&&&&&&&&&$$$$$$%%$$$$==@@OOoo**********",
"&&&&&&&&&&&&&&&&&&&&&&&&&&&&&&&&&&$$$$$$%%$$$$==@@OOoo**********",
"&&&&&&&&&&&&&&&&&&&&&&&&&&&&&&&&&&&&$$$$%%$$$$==@@oo************",
"&&&&&&&&&&&&&&&&&&&&&&&&&&&&&&&&&&&&$$$$%%$$$$==@@oo************",
"&&&&&&&&&&&&&&&&&&&&&&&&&&&&&&&&&&&&$$$$%%$$$$==@@**************",
"&&&&&&&&&&&&&&&&&&&&&&&&&&&&&&&&&&&&$$$$%%$$$$==@@**************",
"&&&&&&&&&&&&&&&&&&&&&&&&&&&&&&&&&&$$$$$$######==oo**************",
"&&&&&&&&&&&&&&&&&&&&&&&&&&&&&&&&&&$$$$$$######==oo**************",
"&&&&&&&&&&&&&&&&&&&&&&&&&&&&&&&&&&$$$$%%######==oo++************",
"&&&&&&&&&&&&&&&&&&&&&&&&&&&&&&&&&&$$$$%%######==oo++************",
"&&&&&&&&&&&&&&&&&&&&&&&&&&&&&&&&&&&&$$####  ==oo++++++**********",
"&&&&&&&&&&&&&&&&&&&&&&&&&&&&&&&&&&&&$$####  ==oo++++++**********",
"&&&&&&&&&&&&&&&&&&&&&&&&&&&&&&&&&&&&$$####==ooOO++++@@**********",
"&&&&&&&&&&&&&&&&&&&&&&&&&&&&&&&&&&&&$$####==ooOO++++@@**********",
"&&&&&&&&&&&&&&&&&&&&&&&&&&&&&&&&$$&&$$##==++@@OOOO@@OO**********",
"&&&&&&&&&&&&&&&&&&&&&&&&&&&&&&&&$$&&$$##==++@@OOOO@@OO**********",
"&&&&&&&&&&&&&&&&&&&&&&&&&&&&&&&&&&$$$$##==++++@@OOOOoo**********",
"&&&&&&&&&&&&&&&&&&&&&&&&&&&&&&&&&&$$$$##==++++@@OOOOoo**********",
"&&&&&&&&&&&&&&&&&&&&&&&&&&&&&&&&&&$$$$%%==++++@@OOoo************",
"&&&&&&&&&&&&&&&&&&&&&&&&&&&&&&&&&&$$$$%%==++++@@OOoo************",
"&&&&&&&&&&&&&&&&&&&&&&&&&&&&&&$$&&&&$$$$  ==++oooooo************",
"&&&&&&&&&&&&&&&&&&&&&&&&&&&&&&$$&&&&$$$$  ==++oooooo************",
"&&&&&&&&&&&&&&&&&&&&&&&&&&&&&&&&&&$$$$$$%%==oooo++++************",
"&&&&&&&&&&&&&&&&&&&&&&&&&&&&&&&&&&$$$$$$%%==oooo++++************",
"&&&&&&&&&&&&&&&&&&&&&&&&&&&&&&&&&&&&$$$$%%..==++++++++**********",
"&&&&&&&&&&&&&&&&&&&&&&&&&&&&&&&&&&&&$$$$%%..==++++++++**********",
"&&&&&&&&&&&&&&&&&&&&&&&&&&&&&&&&&&&&$$$$$$..==++++++@@**********",
"&&&&&&&&&&&&&&&&&&&&&&&&&&&&&&&&&&&&$$$$$$..==++++++@@**********"
};
