/* XPM */
static char *_0228defb49144f1f764a7f2db6b4a39TiPyUg2tj75P5IhE[] = {
/* columns rows colors chars-per-pixel */
"64 64 57 1 ",
"  c #573B17",
". c #593C17",
"X c #5A3F18",
"o c #5B4017",
"O c #5C4418",
"+ c #5F4919",
"@ c #4E5313",
"# c #535415",
"$ c #5E5714",
"% c #545815",
"& c #5F5914",
"* c #5D5C18",
"= c #614B1A",
"- c #615A15",
"; c #605618",
": c #635D1C",
"> c #5D6117",
", c #5E6118",
"< c #656C17",
"1 c #636618",
"2 c #6D631A",
"3 c #66691A",
"4 c #6A6D1A",
"5 c #75691A",
"6 c #7B6F1C",
"7 c #6E701B",
"8 c #6F711C",
"9 c #72751B",
"0 c #70721C",
"q c #73741E",
"w c #77771F",
"e c #7B701C",
"r c #7D711D",
"t c #78771F",
"y c #77781F",
"u c #78781F",
"i c #686320",
"p c #777820",
"a c #787920",
"s c #7C7B22",
"d c #7C7C22",
"f c #7F7E23",
"g c #7F7D27",
"h c #7F7E28",
"j c #807F23",
"k c #807E27",
"l c #807E28",
"z c #7F8226",
"x c #808023",
"c c #85822C",
"v c #88832F",
"b c #89842F",
"n c #878331",
"m c #888331",
"M c #888431",
"N c #8B8632",
"B c #8B8732",
/* pixels */
"9999999999999999999999999999999999999999999999999999999999999999",
"9999999999999999999999999999999999999999999999999999999999999999",
"9999999999999999999999999999999999999999999999999999999999999999",
"9999999999999999999999999999999999999999999999999999999999999999",
"9999999999999999999999999999999999999999999999999999999999999999",
"9999999999999999999999999999999999999999999999999999999999999999",
"9999999999999999999999999999999999999999999999999999999999999999",
"9999999999999999999999999999999999999999z99999999999999999999999",
"9999999999999999999999999999999999999999aa9999999999999999999999",
"999999999999999999999999999999999999zza9<a9999999999999999999999",
"9999999999999999999999999999999999999zaa<<9zza999999999999999999",
"99999999999999999999999999999===99az9<aa9<aaz9999999999999999999",
"9999999999999999999999999999=nnn=99zaa<a9aaa99999999999999999999",
"9999999999999999999999999====nnnn=9<aa9<<aa<99999999999999999999",
"999999999999999999999999=nmmmmmnn=9===99<<<999999999999999999999",
"99999999999999999999===9=MMMMaMMMm=nnn=aa99999999999999999999999",
"9999999999999999999=ccc=MMMMMwwfffMmmn=z<99999999999999999999999",
"9999999999999999999=ccccMMMMyyyfffMMMM=<====99999999999999999999",
"9999999999999999999=cccc7MMMuuffffMMM44=nnnn=9999999999999999999",
"99999999999999999999=cM777MMMMMfffff444fmnnnn=999999999999999999",
"99999999999999999===aaa6e80MMMMMfMMMM44ffmnnn=999999999999999999",
"9999999999999999=pwaaaeeMMj0MMMMfMMMM4444fffff====99999999999999",
"9999999999999999=wwaaeMMMMjjjMMMj2MM2444MMmfffkghg=9999999999999",
"9999999999999999=tyaafMMMMxrrxjjj22222MMMMmff4gggg+9999999999999",
"999999999999999=47aaMMMMMMrrrxxj08aa22MMMMfff4klgg+9999999999999",
"999999999999===7777MMMMjMMMr000000aaa2MMMffff44kg+99999999999999",
"99999999999=ffff77MMMMjxMMMM000aaaaaa87MMMm744444+99999999999999",
"9999999999+sffff74MMMjj0xMMMx00aaajjf87MMMmn744444++999999999999",
"9999999999=sfff3344fjjj0xxxxx0aaajjjff77MMmnf4444www+99999999999",
"9999999999=sff333444jjj00xxxx33aajjMMMfffffff44,wwww+99999999999",
"99999999999=1333vvbfjj000uuuu33300jMMMMffffff4>,wwww+99999999999",
"999999999999=33cvvbfjjj00uuuu3330088MMMMMf44*>,*qqw+999999999999",
"99999999999=0wcccvffjjjx33uu34444jjfjMMMMm4444,&&w00+99999999999",
"9999999999+0qwcccf55fjjj034443008jfMMMMMmnf4444*&&&$a++999999999",
"9999999999+0qqwfff555jj000444000jffMMMM4ffff444*,&4aaaa+99999999",
"99999999999=qq33ccvb5558884448jjff2MMM44ffff444*,44aaaa+*9999999",
"99999999qqqq+333ccvv588883338MMMMf222444;ffa44**4444aaaO**999999",
"99999999qqq+ccc3ccvcc77333300MMMM2777#444;;;%%,,44444a+***999999",
"9999999999+ncccccccccf3333800MMM7774###4444%%%*,44444+***9999999",
"999999999Oaanccc1fffff33317777777fff###444%%%%aaa444O******99999",
"999999999Oaaaas1111ff333---777-44ffff#---*>>%aaaa4qqO****i*99999",
"9999999999Oaaa111111333--,,,---44ffff#--**>>%aaaa4qqqO:**:a99999",
"99999999999O11444111333--111,---42fff8*******aaa$$qqqO::*#:99z99",
"99999999999O44444@@1111-%,,,,%ww44222q0*,***@;;$$$$qqX:::#*aa<99",
"99999999999zO444@@@@11--%,,,%qwwqw44000**44*@@$$@@@XX:#::*9aa<99",
"999999zza99aaO@@@@&---%%%%%%%0wwwq@0000@*444***@@@X*#::%a99<<999",
"9999999zaa9<aX@@@@&&&-%%%%%%%%00q@@0000@@4444****@X**#:#%9999999",
"9999999<aaa<9:X@@&O&&%%1111%%%%%@@@@08@@@4444*****X*;****9999999",
"999999za<aa99a:XXX*O&%11111@@#%%%%@@@@@@XX44***X..******99999999",
"999999<aa<a99<<*****oX1111@@@@%%*%*****X**X*** ***9****999999999",
"9999999<a<<99999***9*X111@@X@@%%X******X***   ****99999999999999",
"9999999999999999999999X@@@X*XXXX*.***  ***99****9999999999999999",
"99999999999999999999999XXX*****999.. ****99999999999999999999999",
"999999999999999999999999*****999999****9999999999999999999999999",
"9999999999999999999999999999999999999999999999999999999999999999",
"9999999999999999999999999999999999999999999999999999999999999999",
"9999999999999999999999999999999999999999999999999999999999999999",
"9999999999999999999999999999999999999zz9999999999999999999999999",
"99999999999999999999999999999999999999zaa999zz999999999999999999",
"99999999999999999999999999999999999999<aa99az9999999999999999999",
"999999999999999999999999999999999999999<<9aaa9999999999999999999",
"999999999999999999999999999999999999999999aa<9999999999999999999",
"999999999999999999999999999999999999999999<<99999999999999999999",
"9999999999999999999999999999999999999999999999999999999999999999"
};
