/* XPM */
static char *win1712583823[] = {
/* columns rows colors chars-per-pixel */
"64 64 212 2 ",
"   c #060608",
".  c #07100D",
"X  c #08140F",
"o  c #191713",
"O  c #281A0B",
"+  c #0C2319",
"@  c #1E2111",
"#  c #0E321C",
"$  c #252319",
"%  c #322B27",
"&  c #3E382D",
"*  c #532A0B",
"=  c #6C360C",
"-  c #7B350D",
";  c #104224",
":  c #14552D",
">  c #155434",
",  c #166238",
"<  c #1A7A3E",
"1  c #534B1B",
"2  c #724B08",
"3  c #6C4619",
"4  c #754719",
"5  c #744C1F",
"6  c #7B541B",
"7  c #4D5824",
"8  c #504F31",
"9  c #7C5222",
"0  c #795529",
"q  c #71592D",
"w  c #756526",
"e  c #7D6827",
"r  c #65732D",
"t  c #666931",
"y  c #192849",
"u  c #233C6C",
"i  c #5A4E44",
"p  c #645B4C",
"a  c #746C50",
"s  c #566B6D",
"d  c #7B7D6F",
"f  c #930F18",
"g  c #96121C",
"h  c #B4202A",
"j  c #854E0F",
"k  c #855C1A",
"l  c #B35B0E",
"z  c #98690E",
"x  c #8C6617",
"c  c #956C15",
"v  c #A97704",
"b  c #B47209",
"n  c #A47C14",
"m  c #845B20",
"M  c #8B6A31",
"N  c #B4682D",
"B  c #BD692E",
"V  c #A37E3C",
"C  c #CF5611",
"Z  c #EF5810",
"A  c #D46E0A",
"S  c #C27B09",
"D  c #EF670F",
"F  c #ED671A",
"G  c #EB711D",
"H  c #CD762F",
"J  c #E66E25",
"K  c #E57625",
"L  c #E17C2A",
"P  c #C73C45",
"I  c #93454B",
"U  c #94724C",
"Y  c #E86A73",
"T  c #718032",
"R  c #7D8E37",
"E  c #B5890E",
"W  c #AB8314",
"Q  c #82813B",
"!  c #899337",
"~  c #B28D29",
"^  c #A58635",
"/  c #B38D31",
"(  c #CA8408",
")  c #D18308",
"_  c #D88B0B",
"`  c #C7990C",
"'  c #D38913",
"]  c #D39416",
"[  c #E48A0B",
"{  c #F38805",
"}  c #E79403",
"|  c #F59402",
" . c #F59B02",
".. c #F89609",
"X. c #EA8918",
"o. c #F48716",
"O. c #E59311",
"+. c #EB951A",
"@. c #F49416",
"#. c #F49F19",
"$. c #CBA30C",
"%. c #D6A806",
"&. c #DCB208",
"*. c #C4A313",
"=. c #E6A803",
"-. c #F5A302",
";. c #F6AB02",
":. c #F9A308",
">. c #E5B605",
",. c #EBBD04",
"<. c #F5B302",
"1. c #F6BB02",
"2. c #F5B60E",
"3. c #EAAC1B",
"4. c #F5A316",
"5. c #F9A31B",
"6. c #CB8D2B",
"7. c #D79128",
"8. c #DB8D33",
"9. c #D99936",
"0. c #E1862A",
"q. c #E59725",
"w. c #F19024",
"e. c #E89936",
"r. c #D3A833",
"t. c #DBA933",
"y. c #D6A43A",
"u. c #D5AB3B",
"i. c #D8B237",
"p. c #D5BB3C",
"a. c #E6A429",
"s. c #FBB629",
"d. c #ECB132",
"f. c #EEC10B",
"g. c #F4C203",
"h. c #F8C605",
"j. c #D4C73D",
"k. c #D7D339",
"l. c #E3CA29",
"z. c #FDC837",
"x. c #929142",
"c. c #AC985D",
"v. c #A2A048",
"b. c #A0B745",
"n. c #9B9662",
"m. c #A19A7B",
"M. c #BDAB67",
"N. c #BAAA6C",
"B. c #AEAB74",
"V. c #D39D43",
"C. c #CEBC45",
"Z. c #D1B341",
"A. c #D9B846",
"S. c #D5AB54",
"D. c #E7AA4C",
"F. c #CC9D67",
"G. c #D1B667",
"H. c #CBBC77",
"J. c #CABB7B",
"K. c #EBB46F",
"L. c #ACC549",
"P. c #CDC447",
"I. c #CEC945",
"U. c #CACC4A",
"Y. c #D1CA41",
"T. c #C7D64F",
"R. c #C9D34C",
"E. c #CADA4B",
"W. c #C7D750",
"Q. c #C5DD52",
"!. c #E7C344",
"~. c #EBCC43",
"^. c #FFD541",
"/. c #F1D943",
"(. c #C7E04F",
"). c #C4E053",
"_. c #F6E841",
"`. c #FDF743",
"'. c #FFFC40",
"]. c #FFFC54",
"[. c #EDC97B",
"{. c #FFFD6E",
"}. c #2C4A89",
"|. c #22588B",
" X c #1B738B",
".X c #2A6585",
"XX c #3A66BD",
"oX c #67758B",
"OX c #285CC4",
"+X c #376ACF",
"@X c #2C7ACC",
"#X c #3F71D5",
"$X c #3D7BD8",
"%X c #4274D7",
"&X c #768B8D",
"*X c #719AB3",
"=X c #208CC3",
"-X c #2887D6",
";X c #3784D9",
":X c #3388DA",
">X c #2798DC",
",X c #249FDE",
"<X c #9C979E",
"1X c #9593A6",
"2X c #CBB881",
"3X c #C2C187",
"4X c #CBCA8F",
"5X c #D1C281",
"6X c #DFD5A9",
"7X c #FDE9AB",
"8X c #B8CAF0",
"9X c #E2EAEE",
/* pixels */
").).).).).).).).).).).).).).).).).).).).).).).).).).).).).).).).).Q.W.Q.W.W.Q.Q.).).).).).).).).).).).).).).).).).).).).).).).).",
").).).).).).).).).).).).).).).).).).).).).).).).).).).).).).).).Q.T.T.U.U.T.T.W.Q.).).).).).).).).).).).).).).).).).).).).).).).",
").).).).).).).).).).).).).).).).).).).).).).).Q.).).).).).).).Q.T.U.C.Z.Z.C.P.T.W.Q.).).).).).).).).).).).).).).).).).).).).).).",
").).).).).).).).).).).).).).).).).).).).).Q.Q.Q.Q.Q.Q.).).).Q.W.U.C.V.9.9.9.Z.C.T.Q.).).).).).).).).).).).).).).).).).).).).).).",
").).).).).).).).).).).).).).).).).).).Q.Q.T.R.R.T.T.Q.Q.).Q.).T.P.V.8.L H 8.V.Z.U.W.Q.).).).).).).).).).).).).).).).).).).).).).",
").).).).).).).).).).).).).).).).).).).W.R.P.C.p.C.P.R.W.Q.Q.W.U.Z.9.L J J L 9.Z.U.W.Q.).).).).).).).).).).).).).).).).).).).).).",
").).).).).).).).).).).).).).).).).).Q.R.P.Z.y.9.9.Z.C.U.T.T.R.C.y.8.K J K 8.V.P.U.W.).).).).).).).).).).).).).).).).).).).).).).",
").).).).).).).).).).).).).).).).Q.Q.T.U.u.9.0.L 0.8.y.Z.C.U.C.u.9.L K L 8.y.C.U.T.Q.Q.).).).).).).).).).).).).).).).).).).).).).",
").).).).).).).).).).).).).).).).R               C J 0.8.u.u.t.9.0.K L 8.y.C.U.W.Q.Q.).).).).).).).).).).).).).).).).).).).).).).",
").).).).).).).).).).).).).b.r r r w w e Q Q Q Q j - - H 0.9.0.0.J J 0.9.Z.U.W.Q.Q.).).).).).).).).).).).).).).).).).).).).).).).",
").).).).).).).).).).).).Q.!     1 !.!./.'.].{.{.$     C K K K F F G 0.t.P.R.Q.).).).).).).).).).).).).).).).).).).).).).).).).).",
").).).).).).).).).).).).@ 1 !.!.!.!.`.'.'.'.'.'.{.{.{.$ = D F F F G 0.y.P.W.).).).).).).).).).).).).).).).).).).).).).).).).).).",
").).).).).).).).).).b.r w ^ !.!.~._.`.'.'.'.'.'.].].].x.m - Z Z Z G 0.u.I.T.Q.).).).).).).).).).).).).).).).).).).).).).).).).).",
").).).).).).).).).).R   Z.!.!.!./.'.'.'.'.'.'.'.`.`.'.{.v.  C Z D G 0.u.I.T.).).).).Q.).).Q.Q.).Q.).).).).).).).).).).).).).).).",
").).).).).).).).).@ 1 !.!.!.!.!.!.!.`.'.'.'.'.'.'.'.'.'.].{.$ * D F 8.i.I.W.Q.Q.Q.).Q.Q.W.E.W.E.Q.Q.Q.).).).).).).).).).).).).).",
").).).).).).).b.r w ^ !.!.!.!.!.!.!.z._.'._._.'.'.].].'.].{.x.m j F 7.i.I.4 3 3 Q.W.T.R.U.I.U.U.U.T.Q.).).).).).).).).).).).).).",
").).).).).).).R   r.A.!.!.!.!.!.!.!.!./.'.~./.'.'.].{.].].{.{.v.. A q.i.j j 3 3 R.U.P.j.p.i.p.p.I.R.W.).).).).).).).).).).).).).",
").).).@           f f f f f f f f f f g h g g h h h h h P Y Y I           O 4 j j.p.i.t.t.a.t.i.p.U.W.Q.Q.).).).).).).).).).).).",
").b.r t 0 e w w e N N H B B B B B B 6.H H B H 8.8.8.8.8.V.D.K.F.R U a Q U t * j i.t.q.q.+.q.a.t.p.I.E.Q.).).).).).).).).).).).).",
").R   u.!.!.!.j.!.!.A.!.!.!.!.!.!.!.`._.!.!./.'.'.'.'.`.'.'.{.{.{.{.{.{.{.v.. ~ q.+.X.X.X.w.q.i.j.U.T.Q.).).).).).).).).).).).).",
").).).@           b _ ) b b b ) ) ) ) ) ) S ) ) ) S b ( ' 7.) j           * l q.+.o.G o.+.q.t.p.I.R.E.).).).).).).).).).).).).).",
").).).T r r r 1   b ) ) S b S S S ) O.O.O.' ) ) O._ ' ) ' ] _ j   * = * * = 9.+.o.{ o.@.q.t.p.j.R.T.Q.).).).).).).).).).).).).).",
").).).).).).).R   b ) ) ) ) ) ) _ A #.5.#._ ) ) #.5.5._ ' 7.) j   C A l l l q.@.o.o.{ q.d.p.Y.R.W.Q.).).).).).).).).).).).).).).",
").).).).).).).R   6X[.) ) ) ) ) ) _ #.s.^._ ) ) z.z.5.z.z.4.7Xm.  A A A A e.e.w.o.G w.e.d.Y.R.(.).).).).).).).).).).).).).).).).",
").).).).).).).R   6X[.( O._ ) ) ) ) 4.s.^._ _ O.z.z.5.^.z.4.7Xm.  A D A { X.q.w.o.o.w.e.D.I.E.(.).).).).).).).).).).).).).).).).",
").).).).).).).R   6X[.( 4.O.) ) ) ) #.s.^._ O.5.^.s.5.z.z.5.7Xm.  A { { { A @.@...o.w.e.y.j.Y.E.Q.).).).).).).).).).).).).).).).",
").).).).).).).R   F.D.( ) O.5._ ) ) ) _ 5.5.5.5.#.s.^.^.s.5.K.U   A { { { [ { o.o.@.@.+.3.S.G.H.2X3X).).).).).).).).).).).).).).",
").).).).).).).b.r p ^ K.' O.5.O.O.O.) _ O.#.5.5.s.z.^.z.s.5.M 9 2 [ | { { { { { ....| 4.a.D.A.H.J.3X3X).).).).).).).).).).).).).",
").).).).).).).).Q.$ p 7X7.O.5.5.5.5._ ) ) #.5.5.^.^.^.5.5.5.O = ..| | | { | | { | | ..4.+.a.D.S.G.3X3XB.).).).).).).).).).).).).",
").).).).).).).).).(.R   b O.5.5.5.5.5.5.5.5.5.5.5.#.#.#.c   )  .|  . .|  .| |  . .} :...:.#.d.D.G.G.M.n.).).).).).).).).).).).).",
").).).).).).).).).).b.r 3 z } O.O.O.5.5.5.5.5.5.5.5.5.x j 2 } -. . . . . . . . . . . .-.:.3.a.Z.S.S.c.(.).).).).).).).).).).).).",
").).).).).).).).).).).).o * ( ( ) ) #.5.5.5.5.5.5.5.5.O 2  .-.-.:.:.-.-.-.-.-.-. .-.-.-. .4.$.r.V.c.(.).J.J.4X3X).).).).).).).).",
").).).).).).).).).).).).W.t         F.K.K.K.U         ` ;.-.;.;.;.;.;.:.;.;.:.;.-.;.-.-.=.2.2.l.k.E.E.H.J.5X4X4X3X).).).).).).).",
").).).).).).).).).).).).r 1   u u u 1X1X1X1XoXu u y   2 v ;.;.;.;.;.;.;.;.;.;.;.<.;.;.;.-.=.2.l.Y.(.M.N.J.J.5X4X3X).).).).).).).",
").).).).).).).).).).Q.Q.o     XX%X%X%X%X%X%X%X%X%X}.    2 =.;.<.<.<.<.<.<.<.<.<.<.<.<.<.=.=.( l.k.E.M.N.N.J.J.3X3X3X).).).).).).",
").).).).).).).).).).R   +X#XOX%X;X,X$X%X%X%X;X,X>X-XOX#X}.  %.1.1.1.1.1.1.1.<.1.<.,.<.<.=.%.` E k.E.c.N.N.N.J.J.B.B.n.).).).).).",
").).).).).).).).).).a . XX+XOX%X;X,X:X;X%X%X;X,X,X-XOX+X}.  %.1.h.1.g.1.1.1.h.1.g.1.,.<.=.` E k.k.(.).c.N.N.N.N.B.n.n.).).).).).",
").).).).).).).).).3Xa   XX+XOX%X;X,X,X>X%X%X;X,X,X-XOX#X}.  &.g.g.g.g.g.h.h.h.1.g.g.,.>.%.` E n E.(.(.).c.c.c.c.n.n.).).).).).).",
").).).).).).).).B.B.d   XX+XOX#X$X,X,X:X%X%X;X,X,X-XOX#X|.  &.g.1.f.,.g.,.,.,.,.>.>.&.%.` ] 6.~ (.(.).).).).).).).).).).).).).).",
").).).).).).).).v.B.a   @X@XOX#X$X:X,X>X:X:X:X-X>X-XOX:X|.. $.&.>.&.&.&.&.&.&.&.%.%.$.` W c / (.(.(.).).J.5X5X5X3X).).).).).).).",
").).).).).).).).).n.p   =X-XOX#X%X%X,X,X,X,X:X%X,X-XXX>X X  *.$.$.$.$.*.` *.` *.E E E W c x k (.).).).J.J.5X5X4X3X3XB.).).).).).",
").).).).).).).).).).p   =X-XOX#X%X%X%X:X,X,X,X,X,X-XOX>X|.  W W W W W n n W n 6.W c z e 6 6 3 9 ).).N.2XJ.J.J.3X3XB.B.n.).).).).",
").).).).).).).).).).R   &X*X+X#X%X%X%X$X:X,X,X,X,X>X-X*Xs   ^ c c c x x x / / / (./ 2 2 4 3 ).).).).c.N.N.J.3X3X3XB.B.n.).).).).",
").).).).).).).).).Q.R   F.<X$X%X%X%X%X%X%X,X,X,X,X,X,X2XU   M x 9 k 6 6 6 m k m ^ ^ ).3 3 9 ).).).).).c.N.N.B.B.B.n.n.).).).).).",
").).).).).).).).).).Q . 9X8X%X%X%X%X%X%X%X%X;X,X,X,X,X9X<X. 5 5 9 5 5 5 5 ^ 9 m 9 ^ 9 9 ).9 ).).).).).).c.n.n.n.n.n.).).).).).).",
").).).).).).).).).).b.r U oX.X.X.X.X.X.X.X.X X X X X X&Xd 1 5 5 5 5 5 5 5 Q.V 6 ).0 9 ).).).J.J.5XJ.).).).).).).).).).).).).).).",
").).).).).).).).).).).).+ + > > > > > > > > > > > > : . 7 ).q ).5 5 5 5 5 0 9 U ).).).).).J.J.5X5X3X3X3X3X).).).).).).).).).).).",
").).).).).).).).).).).).o + > > , < < < < < < < < < < X 7 ).).).).5 5 5 ).).Q.9 ).).).).3X3X4X4X4X4X3X3X3X3X).).).).).).).).).).",
").).).).).).).).).).).).@ + > > , < ; ; ; ; > < < < < X 8 3X).).).).).).).).).).).).).).B.3X4X4X4X3X3X3XB.B.).).).).).).).).).).",
").).).).).).).).).).).).@ + > > , < X       # < < < < X i B.B.).).).3X3X3X3X3X3X3X).).).n.3X3X3X3XB.B.B.n.).).).).).).).).).).).",
").).).).).).).).).).).).@ + > > , < X 7 Q.o # < < < < X 8 B.n.).).3X3X4X4X4X3X3XB.B.).).n.n.B.B.B.B.n.n.).).).).).).).).).).).).",
").).).).).).).).).).).).@ + > > , < X 7 Q.o # < < < < X & n.).).B.3X3X4X3X3X3XB.B.n.).).).n.n.n.n.n.n.).).).).).).).).).).).).).",
").).).).).).).).).).).).@ + > > > < X 7 ).@ # < < < < X & Q.).n.B.B.B.B.B.B.B.B.n.).).).).).).).).).).).).).).).).).).).).).).).",
").).).).).).).).).).).).@ $ i i p a o 7 ).@ $ i a a a o 8 ).).n.n.B.B.B.B.n.n.).).).).).).).).).).).).).).).).).).).).).).).).).",
").).).).).).).).).).).).T 8 % % % & r ! ).T 8 % & & & t x.).).).n.n.n.n.n.n.).).).).).).).).).).).).).).).).).).).).).).).).).).",
").).).).).).).).).).).).).R   .   . L.).).).R .       b.).).).).).).).).).).).).).).).).).).).).).).).).).).).).).).).).).).).).",
").).).).).).).).).).).).).).).).).).).).).).).).).).).).).).).).).).).).).).).).).).).).).).).).).).).).).).).).).).).).).).).).",
").).).).).).).).).).).).).).).).).).).).).).).).).).).).).).).).).).).).).).).).).).).).).).).).).).).).).).).).).).).).).).).).",
").).).).).).).).).).).).).).).).).).).).).).).).).).).).).).).).).).).).).).).).).).).).).).).).).).).).).).).).).).).).).).).).",
").).).).).).).).).).).).).).).).).).).).).).).).).).).).).).).).).).).).).).).).).).).).).).).).).).).).).).).).).).).).).).).).",
").).).).).).).).).).).).).).).).).).).).).).).).).).).).).).).).).).).).).).).).).).).).).).).).).).).).).).).).).).).).).).).).",
").).).).).).).).).).).).).).).).).).).).).).).).).).).).).).).).).).).).).).).).).).).).).).).).).).).).).).).).).).).).).).).).",
").).).).).).).).).).).).).).).).).).).).).).).).).).).).).).).).).).).).).).).).).).).).).).).).).).).).).).).).).).).).).).).).",
").).).).).).).).).).).).).).).).).).).).).).).).).).).).).).).).).).).).).).).).).).).).).).).).).).).).).).).).).).).).).).).)."
};
