/* XPM */
static char *_d886802ad2f422886385331886044caTOZrQpz7GCRtapYw[] = {
/* columns rows colors chars-per-pixel */
"64 64 124 2 ",
"   c #462313",
".  c #492614",
"X  c #4F2913",
"o  c #4D2B19",
"O  c #522B14",
"+  c #522E19",
"@  c #563016",
"#  c #55311B",
"$  c #5B351B",
"%  c #5D391E",
"&  c #60391D",
"*  c #563521",
"=  c #583623",
"-  c #5B3A25",
";  c #5D3E2A",
":  c #553F31",
">  c #623E23",
",  c #555216",
"<  c #5F5818",
"1  c #635C1D",
"2  c #656C17",
"3  c #72751B",
"4  c #5F402A",
"5  c #554032",
"6  c #5A4433",
"7  c #5E4834",
"8  c #5C4739",
"9  c #5E4A3C",
"0  c #634126",
"q  c #684326",
"w  c #62432C",
"e  c #6A462A",
"r  c #664A2D",
"t  c #6B4A2D",
"y  c #644730",
"u  c #6C4D33",
"i  c #614C3C",
"p  c #6A4D39",
"a  c #714F33",
"s  c #6C5033",
"d  c #65503E",
"f  c #6D533C",
"g  c #725639",
"h  c #755A3B",
"j  c #795C3D",
"k  c #686120",
"l  c #787B21",
"z  c #655242",
"x  c #695442",
"c  c #6B5846",
"v  c #6E5D4A",
"b  c #725542",
"n  c #755B46",
"m  c #7B5F40",
"M  c #715E49",
"N  c #7A5D4B",
"B  c #7D6343",
"V  c #74614D",
"C  c #7C614D",
"Z  c #766653",
"A  c #7B6551",
"S  c #7D6852",
"D  c #7D6E5C",
"F  c #7E705F",
"G  c #806646",
"H  c #816749",
"J  c #846A4B",
"K  c #846552",
"L  c #896F5C",
"P  c #8C7354",
"I  c #82715D",
"U  c #8F7758",
"Y  c #8F7858",
"T  c #907755",
"R  c #907856",
"E  c #917A5B",
"W  c #917A5C",
"Q  c #947D5C",
"!  c #857460",
"~  c #847563",
"^  c #857664",
"/  c #8B7565",
"(  c #8E7665",
")  c #897965",
"_  c #8C7B67",
"`  c #8C7E67",
"'  c #8D7F69",
"]  c #7F8226",
"[  c #8E816C",
"{  c #968063",
"}  c #978164",
"|  c #9D8663",
" . c #9C8767",
".. c #90836F",
"X. c #9D8768",
"o. c #928672",
"O. c #958976",
"+. c #998C77",
"@. c #978B78",
"#. c #998E7C",
"$. c #9B907E",
"%. c #46809E",
"&. c #48819F",
"*. c #548BA8",
"=. c #70A1B4",
"-. c #9D9282",
";. c #9F9688",
":. c #A09686",
">. c #A09689",
",. c #A1998B",
"<. c #A29A8D",
"1. c #A79F91",
"2. c #A7A091",
"3. c #A9A190",
"4. c #ABA396",
"5. c #ABA495",
"6. c #ACA597",
"7. c #AFA69A",
"8. c #AFA79B",
"9. c #AFA79C",
"0. c #B0A79B",
"q. c #B0A89B",
"w. c #B1A99D",
"e. c #B7B0A5",
/* pixels */
"3 3 3 3 3 3 3 3 3 3 3 3 3 3 3 3 3 3 3 3 3 3 3 3 3 3 3 3 3 3 3 3 3 3 3 3 3 3 3 3 3 3 3 3 3 3 3 3 3 3 3 3 3 3 3 3 3 3 3 3 3 3 3 3 ",
"3 3 3 3 3 3 3 3 3 3 3 3 3 3 3 3 3 3 3 3 3 3 3 3 3 3 3 3 3 3 3 3 3 3 3 3 3 3 3 3 3 3 3 3 3 3 3 3 3 3 3 3 3 3 3 3 3 3 3 3 3 3 3 3 ",
"3 3 3 3 3 3 3 3 3 3 3 3 3 3 3 3 3 e e e $ 3 3 3 3 3 3 3 3 3 3 3 3 3 3 3 3 3 3 3 3 3 a a a a 3 3 3 3 3 3 3 3 3 3 3 3 3 3 3 3 3 3 ",
"3 3 3 3 3 3 3 3 3 3 3 3 3 3 3 3 e U B B $ 3 3 3 3 3 3 3 3 3 3 3 3 3 3 3 3 3 3 3 3 3 t T J J a 3 3 3 3 3 3 3 3 3 3 3 3 3 3 3 3 3 ",
"3 3 3 3 3 3 3 3 3 3 3 3 3 3 3 3 e U B B $ 3 3 3 3 3 3 3 3 3 3 3 3 3 3 3 3 3 3 3 3 3 t R J J a 3 3 3 3 3 3 3 3 3 3 3 3 3 3 3 3 3 ",
"3 3 3 3 3 3 3 3 3 3 3 3 3 3 3 e E J J s $ 3 3 3 3 3 3 3 3 3 3 3 3 3 3 3 3 3 3 3 3 3 t B R P P a 3 3 3 3 3 3 3 3 3 3 3 3 3 3 3 3 ",
"3 3 3 3 3 3 3 3 3 3 3 3 3 3 3 e E J J s $ 3 3 3 3 3 3 3 3 3 3 3 3 3 3 3 3 3 3 3 3 3 t B R P P u 3 3 3 3 3 3 3 3 3 3 3 3 3 3 3 3 ",
"3 3 3 3 3 3 3 3 3 3 3 3 3 3 3 e E J J s $ 3 3 3 3 3 3 3 3 3 3 3 3 3 3 3 3 3 3 3 ] 3 e B | E Y u 3 3 3 3 3 3 3 3 3 3 3 3 3 3 3 3 ",
"3 3 3 3 3 3 3 3 3 3 3 3 3 3 e E P P P s $ 3 3 3 3 3 3 3 3 3 3 3 3 3 3 3 3 3 3 3 l l e B | E E U t 3 3 3 3 3 3 3 3 3 3 3 3 3 3 3 ",
"3 3 3 3 3 3 3 3 3 3 3 3 3 3 e W P P s u @ 3 3 3 3 3 3 3 3 3 3 3 3 3 3 3 ] ] l 3 2 l e B B | E U t 3 3 3 3 3 3 3 3 3 3 3 3 3 3 3 ",
"3 3 3 3 3 3 3 3 3 3 3 3 3 3 e } U U s s @ 3 3 3 3 3 3 3 3 3 3 3 3 3 3 3 3 ] l l 2 2 t B B  .Q Q e 3 3 3 3 3 3 3 3 3 3 3 3 3 3 3 ",
"3 3 3 3 3 3 3 3 3 3 3 3 3 3 e } U U s s @ 3 3 3 3 3 3 3 3 3 3 3 3 3 l ] 3 2 l l 3 2 t B B X.Q Q e 3 3 3 3 3 3 3 3 3 3 3 3 3 3 3 ",
"3 3 3 3 3 3 3 3 3 3 3 3 3 3 e } U U s u O 3 3 3 3 3 3 3 3 3 3 3 3 3 3 ] l l 2 l 3 l t B B X.Q Q q 3 3 3 3 3 3 3 3 3 3 3 3 3 3 3 ",
"3 3 3 3 3 3 3 3 3 3 3 3 3 q } U U U u u O 3 p p p p p p p p p p p p p p p p p 2 2 l t B B X.Q Q Q 0 3 3 3 3 3 3 3 3 3 3 3 3 3 3 ",
"3 3 3 3 3 3 3 3 3 3 3 3 3 q } U U u u u O p 3.3.3.3.3.3.3.3.3.3.3.3.3.3.3.3.3.p 2 2 t B G B X.Q Q 0 3 3 3 3 3 3 3 3 3 3 3 3 3 3 ",
"3 3 3 3 3 3 3 3 3 3 3 3 3 0 } U P u u u p 7.3.3.3.3.3.3.3.3.3.3.3.3.3.3.3.3.3.7.p 3 t B B B X.Q Q > 3 3 3 3 3 3 3 3 3 3 3 3 3 3 ",
"3 3 3 3 3 3 3 3 3 3 3 3 3 0 { P P s u t p 7.3.3.3.3.3.3.3.3.3.3.3.3.3.3.3.3.3.0.p 3 t B B B  .U U > 3 3 3 3 3 3 3 3 3 3 3 3 3 3 ",
"3 3 3 3 3 3 3 3 3 3 3 3 3 0 { P P u O t p 7.4.3.4.4.4.4.4.4.4.4.4.3.4.4.4.3.3.q.p 3 e B t B  .U U > 3 3 3 3 3 3 3 3 3 3 3 3 3 3 ",
"3 3 3 3 3 3 3 3 3 3 3 3 3 0 { P J O x O p 7.4.4.4.4.4.4.4.4.4.4.4.4.4.6.5.4.4.q.p 3 e t ^ t | P P % 3 3 3 3 3 3 3 3 3 3 3 3 3 3 ",
"3 3 3 3 3 3 3 3 3 3 3 3 3 0 - % $ O 7 O p 7.4.4.4.6.6.6.6.6.6.6.6.4.6.6.6.6.6.w.p 3 0 q A e 0 e 0 % 3 3 3 3 3 3 3 3 3 3 3 3 3 3 ",
"3 3 3 3 3 3 3 3 3 3 3 3 3 > ! ! I x O u p 7.6.6.6.6.6.6.7.7.7.7.7.6.6.6.6.6.6.w.p 3 > h & ! ` _ ) $ 3 3 3 3 3 3 3 3 3 3 3 3 3 3 ",
"3 3 3 3 3 3 3 3 3 3 3 3 3 > V V V 7 O t p 7.6.6.6.6.6.6.7.7.7.7.7.7.6.6.6.6.6.w.p 3 & G & A S S S $ 3 3 3 3 3 3 3 3 3 3 3 3 3 3 ",
"3 3 3 3 3 3 3 3 3 3 3 3 3 > V V V O t t p 7.6.6.7.7.6.6.7.7.7.7.7.7.7.7.6.6.6.w.p 3 & B j & S S S $ 3 3 3 3 3 3 3 3 3 3 3 3 3 3 ",
"3 3 3 3 3 3 3 3 3 3 3 3 3 > O O O u t t p 9.7.7.7.L 6.6.6.7.7.7.7.7.7.( 7.7.7.w.p 3 & B B h $ $ $ $ 3 3 3 3 3 3 3 3 3 3 3 3 3 3 ",
"3 3 3 3 3 3 3 3 3 3 3 3 3 > t t t t t r p w.7.7.K <.A 7.7.7.7.7.7.7.K ,.A 7.7.w.p 3 & B B B J h h $ 3 3 3 3 3 3 3 3 3 3 3 3 3 3 ",
"3 3 3 3 3 3 3 3 3 3 3 3 3 - H B B r r r p w.7.N <.<.<.N 7.7.7.7.7.N ,.<.,.N 7.w.p 3 & B B B U H H $ 3 3 3 3 3 3 3 3 3 3 3 3 3 3 ",
"3 3 3 3 3 3 3 3 3 3 3 3 3 - H B B r r O p w.7.N ,./ ,.C 6.6.7.7.7.N ,./ ,.N 7.w.p & ^ % B B U H H $ 3 3 3 3 3 3 3 3 3 3 3 3 3 3 ",
"3 3 3 3 3 3 3 3 3 3 3 3 3 - H B B r r O p w.n ,./ / / ,.b w.w.w.x ,./ / / ,.b w.p $ A $ m m P H H $ 3 3 3 3 3 3 3 3 3 3 3 3 3 3 ",
"3 3 3 3 3 3 3 3 3 3 3 3 3 - H j h q q O w 1.n ;.;.;.;.;.n -.-.-.b >.;.;.;.;.f 2.w $ V $ j j P B B @ 3 3 3 3 3 3 3 3 3 3 3 3 3 3 ",
"3 3 3 3 3 3 3 3 3 3 3 3 3 - H j h r q O w <.-.-.-.-.-.-.-.-.-.-.-.-.-.-.;.;.;.1.w + i o y w P B B @ 3 3 3 3 3 3 3 3 3 3 3 3 3 3 ",
"3 3 3 3 3 3 3 3 3 3 3 3 3 - B j h q q O w <.-.-.$.$.$.-.-.-.-.-.-.$.-.-.-.-.-.<.w o i o w w f B m O 3 3 3 < < < 3 3 3 3 3 3 3 3 ",
"3 3 3 3 3 3 3 3 3 3 3 3 3 - B h h 0 0 0 w ,.#.#.#.#.#.$.#.#.#.$.#.$.$.-.-.-.-.<.w < o w w w f m j O 3 3 < < < < < 3 3 3 3 3 3 3 ",
"3 3 3 3 3 3 3 3 3 3 3 3 3 - B h h w 0 0 w ,.#.C N n N N C #.#.#.C N n C C A $.<.w < o w w w f j j O 3 < < < < < < < 3 3 3 3 3 3 ",
"3 3 3 3 3 3 3 3 3 3 3 3 3 % B h h 0 0 0 w ;.#.#.e.&.%.e.#.#.#.#.#.e.&.%.e.#.#.<.w < o w 4 4 f j j O < < < < < < < < 3 3 3 3 3 3 ",
"3 3 3 3 3 3 3 3 3 3 3 3 3 % B g g 0 0 0 w ;.#.#.e.=.*.e.+.+.+.+.+.e.=.*.e.#.#.<.w < . 4 4 4 f h h O < < < < < < < < 3 3 3 3 3 3 ",
"3 3 3 3 3 3 3 3 3 3 3 3 3 $ B g g 0 0 0 w ;.+.+.+.+.+.+.@.+.+.@.@.@.@.+.+.+.#.,.w < . ; # ; f h g O < < < < < < < < 3 3 3 3 3 3 ",
"3 3 3 3 3 3 3 3 3 3 3 3 3 $ B g g > O > w -.@.@.@.@.@.@.@.@.@.@.@.@.@.@.@.+.+.,.w < . + z o f g g O < < < < < < < < 3 3 3 3 3 3 ",
"3 3 3 3 3 3 3 3 3 3 3 3 3 + B g g O d O w -.@.@.@.@.@.@.@.@.g @.@.@.@.@.@.@.@.;.w <   o 6 o f g g O < < < < < < < < 3 3 3 3 3 3 ",
"3 3 3 3 3 3 3 3 3 3 3 3 3 O $ $ $ O 6 O w -.@.@.@.@.@.@.@.@.u @.@.@.@.@.@.@.@.:.w <   * o z   O O O < < < < < < < < 3 3 3 3 3 3 ",
"3 3 3 3 3 3 3 3 3 3 3 3 3 O I I D z O - w -.@.@.@.@.@.@.@.u @.u @.@.@.@.@.@.@.;.w <   - . 6 c I D O < < < < < < < < 3 3 3 3 3 3 ",
"3 3 3 3 3 3 3 3 3 3 3 3 3 O M M M 6 O O ; $.@.@.@.@.@.@.p @.@.@.p @.@.@.@.@.@.-.w   z   * o 7 M M O < < < < < < < ] 3 3 3 3 3 3 ",
"3 3 3 3 3 3 3 3 3 3 3 3 3 O M M M O - O ; #.@.@.@.@.@.@.@.@.@.@.@.@.@.@.@.@.@.$.w   :   - o 7 M M X < < k k 1 < < l l 3 3 3 3 3 ",
"3 3 3 3 3 3 3 3 3 3 3 3 3 O O O O % % X ; +.@.@.@.u o.O.@.@.@.@.o.o.@.@.@.@.@.$.w   :   - *   X X X < < < k 1 1 3 2 l 3 3 ] 3 3 ",
"3 3 3 3 3 3 3 3 3 3 3 3 3 O e e e $ X z ; +.@.@.@.o.u o.o.o.o.o.o.o.o.@.@.@.@.$.w   : 9   - 4 t t X < < < , 1 1 l 2 3 l l 2 3 3 ",
"3 3 3 3 3 3 3 3 3 3 3 ] 3 X B g g $ X 6 ; +.@.@.o.o.o.u u u u u u u o.o.@.@.o.$.w   5 6   - p g g X < < k 1 , l l 3 3 l l 2 3 3 ",
"3 3 3 3 3 3 ] ] l 3 3 l l X B g g $ X 6 ; +.o.o.o.o.o.o.o.o.o.o.o.o.o.o.o.o.o.#.w <   6   - B g g X < < , 1 1 2 l 3 3 2 2 3 3 3 ",
"3 3 3 3 3 3 3 ] l l 3 2 l X B g g X d 6 ; +.o.o.o.o.o.o.o.o.o.o.o.o.o.o.o.o.o.+.w <   6 z   B g g X < < < , l 2 2 3 3 3 3 3 3 3 ",
"3 3 3 3 3 3 3 2 l l l 2 3 X X X X X 6 6 ; +.o.o.o.o.o.o.o.o.o.o.o.o.o.o.o.o.o.+.w <   6 8 X X X X X < < < < 3 3 3 3 3 3 3 3 3 3 ",
"3 3 3 3 3 3 ] l 2 l l 3 3 X Z Z Z z 6 X ; +.....o.o.o.o.o.o.o.o.o.o.o.o.o.o.o.+.w < <   8 ! V V M X < < < 3 3 3 3 3 3 3 3 3 3 3 ",
"3 3 3 3 3 3 2 l l 2 l 3 3 X V c c 6 6 X ; @.[ ....................o.o.o.......+.w < <   v D x x x X < < < 3 3 3 3 3 3 3 3 3 3 3 ",
"3 3 3 3 3 3 3 2 l 2 2 3 3 X Z c c 6 6 X ; @.[ [ [ [ [ [ [ [ [ [ [ [ ..........+.w < <   v F x x x X < < 3 3 3 3 3 3 3 3 3 3 3 3 ",
"3 3 3 3 3 3 3 3 3 3 3 3 3 X V c c 6 X < - @.[ [ [ [ [ [ [ [ [ [ [ [ [ [ [ [ [ @.4 < < 3 X D x x x X < < 3 3 3 3 3 3 3 3 3 3 3 3 ",
"3 3 3 3 3 3 3 3 3 3 3 3 3 X V c c 6 X < - @.[ [ [ [ [ [ [ [ [ [ [ [ [ [ [ [ [ @.- < < 3 X D x x x X < 3 3 3 3 3 3 3 3 3 3 3 3 3 ",
"3 3 3 3 3 3 3 3 3 3 3 3 3 X V c c 6 X < - @.[ [ [ [ [ [ [ [ [ [ [ [ [ [ [ [ [ o.- < 3 3 X S x x x X < 3 3 3 3 3 3 3 3 3 3 3 3 3 ",
"3 3 3 3 3 3 3 3 3 3 3 3 3 X X X X X < 3 - @.' ' ' [ [ [ [ [ [ [ [ [ [ [ ' ' ' o.- < 3 3 3 X X X X X 3 3 3 3 3 3 3 3 3 3 3 3 3 3 ",
"3 3 3 3 3 3 3 3 3 3 3 3 3 3 3 3 3 3 3 3 # o.' ' ' ' ' ' ' ' ' ' ' ' ' ' ' ' ` o.* 3 3 3 3 3 3 3 3 3 3 3 3 3 3 3 3 3 3 3 3 3 3 3 ",
"3 3 3 3 3 3 3 3 3 3 3 3 3 3 3 3 3 3 3 3 3 * - - - - - - - - - - - - - - - - - = 3 3 3 3 3 3 3 3 3 3 3 3 3 3 3 3 3 3 3 3 3 3 3 3 ",
"3 3 3 3 3 3 3 3 3 3 3 3 3 3 3 3 3 3 3 3 3 3 3 3 3 3 3 3 3 3 3 3 3 3 3 3 3 ] ] 3 3 3 3 3 3 3 3 3 3 3 3 3 3 3 3 3 3 3 3 3 3 3 3 3 ",
"3 3 3 3 3 3 3 3 3 3 3 3 3 3 3 3 3 3 3 3 3 3 3 3 3 3 3 3 3 3 3 3 3 3 3 3 3 3 ] l l 3 3 3 ] ] 3 3 3 3 3 3 3 3 3 3 3 3 3 3 3 3 3 3 ",
"3 3 3 3 3 3 3 3 3 3 3 3 3 3 3 3 3 3 3 3 3 3 3 3 3 3 3 3 3 3 3 3 3 3 3 3 3 3 2 l l 3 3 l ] 3 3 3 3 3 3 3 3 3 3 3 3 3 3 3 3 3 3 3 ",
"3 3 3 3 3 3 3 3 3 3 3 3 3 3 3 3 3 3 3 3 3 3 3 3 3 3 3 3 3 3 3 3 3 3 3 3 3 3 3 2 2 3 l l l 3 3 3 3 3 3 3 3 3 3 3 3 3 3 3 3 3 3 3 ",
"3 3 3 3 3 3 3 3 3 3 3 3 3 3 3 3 3 3 3 3 3 3 3 3 3 3 3 3 3 3 3 3 3 3 3 3 3 3 3 3 3 3 l l 2 3 3 3 3 3 3 3 3 3 3 3 3 3 3 3 3 3 3 3 ",
"3 3 3 3 3 3 3 3 3 3 3 3 3 3 3 3 3 3 3 3 3 3 3 3 3 3 3 3 3 3 3 3 3 3 3 3 3 3 3 3 3 3 2 2 3 3 3 3 3 3 3 3 3 3 3 3 3 3 3 3 3 3 3 3 ",
"3 3 3 3 3 3 3 3 3 3 3 3 3 3 3 3 3 3 3 3 3 3 3 3 3 3 3 3 3 3 3 3 3 3 3 3 3 3 3 3 3 3 3 3 3 3 3 3 3 3 3 3 3 3 3 3 3 3 3 3 3 3 3 3 "
};
